 <svg xmlns="http://www.w3.org/2000/svg" viewBox="0 0 236 209"><defs><style>.a{fill:#f8f9fb;}.b{fill:#d2d7e0;}</style></defs><title>Cactus</title><circle class="a" cx="131.5" cy="104.5" r="104.5"/><path class="b" d="M44.29,24.51a16.39,16.39,0,0,0-22.58,0,15.18,15.18,0,0,0,0,22,16.39,16.39,0,0,0,22.58,0,15.18,15.18,0,0,0,0-22Zm-2.78,19.1a12.38,12.38,0,0,1-17,0,11.17,11.17,0,0,1,0-16.22,12.38,12.38,0,0,1,17,0,11.17,11.17,0,0,1,0,16.22ZM31,14V2h4V14Zm0,55V57h4V69ZM52,44.21l10.29,5.94-2,3.47L50,47.68ZM4.27,16.68l10.28,5.95-2,3.46L2.26,20.15ZM50,22.94l10-6.47,2.18,3.36-10,6.47ZM2.34,50.57l10-6.47,2.18,3.36-10,6.47ZM0,180H18v4H0Zm153,0,.25-43,19.43.1h0a12.69,12.69,0,0,0,8.64-3.61A12,12,0,0,0,185,125l.15-25.41v-.08A12.49,12.49,0,0,0,172.73,87h-.24A12.49,12.49,0,0,0,160,99.42L159.93,111,153,111l.35-62.36v-.14a24.47,24.47,0,0,0-7-17.2,24,24,0,0,0-17-7.2h-.14a23.93,23.93,0,0,0-17.05,7.1A24.46,24.46,0,0,0,105,48.32L104.81,82l-7.8,0,.11-19v-.08A13.86,13.86,0,0,0,83.33,49h-.46a13.87,13.87,0,0,0-9.77,4A13.69,13.69,0,0,0,69,62.7l-.19,32.42v.08A13.8,13.8,0,0,0,82.54,109l12.28.07,10.17.05L104.58,180H27v4H186v-4Zm-3.73-47L149,180H108.58l.43-74.85h-2l-12.16-.07L82.56,105a9.8,9.8,0,0,1-9.75-9.8v-.06L73,62.73a9.71,9.71,0,0,1,2.91-6.88,9.89,9.89,0,0,1,7-2.85h.44a9.87,9.87,0,0,1,9.81,9.87v.06l-.13,23,15.8.09L109,48.34A20.48,20.48,0,0,1,115,34a20,20,0,0,1,14.22-5.92h.12a20,20,0,0,1,14.19,6,20.46,20.46,0,0,1,5.87,14.39v.12L149,114.93l14.92.08L164,99.44A8.5,8.5,0,0,1,172.49,91h.21a8.5,8.5,0,0,1,8.45,8.49v.06L181,125a8,8,0,0,1-2.44,5.69,8.7,8.7,0,0,1-5.88,2.47h-.05ZM123,102v10h-4V102Zm0,16v56h-4V118Z"/></svg>