<svg xmlns="http://www.w3.org/2000/svg" viewBox="0 0 66.27 65.16"><path d="M62.74 19.25H38.29V0H15.92L0 6.4v56.05h22.38L28 60.2v1.41a3.55 3.55 0 0 0 3.54 3.55h31.2a3.55 3.55 0 0 0 3.54-3.55v-38.8a3.55 3.55 0 0 0-3.54-3.56zM20.62 59.49H2.95V8.89h17.67zm1.56-53.57H9.12l7.36-3h13.06zM28 22.81V57l-4.42 1.78V8.56l11.76-4.74v15.43h-3.82A3.55 3.55 0 0 0 28 22.81zm35.35 38.8a.6.6 0 0 1-.59.59H31.52a.6.6 0 0 1-.59-.59v-38.8a.6.6 0 0 1 .59-.59h31.22a.6.6 0 0 1 .59.59z"/><path d="M35.35 40h23.56V26.66H35.35zm2.94-10.37H56V37H38.29zm-2.94 13.32h5.89v2.96h-5.89zm8.83 0h5.89v2.96h-5.89zm8.84 0h5.89v2.96h-5.89zm-17.67 5.92h5.89v2.96h-5.89zm8.83 0h5.89v2.96h-5.89zm-8.83 5.93h5.89v2.96h-5.89zm8.83 0h5.89v2.96h-5.89zm8.84-5.93h5.89v8.89h-5.89zM16.2 13.58H7.36v28.14h8.84zm-2.95 25.18h-2.94V16.54h2.94zm-1.47 7.4a4.44 4.44 0 1 0 4.42 4.44 4.44 4.44 0 0 0-4.42-4.44zm0 5.92a1.48 1.48 0 1 1 1.47-1.48 1.48 1.48 0 0 1-1.47 1.49z"/></svg>