<svg xmlns="http://www.w3.org/2000/svg" viewBox="0 0 69.37 61.99"><path d="M66.41 44.28h-11.8v-4.43h11.8zM63.46 59H52.72V47.23h10.74zM33.95 47.23h9.92V59h-9.92zm11.81-7.38h5.9v4.43h-5.9zm4 19.19h-3V47.23h3zM31 39.85h11.8v4.43H31zM20.66 53.13V17.71h-8.85V3h16.34A10.33 10.33 0 0 0 48.6 3h16.34v14.71h-8.86V36.9H28v10.33h3v5.9zm-5.9-3c-3.76 0-9.87-2.74-11.43-5.9h14.38v5.48a12.26 12.26 0 0 1-3 .43m0-14.76a12.38 12.38 0 0 1 3 .42v5.48h-3v-1.43h-3v1.48H3.33c1.56-3.16 7.67-5.9 11.43-5.9m54.61 1.47H59V20.66h8.86V0H45.75v1.48a7.38 7.38 0 0 1-14.75 0V0H8.85v20.66h8.86v12.16a14.45 14.45 0 0 0-3-.35C9.57 32.47 0 36.73 0 42.8s9.57 10.33 14.76 10.33a14.43 14.43 0 0 0 3-.35v3.3H31V62h35.41V47.23h3z"/><path d="M41.33 20.66h5.9V24l-3 1-3-1zm8.86 5.49v-8.44H38.37v8.44l5.9 2z"/></svg>