<svg xmlns="http://www.w3.org/2000/svg" viewBox="0 0 56.08 64.94"><path d="M28.04 14.29l-1.96 3.99-4.4.64 3.18 3.1-.75 4.37 3.93-2.06 3.93 2.06-.75-4.37 3.18-3.1-4.39-.64-1.97-3.99z"/><path d="M49.25 11.81q.09-1.46.12-3h2.29V0H4.43v8.85h2.29q0 1.49.12 3H0v4.4a28 28 0 0 0 18.14 26.48 18.67 18.67 0 0 0 2.52 2.05v6.87h3v4.43H18l-2.21 8.85h24.47L38 56.08h-5.53v-4.42h3v-6.88a18.78 18.78 0 0 0 2.51-2 27.93 27.93 0 0 0 18.15-26v-4.9zM7.38 3h41.33v3H7.38zM3 16.21v-1.45h4.06c.87 8.78 3.26 16.62 6.74 22.4A25.17 25.17 0 0 1 3 16.21zM35.74 59l.74 3H19.6l.74-3h15.4zm-9.18-3v-4.34h3v4.43zm5.9-7.38h-8.85v-3h8.85zm.77-5.9H22.84c-7.6-4.56-13-18.35-13.29-33.95h37c-.34 15.68-5.71 29.47-13.31 34.03zm19.9-26.02a24.92 24.92 0 0 1-10.84 20.46c3.48-5.78 5.87-13.62 6.73-22.4h4.11z"/></svg>