<svg xmlns="http://www.w3.org/2000/svg" viewBox="0 0 60 60"><defs><style>.a{fill:#333740;}</style></defs><title>MOS icons NEW</title><polygon class="a" points="30 13.21 28.19 16.89 24.13 17.48 27.06 20.34 26.37 24.38 30 22.48 33.63 24.38 32.94 20.34 35.88 17.48 31.82 16.89 30 13.21"/><path class="a" d="M49.6,10.91c0-.9.09-1.81.1-2.73h2.12V0H8.18V8.18H10.3c0,.92,0,1.83.1,2.73H4.09V15a25.85,25.85,0,0,0,16.76,24.5,17.64,17.64,0,0,0,2.33,1.9v6.35h2.73v4.09H20.75l-2,8.18H41.29l-2-8.18H34.09V47.73h2.73V41.38a18.29,18.29,0,0,0,2.32-1.89A25.82,25.82,0,0,0,55.91,15.43V10.91ZM10.91,2.73H49.09V5.45H10.91ZM6.82,15V13.64h3.8c.8,8.11,3,15.35,6.22,20.69A23.24,23.24,0,0,1,6.82,15Zm30.3,39.57.68,2.72H22.2l.68-2.72H37.12Zm-8.48-2.73V47.73h2.72v4.09ZM34.09,45H25.91V42.27h8.18Zm.72-5.45H25.2c-7-4.21-12-17-12.28-31.37H47.08C46.78,22.59,41.82,35.34,34.81,39.55ZM53.18,15.43a23,23,0,0,1-10,18.9c3.21-5.33,5.42-12.58,6.22-20.69h3.8Z"/></svg>