<svg xmlns="http://www.w3.org/2000/svg" viewBox="0 0 60 60"><defs><style>.a{fill:#333740;}</style></defs><title>MOS icons NEW</title><path class="a" d="M41,43a5.21,5.21,0,0,0-5.19,5.22,2.59,2.59,0,1,1-5.18,0V42.4h4.86L31.11,35c3.4-2.32,13.83-10,13.83-17.34v-2a15.58,15.58,0,1,0-31.16,0v2c0,7.31,10.42,15,13.83,17.33L23.15,42.4h4.91v5.86a5.19,5.19,0,1,0,10.38,0,2.6,2.6,0,1,1,5.19,0V60h2.59V48.26A5.21,5.21,0,0,0,41,43ZM16.37,17.64v-2a13,13,0,1,1,26,0v2c0,5.58-8.81,12.6-13,15.38C25.18,30.24,16.37,23.22,16.37,17.64ZM27.75,39.79l1.61-2.68L31,39.79Z"/><path class="a" d="M29.36,5.88A10.49,10.49,0,0,0,18.91,16.39h2.6a7.88,7.88,0,0,1,7.85-7.9Z"/></svg>