<svg xmlns="http://www.w3.org/2000/svg" viewBox="0 0 36.97 68.38"><path d="M31.06 49.05A5.94 5.94 0 0 0 25.15 55a3 3 0 1 1-5.91 0v-6.68h5.54l-5-8.46c3.88-2.64 15.77-11.42 15.77-19.76v-2.24a17.76 17.76 0 1 0-35.55 0v2.24c0 8.34 11.88 17.11 15.76 19.76l-5.07 8.46h5.59V55a5.91 5.91 0 1 0 11.82 0 3 3 0 1 1 5.9 0v13.38h3V55a5.94 5.94 0 0 0-5.94-5.95zM3 20.1v-2.24a14.8 14.8 0 1 1 29.6 0v2.24c0 6.36-10 14.36-14.8 17.53C13 34.46 3 26.46 3 20.1zm13 25.25l1.83-3.06 1.82 3.06z"/><path d="M17.76 6.7a12 12 0 0 0-11.91 12h3a9 9 0 0 1 9-9z"/></svg>