<svg viewBox="0 0 18 18" version="1.1" xmlns="http://www.w3.org/2000/svg" xmlns:xlink="http://www.w3.org/1999/xlink">
    <path d="M15.8877929,12.5225049 C16.1907319,12.8982406 16.429584,13.2328752 16.6043564,13.5264188 C16.7791289,13.8199623 16.7966059,14.1135015 16.6567879,14.407045 C16.5169699,14.7005886 16.2897692,14.8708413 15.9751787,14.9178082 C15.6605883,14.9647752 15.4159105,14.9882583 15.2411381,14.9882583 L11.9729095,14.9882583 C11.9729095,15.821922 11.6816264,16.5322867 11.0990515,17.1193738 C10.5164767,17.7064609 9.81157167,18 8.98431536,18 C8.15705906,18 7.45215405,17.7064609 6.86957919,17.1193738 C6.28700433,16.5322867 5.99572127,15.821922 5.99572127,14.9882583 L2.79740128,14.9882583 C2.52941684,14.9882583 2.25269794,14.955969 1.96723626,14.8913894 C1.68177457,14.8268099 1.4749636,14.6653633 1.34679713,14.407045 C1.20697916,14.1135015 1.21863049,13.8111562 1.38175145,13.5 C1.54487241,13.1888438 1.76624754,12.8454031 2.04588347,12.4696673 C2.36047389,12.0587064 2.7041879,11.5919791 3.07703582,11.0694716 C3.44988373,10.5469641 3.63630488,10.0039167 3.63630488,9.44031311 L3.63630488,5.7592955 C3.63630488,4.96085706 3.77320792,4.21233226 4.04701811,3.51369863 C4.32082829,2.815065 4.69658344,2.20450359 5.17429483,1.68199609 C5.65200621,1.15948858 6.21709535,0.748533787 6.86957919,0.449119374 C7.52206304,0.149704961 8.22114238,0 8.96683821,0 C9.72418552,0 10.4290905,0.149704961 11.0815744,0.449119374 C11.7340582,0.748533787 12.3020602,1.15948858 12.7855973,1.68199609 C13.2691345,2.20450359 13.6478024,2.815065 13.9216126,3.51369863 C14.1954228,4.21233226 14.3323258,4.96085706 14.3323258,5.7592955 L14.3323258,9.44031311 C14.3323258,10.0156585 14.5100085,10.5733828 14.8653792,11.1135029 C15.2207498,11.6536231 15.561551,12.1232857 15.8877929,12.5225049 Z M8.98431536,16.8199609 C9.48532974,16.8199609 9.91351584,16.640902 10.2688865,16.2827789 C10.6242572,15.9246557 10.8019398,15.4931532 10.8019398,14.9882583 L7.16669089,14.9882583 C7.16669089,15.4931532 7.34437355,15.9246557 7.69974422,16.2827789 C8.05511488,16.640902 8.48330098,16.8199609 8.98431536,16.8199609 Z M15.3634782,13.7906067 C15.3052207,13.7084145 15.2411384,13.6232881 15.1712294,13.535225 C15.1013205,13.447162 15.0314125,13.3620356 14.9615035,13.2798434 C14.5770041,12.8101738 14.1779463,12.249514 13.7643182,11.5978474 C13.35069,10.9461807 13.1438791,10.2270098 13.1438791,9.44031311 L13.1438791,5.7592955 C13.1438791,5.12524145 13.0361043,4.53229239 12.8205516,3.98043053 C12.6049989,3.42856867 12.310803,2.94716448 11.9379551,2.53620352 C11.5651072,2.12524256 11.1252698,1.79941412 10.6184297,1.55870841 C10.1115895,1.31800271 9.56106456,1.19765166 8.96683821,1.19765166 C8.38426334,1.19765166 7.83956402,1.31800271 7.33272389,1.55870841 C6.82588376,1.79941412 6.38604634,2.12524256 6.01319843,2.53620352 C5.64035052,2.94716448 5.34906746,3.42856867 5.13934051,3.98043053 C4.92961356,4.53229239 4.82475166,5.12524145 4.82475166,5.7592955 L4.82475166,9.44031311 C4.82475166,10.2035263 4.60628936,10.9050849 4.16935822,11.5450098 C3.73242707,12.1849347 3.3450206,12.7338529 3.00712718,13.1917808 C2.9372182,13.2857148 2.86439743,13.3855181 2.7886627,13.4911937 C2.71292797,13.5968694 2.64593287,13.6966727 2.58767538,13.7906067 L15.3634782,13.7906067 Z" />
</svg>
