<svg xmlns="http://www.w3.org/2000/svg" viewBox="0 0 20.63 20.63"><path d="M1.13 0l4.4 4.45a7.53 7.53 0 0 1 .61-.7 5.57 5.57 0 0 1 2.67-1.5v-.19A1.44 1.44 0 0 1 9.26 1a1.47 1.47 0 0 1 2.11 0 1.44 1.44 0 0 1 .45 1.05v.19A6.19 6.19 0 0 1 15 4.48a6 6 0 0 1 1.29 3.77v6.56a.72.72 0 0 0 .75.75h.75v1.17l2.81 2.77-1.1 1.13L0 1.13zm3.18 7.5L5.81 9v5.86a2.12 2.12 0 0 1-.14.75h6.75l1.5 1.5h-1.5a2.13 2.13 0 0 1 .14.75 2.24 2.24 0 0 1-2.25 2.25 2.24 2.24 0 0 1-2.25-2.25 2.13 2.13 0 0 1 .14-.75H2.81v-1.5h.75a.72.72 0 0 0 .75-.75V7.5zM10 3.56a4.2 4.2 0 0 0-2.83 1.27 5.43 5.43 0 0 0-.56.7l8.2 8.2V8.25A4.62 4.62 0 0 0 13.52 5a4.22 4.22 0 0 0-3.07-1.43zm1.08 14.25a.66.66 0 0 0-.75-.75.66.66 0 0 0-.75.75.66.66 0 0 0 .75.75.66.66 0 0 0 .73-.75z"/></svg>