<svg xmlns="http://www.w3.org/2000/svg" viewBox="0 0 15 19.5"><path d="M6.45.45L6.89 0h.61a1.44 1.44 0 0 1 1.05.45A1.44 1.44 0 0 1 9 1.5v.19a5.78 5.78 0 0 1 3.23 2.2 6.17 6.17 0 0 1 1.27 3.8v6.56a.66.66 0 0 0 .75.75H15v1.5H9.61a2.13 2.13 0 0 1 .14.75A2.24 2.24 0 0 1 7.5 19.5a2.24 2.24 0 0 1-2.25-2.25 2.13 2.13 0 0 1 .14-.75H0V15h.75a.66.66 0 0 0 .75-.75V7.5a5.74 5.74 0 0 1 1.29-3.68A6 6 0 0 1 6 1.69V1.5A1.44 1.44 0 0 1 6.45.45zM7.17 3a4.39 4.39 0 0 0-3 1.43A4.36 4.36 0 0 0 3 7.5v6.75a2.12 2.12 0 0 1-.14.75h9.28a2.12 2.12 0 0 1-.14-.75V7.69a4.67 4.67 0 0 0-1.27-3.26A4.19 4.19 0 0 0 7.64 3h-.47zm1.08 14.25a.66.66 0 0 0-.75-.75.66.66 0 0 0-.75.75.66.66 0 0 0 .75.75.66.66 0 0 0 .75-.75z"/></svg>