<svg xmlns="http://www.w3.org/2000/svg" viewBox="0 0 19.5 17.25"><path d="M5.25 0a12.15 12.15 0 0 1 4.5.89 12.15 12.15 0 0 1 4.5-.89 11.83 11.83 0 0 1 2.27.23 9.6 9.6 0 0 1 1.85.52L19 1l.47.23V16.5h-8.41a1.52 1.52 0 0 1-2.62 0H0V1.22L.47 1a12.24 12.24 0 0 1 4.78-1zm0 1.5a10.8 10.8 0 0 0-3.75.75v12.09a11.86 11.86 0 0 1 3.75-.66 11.86 11.86 0 0 1 3.75.66V2.25a11.37 11.37 0 0 0-3.75-.75zm9 0a11.37 11.37 0 0 0-3.75.75v12.09a11.86 11.86 0 0 1 3.75-.66 11.86 11.86 0 0 1 3.75.66V2.25a10.8 10.8 0 0 0-3.75-.75z"/></svg>