<svg xmlns="http://www.w3.org/2000/svg" viewBox="0 0 63.66 67.96"><path d="M57.16 26.8L56 25.08l-5.51-1.68-18.66-5.76-18.71 5.76-5.5 1.68-1.13 1.72L0 36.67l6.74 2.1v21.47L31.83 68l25.09-7.72V38.77l6.74-2.1zM4.62 35l4.22-6.41L29.53 35l-4.23 6.48zm25.73 29.4L9.69 58.06V39.7L26.55 45l3.8-5.85zm-17.8-37.74l19.28-5.93 19.28 5.93-19.28 5.94zM54 58.06l-20.7 6.36v-25.3L37.1 45 54 39.7zM38.36 41.48L34.13 35l20.69-6.36L59 35zM30.35 0h2.95v8.85h-2.95zm19.023 15.517l6.265-6.265 2.086 2.086-6.265 6.265zM5.927 11.342l2.086-2.086 6.265 6.265-2.086 2.086z"/></svg>