<svg xmlns="http://www.w3.org/2000/svg" viewBox="0 0 59.04 59.04"><path d="M56.08 5.41v6.4H3v-6.4A2.46 2.46 0 0 1 5.41 3h48.21a2.46 2.46 0 0 1 2.46 2.46m-2.46 50.62H5.41A2.46 2.46 0 0 1 3 53.63V14.76h53.08v38.87a2.46 2.46 0 0 1-2.46 2.46M5.41 0A5.42 5.42 0 0 0 0 5.41v48.22A5.42 5.42 0 0 0 5.41 59h48.21A5.42 5.42 0 0 0 59 53.63V5.41A5.42 5.42 0 0 0 53.62 0z"/><path d="M14.76 22.63a2 2 0 0 1-2-2h-3.9v4.81h2v7h7.84v-7h2v-4.78h-3.97a2 2 0 0 1-2 2m.03 17.68a2 2 0 0 1-2-2h-3.9v4.81h2v7h7.84v-7h2v-4.78h-3.97a2 2 0 0 1-2 2m11.84-19.71h23.61v2.95H26.57zm0 8.86h23.61v2.95H26.57zm0 8.85h23.61v2.95H26.57zm0 8.86h23.61v2.95H26.57zM5.94 5.9h2.95v2.95H5.94zm5.91 0h2.95v2.95h-2.95zm38.37 0h2.95v2.95h-2.95z"/></svg>