<svg xmlns="http://www.w3.org/2000/svg" viewBox="0 0 60 60"><defs><style>.a{fill:#333740;}</style></defs><title>MOS icons NEW</title><path class="a" d="M52.24,0H7.76a5,5,0,0,0-5,5V44.27a5,5,0,0,0,5,5H20.47V60L37.2,49.29h15a5,5,0,0,0,5-5V5A5,5,0,0,0,52.24,0Zm2.27,44.27a2.28,2.28,0,0,1-2.27,2.28H36.41L23.19,55V46.55H7.76a2.28,2.28,0,0,1-2.27-2.28V13.69h49Zm0-33.32h-49V5A2.28,2.28,0,0,1,7.76,2.74H52.24A2.28,2.28,0,0,1,54.51,5Z"/><rect class="a" x="28.64" y="19.17" width="20.42" height="2.74"/><rect class="a" x="28.64" y="27.38" width="20.42" height="2.74"/><rect class="a" x="10.94" y="35.6" width="38.12" height="2.74"/><path class="a" d="M13.73,32.43l4.84-2.56,4.84,2.56L22.49,27l3.91-3.84L21,22.38l-2.42-4.94-2.42,4.94-5.41.79L14.65,27ZM18,24.88l.61-1.25.61,1.25,1.37.2-1,1,.24,1.37-1.23-.64-1.23.64.24-1.37-1-1Z"/><rect class="a" x="8.21" y="5.48" width="2.72" height="2.74"/><rect class="a" x="13.66" y="5.48" width="2.72" height="2.74"/><rect class="a" x="49.06" y="5.48" width="2.72" height="2.74"/></svg>