<svg xmlns="http://www.w3.org/2000/svg" viewBox="0 0 60 60"><defs><style>.a{fill:#333740;}</style></defs><title>MOS icons NEW</title><path class="a" d="M57,5.5V12H3V5.5A2.5,2.5,0,0,1,5.5,3h49A2.5,2.5,0,0,1,57,5.5M54.5,57H5.5A2.5,2.5,0,0,1,3,54.5V15H57V54.5A2.5,2.5,0,0,1,54.5,57M5.5,0A5.51,5.51,0,0,0,0,5.5v49A5.51,5.51,0,0,0,5.5,60h49A5.51,5.51,0,0,0,60,54.5V5.5A5.51,5.51,0,0,0,54.5,0Z"/><rect class="a" x="6.04" y="6" width="3" height="3"/><rect class="a" x="12.04" y="6" width="3" height="3"/><rect class="a" x="51.04" y="6" width="3" height="3"/><path class="a" d="M40.52,46.72H31.6v-8H28.4v8H19.48V37.31H16.26L30,23.26,43.74,37.31H40.52ZM34.35,44h3.43V35.13l-7.78-8-7.78,8V44h3.43V36h8.7Z"/></svg>