<svg xmlns="http://www.w3.org/2000/svg" viewBox="0 0 59.04 59.04"><path d="M56.08 5.41v6.4H3v-6.4A2.46 2.46 0 0 1 5.41 3h48.21a2.46 2.46 0 0 1 2.46 2.46m-2.46 50.62H5.41A2.46 2.46 0 0 1 3 53.63V14.76h53.08v38.87a2.46 2.46 0 0 1-2.46 2.46M5.41 0A5.42 5.42 0 0 0 0 5.41v48.22A5.42 5.42 0 0 0 5.41 59h48.21A5.42 5.42 0 0 0 59 53.63V5.41A5.42 5.42 0 0 0 53.62 0z"/><path d="M5.94 5.9h2.95v2.95H5.94zm5.91 0h2.95v2.95h-2.95zm38.37 0h2.95v2.95h-2.95zM20.88 25.29l-9.87 9.87 9.87 9.87 2.2-2.19-7.68-7.68 7.68-7.67-2.2-2.2zm17.35 0l-2.19 2.2 7.67 7.67-7.67 7.68 2.19 2.19 9.87-9.87-9.87-9.87zM24.61 46.95l2.84.81 7.05-24.39-2.84-.81-7.05 24.39z"/></svg>