<svg xmlns="http://www.w3.org/2000/svg" viewBox="0 0 59.04 59.04"><path d="M11.82 41.33h14.76V30.82h3V20.66h-8.9v1.48a1.48 1.48 0 0 1-3 0v-1.48H8.87v10.16h3zm0-17.71H15a4.43 4.43 0 0 0 8.35 0h3.2v4.26h-3v10.5h-8.78V27.87h-3z"/><path d="M53.63 0H5.41A5.42 5.42 0 0 0 0 5.41v48.21A5.42 5.42 0 0 0 5.41 59h48.22A5.42 5.42 0 0 0 59 53.62V5.41A5.42 5.42 0 0 0 53.63 0zm2.46 53.62a2.46 2.46 0 0 1-2.46 2.46H5.41A2.46 2.46 0 0 1 3 53.62V14.76h53.08zm0-41.82H3V5.41A2.46 2.46 0 0 1 5.41 3h48.22a2.46 2.46 0 0 1 2.46 2.46z"/><path d="M35.44 20.66h14.74v2.95H35.44zm0 8.86h14.74v2.95H35.44zm0 8.85h14.74v2.95H35.44zM8.87 47.23h41.31v2.95H8.87zM5.9 5.9h2.95v2.95H5.9zm5.91 0h2.95v2.95h-2.95zm38.37 0h2.95v2.95h-2.95z"/></svg>