<svg xmlns="http://www.w3.org/2000/svg" viewBox="0 0 58.84 64.82"><path d="M53.44 0H5.39A5.42 5.42 0 0 0 0 5.42v42.4a5.41 5.41 0 0 0 5.39 5.42h13.73v11.58L37.2 53.25h16.24a5.41 5.41 0 0 0 5.39-5.42V5.42A5.42 5.42 0 0 0 53.44 0zm2.45 47.83a2.46 2.46 0 0 1-2.45 2.46h-17.1l-14.28 9.14v-9.14H5.39a2.46 2.46 0 0 1-2.45-2.46v-33h53zm0-36h-53V5.42A2.46 2.46 0 0 1 5.39 3h48.05a2.46 2.46 0 0 1 2.45 2.47z"/><path d="M27.95 20.71h22.06v2.96H27.95zm0 8.87h22.06v2.96H27.95zM8.83 38.46h41.19v2.96H8.83zM11.84 35l5.23-2.77L22.3 35l-1-5.86L25.53 25l-5.85-.86-2.61-5.33-2.62 5.33-5.84.86 4.23 4.15zm4.57-8.16l.66-1.35.66 1.35 1.48.22-1.07 1.05.25 1.48-1.32-.7-1.32.7.25-1.44-1.07-1.05zM5.88 5.92h2.94v2.96H5.88zm5.89 0h2.94v2.96h-2.94zm38.24 0h2.94v2.96h-2.94z"/></svg>