<svg xmlns="http://www.w3.org/2000/svg" viewBox="0 0 19.5 19.5"><path d="M16.66 2.84A9.4 9.4 0 0 0 9.75 0a9.4 9.4 0 0 0-6.91 2.84A9.4 9.4 0 0 0 0 9.75a9.4 9.4 0 0 0 2.84 6.91 9.4 9.4 0 0 0 6.91 2.84 9.4 9.4 0 0 0 6.91-2.84 9.4 9.4 0 0 0 2.84-6.91 9.4 9.4 0 0 0-2.84-6.91zM4 4a7.82 7.82 0 0 1 5.75-2.37A7.82 7.82 0 0 1 15.49 4a7.82 7.82 0 0 1 2.39 5.74 7.82 7.82 0 0 1-2.39 5.74 7.82 7.82 0 0 1-5.74 2.39A7.82 7.82 0 0 1 4 15.49a7.82 7.82 0 0 1-2.37-5.74A7.82 7.82 0 0 1 4 4zm10.35 1.15a6.26 6.26 0 0 0-4.6-1.9 6.26 6.26 0 0 0-4.6 1.9 6.26 6.26 0 0 0-1.9 4.6 6.26 6.26 0 0 0 1.9 4.6 6.26 6.26 0 0 0 4.6 1.9 6.26 6.26 0 0 0 4.6-1.9 6.26 6.26 0 0 0 1.9-4.6 6.26 6.26 0 0 0-1.9-4.6zM6.3 6.3a4.7 4.7 0 0 1 3.45-1.42 4.85 4.85 0 0 1 4.88 4.88 4.85 4.85 0 0 1-4.87 4.88 4.85 4.85 0 0 1-4.88-4.89A4.7 4.7 0 0 1 6.3 6.3zm5.76 1.14a3.14 3.14 0 0 0-2.31-.94A3.21 3.21 0 0 0 6.5 9.75 3.21 3.21 0 0 0 9.75 13 3.21 3.21 0 0 0 13 9.75a3.14 3.14 0 0 0-.94-2.31zM8.61 8.61a1.62 1.62 0 1 1 2.29 2.29 1.62 1.62 0 1 1-2.29-2.29z"/></svg>