<svg xmlns="http://www.w3.org/2000/svg" viewBox="0 0 64.83 56.87"><path d="M53.71 25.94a25.42 25.42 0 0 1-25.26 27.94A25.43 25.43 0 0 1 28.39 3a25.59 25.59 0 0 1 5 .49 25.33 25.33 0 0 1 7 2.52l2.81-1.82A28.25 28.25 0 0 0 34 .59 28.38 28.38 0 0 0 .55 22.91a28.41 28.41 0 0 0 22.33 33.41A28.38 28.38 0 0 0 56.28 34a28.29 28.29 0 0 0 .21-9.91z"/><path d="M38.68 30.5a10.49 10.49 0 0 1-10.26 8.43 10.63 10.63 0 0 1-2.05-.2 10.47 10.47 0 1 1 9.81-17.26l-6.46 4.32a2.83 2.83 0 0 0-1.32-.32 3 3 0 1 0 3 2.8L37.85 24a10.4 10.4 0 0 1 .84 6.55m16.82-18.4l4 2.73-7.27 4.86-4-2.73zM45.58 9.8l7.27-4.86 1 4.73-7.27 4.86zM31 15.26a13.46 13.46 0 1 0 10.62 15.82 13.39 13.39 0 0 0-1.26-8.8l2.53-1.69 2.68-1.79 6.64 4.55 12.62-8.43-8-5.47L54.86 0 42.23 8.43l1.67 7.88-2.68 1.79-2.52 1.69a13.39 13.39 0 0 0-7.7-4.53"/></svg>