<svg xmlns="http://www.w3.org/2000/svg" viewBox="0 0 64.72 53.25"><path d="M46.21 5.92L41.8 1.48H22.93l-4.42 4.44H14.8V0H6v5.92H0v47.33h64.72V5.92zM8.91 3h2.94v3H8.91zm52.87 47.29H2.94V26.61H15a17.65 17.65 0 1 0 34.77 0h12zM17.65 29.58a14.71 14.71 0 1 1 14.71 14.8 14.77 14.77 0 0 1-14.71-14.8zm44.13-5.93H49a17.59 17.59 0 0 0-33.23 0H2.94V8.88h16.79l4.41-4.44h16.44L45 8.88h16.78z"/><path d="M58.84 11.83H50v8.88h8.83zm-2.94 5.92H53v-3h2.94zM32.36 41.42a11.83 11.83 0 1 0-11.77-11.84 11.81 11.81 0 0 0 11.77 11.84zm0-20.71a8.88 8.88 0 1 1-8.83 8.88 8.86 8.86 0 0 1 8.83-8.88z"/></svg>