<svg xmlns="http://www.w3.org/2000/svg" viewBox="0 0 60 60"><defs><style>.a{fill:#333740;}</style></defs><title>MOS icons NEW</title><path class="a" d="M42.84,10.8,38.75,6.69H21.25L17.16,10.8H13.72V5.32H5.54V10.8H0V54.68H60V10.8ZM8.26,8.06H11V10.8H8.26Zm49,43.88H2.73V30H13.89a15.74,15.74,0,0,0-.25,2.76,16.36,16.36,0,1,0,32.72,0A15.74,15.74,0,0,0,46.11,30H57.27ZM16.36,32.74A13.64,13.64,0,1,1,30,46.46,13.69,13.69,0,0,1,16.36,32.74Zm40.91-5.5H45.4a16.3,16.3,0,0,0-30.8,0H2.73V13.54H18.29l4.09-4.11H37.62l4.09,4.11H57.27Z"/><path class="a" d="M54.55,16.29H46.36v8.22h8.19Zm-2.73,5.48H49.09V19h2.73Z"/><path class="a" d="M30,43.71a11,11,0,1,0-10.91-11A10.95,10.95,0,0,0,30,43.71Zm0-19.19a8.23,8.23,0,1,1-8.18,8.22A8.21,8.21,0,0,1,30,24.52Z"/></svg>