<svg xmlns="http://www.w3.org/2000/svg" viewBox="0 0 17.81 15"><path d="M.75 0h1.69a1.46 1.46 0 0 1 .91.3 1.29 1.29 0 0 1 .49.82L5.81 9h8.63l1.41-5.25H5.63l-.37-1.5h12.55l-2 7.13a1.29 1.29 0 0 1-.49.82 1.46 1.46 0 0 1-.91.3h-8.6a1.46 1.46 0 0 1-.91-.3 1.28 1.28 0 0 1-.49-.82l-2-7.87H.75A.72.72 0 0 1 0 .75.72.72 0 0 1 .75 0zm4.41 11.16a2.17 2.17 0 0 1 1.59-.66 2.25 2.25 0 0 1 1.59 3.84 2.17 2.17 0 0 1-1.59.66 2.25 2.25 0 0 1-1.59-3.84zm2.34 1.59a.66.66 0 0 0-.75-.75.66.66 0 0 0-.75.75.66.66 0 0 0 .75.75.66.66 0 0 0 .75-.75zm4.41-1.59a2.25 2.25 0 0 1 3.19 3.19 2.25 2.25 0 0 1-3.19-3.19zm2.34 1.59a.66.66 0 0 0-.75-.75.66.66 0 0 0-.75.75.66.66 0 0 0 .75.75.66.66 0 0 0 .75-.75z"/></svg>