<svg xmlns="http://www.w3.org/2000/svg" viewBox="0 0 18.56 15"><path d="M.75 0h1.69a1.46 1.46 0 0 1 .91.3 1.29 1.29 0 0 1 .49.82L5.81 9h9.38L17 2.25h1.59l-2 7.13a1.29 1.29 0 0 1-.49.82 1.46 1.46 0 0 1-.91.3H5.81a1.46 1.46 0 0 1-.91-.3 1.28 1.28 0 0 1-.49-.82l-2-7.87H.75A.72.72 0 0 1 0 .75.72.72 0 0 1 .75 0zm5.16 11.16a2.17 2.17 0 0 1 1.59-.66 2.25 2.25 0 0 1 1.59 3.84A2.17 2.17 0 0 1 7.5 15a2.25 2.25 0 0 1-1.59-3.84zm2.34 1.59A.66.66 0 0 0 7.5 12a.66.66 0 0 0-.75.75.66.66 0 0 0 .75.75.66.66 0 0 0 .75-.75zM9.75 0h1.5v2.25h2.25v1.5h-2.25V6h-1.5V3.75H7.5v-1.5h2.25zm2.91 11.16a2.25 2.25 0 0 1 3.19 3.19 2.25 2.25 0 0 1-3.19-3.19zM15 12.75a.66.66 0 0 0-.75-.75.66.66 0 0 0-.75.75.66.66 0 0 0 .75.75.66.66 0 0 0 .75-.75z"/></svg>