<svg xmlns="http://www.w3.org/2000/svg" viewBox="0 0 62.47 62.08"><path d="M11.65 7.12l-.42-2.45v-.18C10.71 2.67 9.33.41 5.51 0H0v4h5.19c1.58.19 1.93.78 2.12 1.44l6.43 37.4c.27 1.84 1.36 4.14 5 4.63h36.92v-4H19.19c-1.25-.19-1.4-.59-1.5-1.27l-1.06-6.1L53 33.4h.1a6.35 6.35 0 0 0 5.66-4.75l3.71-21.5zm43.17 20.65a2.43 2.43 0 0 1-2.2 1.65L16 32.14l-3.61-21h45.37zM21.54 49.28a6.4 6.4 0 1 0 6.4 6.4 6.41 6.41 0 0 0-6.4-6.4zm0 8.8a2.4 2.4 0 1 1 2.4-2.4 2.4 2.4 0 0 1-2.4 2.4zm26.61-8.8a6.4 6.4 0 1 0 6.4 6.4 6.41 6.41 0 0 0-6.4-6.4zm0 8.8a2.4 2.4 0 1 1 2.4-2.4 2.4 2.4 0 0 1-2.4 2.4z"/></svg>