<svg xmlns="http://www.w3.org/2000/svg" viewBox="0 0 61.99 61.99"><path d="M57.56 44.28V17.92a3.17 3.17 0 0 0-3.16-3.16h-8.65v-3h5.9V0H36.9v11.81h5.9v3H7.59a3.17 3.17 0 0 0-3.16 3.16v26.31H0V62h62V44.28zM39.85 8.86V3h8.85v5.9zM7.38 17.92a.22.22 0 0 1 .21-.21H54.4a.22.22 0 0 1 .21.21v26.36H7.38zM59 59H3V47.23h56z"/><path d="M28.04 50.18h5.9v2.95h-5.9zm5.91-11.81h14.76V23.61H33.95zm3-11.81h8.85v8.86h-8.9zm-23.67-2.95h14.76v2.95H13.28zm0 5.91h2.95v2.95h-2.95zm5.91 0h2.95v2.95h-2.95zm5.9 0h2.95v2.95h-2.95zm-11.81 5.9h2.95v2.95h-2.95zm5.91 0h2.95v2.95h-2.95zm5.9 0h2.95v2.95h-2.95z"/></svg>