<svg xmlns="http://www.w3.org/2000/svg" viewBox="0 0 18 18"><defs><style>.a{fill:#333740;}</style></defs><title>MOS icons NEW</title><path class="a" d="M0,5.54H18V15.83H0V5.54ZM16.67,2.17l.49,2.73H15.83l-.2-1.24L8.36,4.9H.72ZM3.17,6.83a1.45,1.45,0,0,1,0,.32A1.55,1.55,0,0,1,2.75,8.3a1.59,1.59,0,0,1-1.14.46,1.45,1.45,0,0,1-.32,0v3.94a1.45,1.45,0,0,1,.32,0,1.57,1.57,0,0,1,1.6,1.6,1.45,1.45,0,0,1,0,.32H14.83a1.45,1.45,0,0,1,0-.32,1.57,1.57,0,0,1,1.6-1.6,1.45,1.45,0,0,1,.32,0V8.72a1.45,1.45,0,0,1-.32,0,1.59,1.59,0,0,1-1.14-.46,1.55,1.55,0,0,1-.46-1.15,1.45,1.45,0,0,1,0-.32ZM6.73,8.42a3.19,3.19,0,0,1,4.54,0,3.21,3.21,0,0,1,0,4.54A3.1,3.1,0,0,1,9,13.9a3.21,3.21,0,0,1-3.21-3.21A3.08,3.08,0,0,1,6.73,8.42Zm3.64.9a1.93,1.93,0,0,0-3.3,1.37A1.93,1.93,0,0,0,9,12.62a1.93,1.93,0,0,0,1.93-1.93A1.89,1.89,0,0,0,10.37,9.32Z"/></svg>