<svg xmlns="http://www.w3.org/2000/svg" viewBox="0 0 21 15.94"><path d="M0 3.94h21v12H0v-12zM19.45 0L20 3.19h-1.53l-.23-1.45-8.49 1.45H.84zM3.7 5.44a2.06 2.06 0 0 1 0 .38 1.84 1.84 0 0 1-1.82 1.87 2 2 0 0 1-.37 0v4.59a2 2 0 0 1 .38 0 1.84 1.84 0 0 1 1.88 1.88 2.06 2.06 0 0 1 0 .38H17.3a2 2 0 0 1 0-.37 1.84 1.84 0 0 1 1.88-1.87 2 2 0 0 1 .38 0V7.64a2 2 0 0 1-.37 0 1.84 1.84 0 0 1-1.87-1.87 2 2 0 0 1 0-.37zm4.15 1.85a3.73 3.73 0 0 1 5.3 0 3.61 3.61 0 0 1 1.1 2.65 3.76 3.76 0 0 1-3.75 3.75 3.76 3.76 0 0 1-3.75-3.75 3.61 3.61 0 0 1 1.1-2.65zm4.24 1.05a2.26 2.26 0 0 0-3.19 0 2.26 2.26 0 0 0 0 3.19 2.26 2.26 0 0 0 3.19 0 2.26 2.26 0 0 0 0-3.19z"/></svg>