<svg xmlns="http://www.w3.org/2000/svg" viewBox="0 0 18 18"><defs><style>.a{fill:#333740;}</style></defs><title>MOS icons NEW</title><path class="a" d="M1.93,2.57H16.07A1.91,1.91,0,0,1,18,4.5v9a1.91,1.91,0,0,1-1.93,1.93H1.93A1.91,1.91,0,0,1,0,13.5v-9A1.91,1.91,0,0,1,1.93,2.57Zm0,1.29a.56.56,0,0,0-.64.64v9a.56.56,0,0,0,.64.64H16.07a.56.56,0,0,0,.64-.64v-9a.56.56,0,0,0-.64-.64ZM8.36,5.14H9.64A3.84,3.84,0,0,1,13.5,9a3.84,3.84,0,0,1-3.86,3.86H8.36A3.84,3.84,0,0,1,4.5,9,3.84,3.84,0,0,1,8.36,5.14Zm1.83,2a2.52,2.52,0,0,0-1.83-.74A2.53,2.53,0,0,0,5.79,9a2.53,2.53,0,0,0,2.57,2.57A2.53,2.53,0,0,0,10.93,9,2.52,2.52,0,0,0,10.19,7.17Zm-2.36.3v3.06a1.89,1.89,0,0,1-.78-.61,1.56,1.56,0,0,1,0-1.84A1.89,1.89,0,0,1,7.83,7.47Zm1.05,0a1.89,1.89,0,0,1,.78.61,1.56,1.56,0,0,1,0,1.84,1.89,1.89,0,0,1-.78.61Z"/></svg>