<svg xmlns="http://www.w3.org/2000/svg" viewBox="0 0 18 18"><defs><style>.a{fill:#333740;}</style></defs><title>MOS icons NEW</title><path class="a" d="M1.93,2.57H16.07A1.91,1.91,0,0,1,18,4.5v9a1.91,1.91,0,0,1-1.93,1.93H1.93A1.91,1.91,0,0,1,0,13.5v-9A1.91,1.91,0,0,1,1.93,2.57Zm0,1.29a.56.56,0,0,0-.64.64v9a.56.56,0,0,0,.64.64H16.07a.56.56,0,0,0,.64-.64v-9a.56.56,0,0,0-.64-.64Zm4.5.64A4.47,4.47,0,0,1,9,5.3a4.47,4.47,0,0,1,2.57-.8,4.34,4.34,0,0,1,3.18,1.33A4.33,4.33,0,0,1,16.07,9a4.33,4.33,0,0,1-1.32,3.17,4.34,4.34,0,0,1-3.18,1.33A4.47,4.47,0,0,1,9,12.7a4.47,4.47,0,0,1-2.57.8,4.34,4.34,0,0,1-3.18-1.33A4.33,4.33,0,0,1,1.93,9,4.33,4.33,0,0,1,3.25,5.83,4.34,4.34,0,0,1,6.43,4.5Zm0,1.29a3.08,3.08,0,0,0-2.27.94,3.19,3.19,0,0,0,0,4.54,3.08,3.08,0,0,0,2.27.94,3.14,3.14,0,0,0,2.13-.8A4.38,4.38,0,0,1,8,10.29h1.4a2.82,2.82,0,0,0,.2-.65H7.79A3.19,3.19,0,0,1,7.71,9a3.19,3.19,0,0,1,.08-.64H9.56a2.82,2.82,0,0,0-.2-.65H8a3.69,3.69,0,0,1,.6-1.12A3.14,3.14,0,0,0,6.43,5.79Zm5.14,0A3.13,3.13,0,0,0,10,6.23a4.27,4.27,0,0,1,1,2.77,4.27,4.27,0,0,1-1,2.77,3.13,3.13,0,0,0,1.61.44,3.08,3.08,0,0,0,2.27-.94,3.19,3.19,0,0,0,0-4.54A3.08,3.08,0,0,0,11.57,5.79Z"/></svg>