<svg xmlns="http://www.w3.org/2000/svg" viewBox="0 0 18 18"><defs><style>.a{fill:#333740;}</style></defs><title>MOS icons NEW</title><path class="a" d="M1.93,2.57H16.07A1.91,1.91,0,0,1,18,4.5v9a1.91,1.91,0,0,1-1.93,1.93H1.93A1.91,1.91,0,0,1,0,13.5v-9A1.91,1.91,0,0,1,1.93,2.57Zm0,1.29a.56.56,0,0,0-.64.64v9a.56.56,0,0,0,.64.64H16.07a.56.56,0,0,0,.64-.64v-9a.56.56,0,0,0-.64-.64ZM1.85,6.75H3.62a.65.65,0,0,1,.4.12.61.61,0,0,1,.2.24l0,.12.4,2a2.7,2.7,0,0,0-.92-1.41A5.31,5.31,0,0,0,2.41,7Zm4.06,0H7.15L5.38,11.17H4.1l-1-3.58A3.7,3.7,0,0,1,4.74,9.48l.08.44Zm1.72,0H8.84l-.72,4.42H6.91Zm3.54-.08a2.35,2.35,0,0,1,.54.06l.42.1.16.08-.2,1a1.37,1.37,0,0,0-.8-.33c-.54,0-.8.16-.8.49,0,.1.27.3.82.6a1.27,1.27,0,0,1,.82,1.1,1.35,1.35,0,0,1-.66,1.13,2.31,2.31,0,0,1-1.35.46,4,4,0,0,1-.72-.06A1.41,1.41,0,0,1,9,11.13l-.12,0,.2-1a2.23,2.23,0,0,0,1.13.25c.5,0,.76-.14.76-.41a.5.5,0,0,0-.24-.38,2.19,2.19,0,0,0-.57-.3,1.29,1.29,0,0,1-.56-.44A1.31,1.31,0,0,1,9.32,8a1.21,1.21,0,0,1,.48-1A2.19,2.19,0,0,1,11.17,6.67ZM14,6.75h1.25l.88,4.42h-1l-.12-.6H13.5l-.24.6H12.09ZM14.46,8l-.64,1.68h1Z"/></svg>