<svg xmlns="http://www.w3.org/2000/svg" viewBox="0 0 19.5 19.5"><path d="M9.75 0a9.19 9.19 0 0 1 6.75 2.77l-1 1.08A7.78 7.78 0 0 0 9.75 1.5a8 8 0 0 0-5.84 2.41A8 8 0 0 0 1.5 9.75a8 8 0 0 0 2.41 5.84A8 8 0 0 0 9.75 18a8 8 0 0 0 5.84-2.41A8 8 0 0 0 18 9.75a7.71 7.71 0 0 0-.23-1.87L19 6.66a8.68 8.68 0 0 1 .52 3.09 9.39 9.39 0 0 1-2.86 6.89 9.39 9.39 0 0 1-6.91 2.86 9.39 9.39 0 0 1-6.89-2.86A9.39 9.39 0 0 1 0 9.75a9.39 9.39 0 0 1 2.86-6.89A9.39 9.39 0 0 1 9.75 0zm8.44 3.19l1.13 1.13-9 9-.56.47-.56-.47-3.76-3.76 1.12-1.12 3.19 3.23z"/></svg>