<svg xmlns="http://www.w3.org/2000/svg" viewBox="0 0 18 18"><defs><style>.a{fill:#333740;}</style></defs><title>MOS icons NEW</title><path class="a" d="M9,2.81a4.23,4.23,0,0,1,2.51.79,4.73,4.73,0,0,1,1.64,2.06A3.86,3.86,0,0,1,16.8,9.32,3.21,3.21,0,0,1,18,11.81a3.36,3.36,0,0,1-3.38,3.38H3.38a3.27,3.27,0,0,1-2.4-1,3.26,3.26,0,0,1-1-2.39,3.14,3.14,0,0,1,.69-2A3.15,3.15,0,0,1,2.46,8.65a2.55,2.55,0,0,1,.81-1.21,2.72,2.72,0,0,1,1.34-.62A4.61,4.61,0,0,1,6.05,4,4.16,4.16,0,0,1,9,2.81ZM9,3.94A3.36,3.36,0,0,0,5.62,7.31v.57H5.06a1.63,1.63,0,0,0-1,.36,1.67,1.67,0,0,0-.6.94l-.07.38L3,9.63a2,2,0,0,0-1.3.72,2.19,2.19,0,0,0-.53,1.46,2.14,2.14,0,0,0,.66,1.6,2.13,2.13,0,0,0,1.6.65H14.62a2.24,2.24,0,0,0,2.26-2.25A2.1,2.1,0,0,0,16,10l-.21-.18V9.56a2.83,2.83,0,0,0-2.81-2.81h-.56l-.15-.42A3.33,3.33,0,0,0,9,3.94ZM9,7.1l.42.35L11.67,9.7l-.84.85L9.56,9.25v3.69H8.44V9.25l-1.27,1.3L6.33,9.7,8.58,7.45Z"/></svg>