<svg xmlns="http://www.w3.org/2000/svg" viewBox="0 0 24 16.5"><path d="M12 0a5.62 5.62 0 0 1 3.35 1.05 6.26 6.26 0 0 1 2.18 2.75 5 5 0 0 1 3.38 1.5 5 5 0 0 1 1.5 3.38 4.39 4.39 0 0 1 .28 6.52 4.34 4.34 0 0 1-3.19 1.3h-15a4.34 4.34 0 0 1-3.19-1.31A4.34 4.34 0 0 1 0 12a4.23 4.23 0 0 1 .91-2.67 4.28 4.28 0 0 1 2.37-1.55 3.52 3.52 0 0 1 1.08-1.62 3.74 3.74 0 0 1 1.78-.82 6.11 6.11 0 0 1 1.92-3.8A5.54 5.54 0 0 1 12 0zm0 1.5a4.34 4.34 0 0 0-3.19 1.31A4.34 4.34 0 0 0 7.5 6v.75h-.75a2.17 2.17 0 0 0-1.41.49 2.26 2.26 0 0 0-.8 1.24L4.45 9l-.52.09a2.7 2.7 0 0 0-1.73 1 3 3 0 0 0 .16 4.08A2.9 2.9 0 0 0 4.5 15h15a3 3 0 0 0 3-3 2.81 2.81 0 0 0-1.22-2.39L21 9.38V9a3.76 3.76 0 0 0-3.75-3.75h-.75l-.19-.56A4.44 4.44 0 0 0 12 1.5zm-.75 3.75h1.5v4.92l1.69-1.73 1.13 1.13-3 3L12 13l-.56-.47-3-3 1.12-1.09 1.69 1.73z"/></svg>