<svg xmlns="http://www.w3.org/2000/svg" viewBox="0 0 24 15"><path d="M12 0a5 5 0 0 1 4.36 2.44 4.9 4.9 0 0 1 .89-.19 4.34 4.34 0 0 1 3.19 1.31 4.34 4.34 0 0 1 1.31 3.19A4.19 4.19 0 0 1 24 10.5a4.48 4.48 0 0 1-4.5 4.5h-15a4.34 4.34 0 0 1-3.19-1.31A4.34 4.34 0 0 1 0 10.5a4.34 4.34 0 0 1 1.31-3.19A4.34 4.34 0 0 1 4.5 6H5a3.59 3.59 0 0 1 2-1.92 5.07 5.07 0 0 1 1.8-3A5 5 0 0 1 12 0zm0 1.5a3.64 3.64 0 0 0-2.46.91A3.56 3.56 0 0 0 8.3 4.69v.52l-.52.14a2.29 2.29 0 0 0-1.08.59A2.08 2.08 0 0 0 6 7l-.14.7-.75-.14a2.38 2.38 0 0 0-.61-.06 3 3 0 0 0-3 3 3 3 0 0 0 3 3h15a3 3 0 0 0 3-3 2.8 2.8 0 0 0-1.83-2.77l-.52-.23.1-.5v-.25a2.95 2.95 0 0 0-4-2.81l-.61.19-.28-.56A4.06 4.06 0 0 0 14 2.06a3.61 3.61 0 0 0-2-.56z"/></svg>