<svg xmlns="http://www.w3.org/2000/svg" viewBox="0 0 18 18"><defs><style>.a{fill:#333740;}</style></defs><title>MOS icons NEW</title><path class="a" d="M9,3.38A3.71,3.71,0,0,1,12.27,5.2a3.88,3.88,0,0,1,.67-.14,3.36,3.36,0,0,1,3.37,3.38A3.13,3.13,0,0,1,18,11.25a3.35,3.35,0,0,1-3.38,3.37H3.38a3.26,3.26,0,0,1-2.4-1A3.4,3.4,0,0,1,1,8.86a3.26,3.26,0,0,1,2.4-1l.35,0A2.66,2.66,0,0,1,5.2,6.47,3.83,3.83,0,0,1,6.56,4.25,3.76,3.76,0,0,1,9,3.38ZM9,4.5a2.74,2.74,0,0,0-1.85.69,2.7,2.7,0,0,0-.93,1.7l0,.39-.39.1A1.79,1.79,0,0,0,5,7.82a1.57,1.57,0,0,0-.45.83l-.11.53-.56-.11A1.71,1.71,0,0,0,3.38,9a2.17,2.17,0,0,0-1.6.65,2.27,2.27,0,0,0,0,3.2,2.17,2.17,0,0,0,1.6.65H14.62a2.24,2.24,0,0,0,2.26-2.25A2.09,2.09,0,0,0,15.5,9.18L15.12,9l.07-.39V8.44a2.22,2.22,0,0,0-2.25-2.25,2,2,0,0,0-.74.14l-.46.14-.21-.42a3.09,3.09,0,0,0-1-1.13A2.74,2.74,0,0,0,9,4.5Z"/></svg>