<svg xmlns="http://www.w3.org/2000/svg" viewBox="0 0 21 16.5"><path d="M2.25 0h13.5a2.17 2.17 0 0 1 1.59.66A2.17 2.17 0 0 1 18 2.25V3h.75A2.24 2.24 0 0 1 21 5.25v9a2.24 2.24 0 0 1-2.25 2.25H5.25A2.24 2.24 0 0 1 3 14.25v-.75h-.75a2.17 2.17 0 0 1-1.59-.66A2.17 2.17 0 0 1 0 11.25v-9A2.17 2.17 0 0 1 .66.66 2.17 2.17 0 0 1 2.25 0zm0 1.5a.66.66 0 0 0-.75.75v9a.66.66 0 0 0 .75.75h13.5a.66.66 0 0 0 .75-.75V4.5H2.25V3H16.5v-.75a.66.66 0 0 0-.75-.75zM18 7.5v3.75a2.24 2.24 0 0 1-2.25 2.25H4.5v.75a.66.66 0 0 0 .75.75h13.5a.66.66 0 0 0 .75-.75V7.5zm0-3V6h1.5v-.75a.66.66 0 0 0-.75-.75z"/></svg>