<svg xmlns="http://www.w3.org/2000/svg" viewBox="0 0 18 18"><defs><style>.a{fill:#333740;}</style></defs><title>MOS icons NEW</title><path class="a" d="M1.93,1.93H13.5a1.91,1.91,0,0,1,1.93,1.93V4.5h.64A1.91,1.91,0,0,1,18,6.43v7.71a1.91,1.91,0,0,1-1.93,1.93H4.5a1.91,1.91,0,0,1-1.93-1.93V13.5H1.93A1.91,1.91,0,0,1,0,11.57V3.86A1.91,1.91,0,0,1,1.93,1.93Zm0,1.28a.57.57,0,0,0-.64.65v7.71a.56.56,0,0,0,.64.64H13.5a.56.56,0,0,0,.64-.64V5.79H1.93V4.5H14.14V3.86a.57.57,0,0,0-.64-.65Zm13.5,5.15v3.21A1.91,1.91,0,0,1,13.5,13.5H3.86v.64a.57.57,0,0,0,.64.65H16.07a.57.57,0,0,0,.64-.65V8.36Zm0-2.57V7.07h1.28V6.43a.56.56,0,0,0-.64-.64Z"/></svg>