<svg xmlns="http://www.w3.org/2000/svg" viewBox="0 0 18 18"><defs><style>.a{fill:#333740;}</style></defs><title>MOS icons NEW</title><path class="a" d="M15.37,2.63h0a9,9,0,0,0-12.73,0,9.09,9.09,0,0,0-2,3,9,9,0,0,0,2,9.75,9.09,9.09,0,0,0,3,2,9,9,0,0,0,9.75-2,9.09,9.09,0,0,0,2-3,9,9,0,0,0-2-9.75ZM14.28,14.28a7.48,7.48,0,0,1-10.56,0l0,0a7.46,7.46,0,1,1,10.58,0Z"/><polygon class="a" points="10.09 9 12.46 11.37 11.37 12.46 9 10.09 6.63 12.46 5.54 11.37 7.91 9 5.54 6.63 6.63 5.54 9 7.91 11.37 5.54 12.46 6.63 10.09 9"/></svg>