<svg xmlns="http://www.w3.org/2000/svg" viewBox="0 0 19.53 19.53"><path d="M8.79 0h1.5v1.55a8 8 0 0 1 5.12 2.27 8 8 0 0 1 2.51 5h1.55v1.5h-1.55a8 8 0 0 1-2.27 5.12 8 8 0 0 1-5 2.51v1.55h-1.5L9.2 18a8 8 0 0 1-5.12-2.27 8 8 0 0 1-2.51-5L0 10.74v-1.5h1.55a8 8 0 0 1 2.27-5.15 8 8 0 0 1 5-2.51zm.07 3a6.68 6.68 0 0 0-4 2.06A6.68 6.68 0 0 0 3 9.17h1.5v1.5H3a6.68 6.68 0 0 0 2.06 4 6.68 6.68 0 0 0 4.08 1.88v-1.5h1.5v1.5a6.68 6.68 0 0 0 4-2.06 6.68 6.68 0 0 0 1.88-4.08h-1.5v-1.5h1.5a6.68 6.68 0 0 0-2.06-4A6.68 6.68 0 0 0 10.36 3v1.5h-1.5z"/></svg>