<svg xmlns="http://www.w3.org/2000/svg" viewBox="0 0 18 18"><defs><style>.a{fill:#333740;}</style></defs><title>MOS icons NEW</title><path class="a" d="M8.31,0H9.69V1.43a7.45,7.45,0,0,1,4.68,2.2,7.45,7.45,0,0,1,2.2,4.68H18V9.69H16.57a7.62,7.62,0,0,1-6.88,6.88V18H8.31V16.57a7.45,7.45,0,0,1-4.68-2.2,7.45,7.45,0,0,1-2.2-4.68H0V8.31H1.43a7.45,7.45,0,0,1,2.2-4.68,7.45,7.45,0,0,1,4.68-2.2Zm0,2.77A6.1,6.1,0,0,0,4.59,4.59,6.13,6.13,0,0,0,2.77,8.31H4.15V9.69H2.77a6.13,6.13,0,0,0,1.82,3.72,6.1,6.1,0,0,0,3.72,1.82V13.85H9.69v1.38a6.13,6.13,0,0,0,3.72-1.82,6.13,6.13,0,0,0,1.82-3.72H13.85V8.31h1.38a6.13,6.13,0,0,0-1.82-3.72A6.13,6.13,0,0,0,9.69,2.77V4.15H8.31Z"/></svg>