<svg xmlns="http://www.w3.org/2000/svg" viewBox="0 0 19.5 18.09"><path d="M9.75 0l.25.09 4.5 1.83.47.19v5l4 1.78.47.19v6.09l-.37.19-4.5 2.53-.37.19-.33-.19-4.12-2.05-4.17 2.07-.33.19-.37-.19-4.5-2.53-.38-.19v-6.1l.47-.19 4-1.78v-5l.53-.2L9.47.09zM1.5 10.78v3.52l3 1.7v-3.7zm3.75-2.3L2.53 9.66 5.25 11 8 9.66zM6 3.7v3.47l3 1.36V4.88zm3 7.17l-3 1.41V16l3-1.5zm.75-9.23l-2.44 1 2.44.94 2.44-.94zM13.5 3.7l-3 1.17v3.66l3-1.36zm-3 7.17v3.66l3 1.5v-3.75zm3.75-2.39l-1.87.8-.84.38L14.25 11 17 9.66zm3.75 2.3l-3 1.5V16l3-1.69z"/></svg>