<svg xmlns="http://www.w3.org/2000/svg" viewBox="0 0 18 15"><path d="M2.65 2.65A8.66 8.66 0 0 1 9 0a8.66 8.66 0 0 1 6.35 2.65A8.67 8.67 0 0 1 18 9a8.69 8.69 0 0 1-2.06 5.72l-.19.28H2.25l-.19-.28A8.69 8.69 0 0 1 0 9a8.66 8.66 0 0 1 2.65-6.35zM14.3 3.7A7.22 7.22 0 0 0 9 1.5a7.22 7.22 0 0 0-5.3 2.2A7.22 7.22 0 0 0 1.5 9 7.34 7.34 0 0 0 3 13.5h12A7.34 7.34 0 0 0 16.5 9a7.22 7.22 0 0 0-2.2-5.3zM2.46 8.46A.73.73 0 0 1 3 8.25a.75.75 0 1 1 0 1.5.76.76 0 0 1-.54-1.29zm.8-3a.73.73 0 0 1 .54-.21.75.75 0 1 1 0 1.5.76.76 0 0 1-.54-1.29zm0 6a.73.73 0 0 1 .54-.21.75.75 0 1 1 0 1.5.76.76 0 0 1-.54-1.29zm2.2-8.2a.75.75 0 0 1 1.29.54.75.75 0 1 1-1.5 0 .73.73 0 0 1 .21-.54zm8.51 2l.75 1.31L10.5 9a1.42 1.42 0 0 1-.45 1.08A1.48 1.48 0 0 1 9 10.5a1.49 1.49 0 0 1-1.05-2.55A1.44 1.44 0 0 1 9 7.5a1.67 1.67 0 0 1 .75.19zm-5.51-2.8A.75.75 0 0 1 9.75 3a.75.75 0 1 1-1.5 0 .73.73 0 0 1 .21-.54zm3 .8a.75.75 0 0 1 1.29.54.75.75 0 1 1-1.5 0 .73.73 0 0 1 .21-.54zm2.2 8.2a.79.79 0 1 1-.21.54.73.73 0 0 1 .21-.54zm.8-3a.79.79 0 1 1-.21.54.73.73 0 0 1 .21-.54z"/></svg>