<svg xmlns="http://www.w3.org/2000/svg" viewBox="0 0 18 18"><defs><style>.a{fill:#333740;}</style></defs><title>MOS icons NEW</title><path class="a" d="M2.65,4.15A8.63,8.63,0,0,1,9,1.5a8.63,8.63,0,0,1,6.35,2.65A8.63,8.63,0,0,1,18,10.5a8.72,8.72,0,0,1-2.06,5.72l-.19.28H2.25l-.19-.28A8.72,8.72,0,0,1,0,10.5,8.63,8.63,0,0,1,2.65,4.15Zm11.65,1A7.23,7.23,0,0,0,9,3,7.23,7.23,0,0,0,3.7,5.2a7.23,7.23,0,0,0-2.2,5.3A7.37,7.37,0,0,0,3.05,15H15a7.37,7.37,0,0,0,1.55-4.5A7.23,7.23,0,0,0,14.3,5.2ZM2.46,10A.73.73,0,0,1,3,9.75a.75.75,0,1,1,0,1.5A.76.76,0,0,1,2.46,10Zm.8-3a.73.73,0,0,1,.54-.21.75.75,0,1,1,0,1.5A.76.76,0,0,1,3.26,7Zm0,6a.73.73,0,0,1,.54-.21.75.75,0,1,1,0,1.5A.76.76,0,0,1,3.26,13Zm2.2-8.2a.8.8,0,1,1-.21.54A.73.73,0,0,1,5.46,4.76Zm8.51,2,.75,1.31L10.5,10.5a1.41,1.41,0,0,1-.45,1.08A1.46,1.46,0,0,1,9,12a1.54,1.54,0,0,1-1.5-1.5A1.54,1.54,0,0,1,9,9a1.61,1.61,0,0,1,.75.19ZM8.46,4a.75.75,0,0,1,1.29.54.75.75,0,1,1-1.5,0A.73.73,0,0,1,8.46,4Zm3,.8a.8.8,0,1,1-.21.54A.73.73,0,0,1,11.46,4.76Zm2.2,8.2a.8.8,0,1,1-.21.54A.73.73,0,0,1,13.66,13Zm.8-3a.8.8,0,1,1-.21.54A.73.73,0,0,1,14.46,10Z"/></svg>