<svg xmlns="http://www.w3.org/2000/svg" viewBox="0 0 60 59.07"><defs><style>.a{fill:#333740;}</style></defs><title>MOS icons NEW</title><path class="a" d="M10.32,16.2a5.43,5.43,0,1,1,5.43-5.43A5.44,5.44,0,0,1,10.32,16.2Zm0-8.88a3.45,3.45,0,1,0,3.45,3.45A3.46,3.46,0,0,0,10.32,7.32Z"/><rect class="a" x="9.33" width="1.98" height="3.83"/><rect class="a" x="9.33" y="17.75" width="1.98" height="3.83"/><rect class="a" x="17.03" y="13.29" width="1.98" height="3.83" transform="translate(-4.16 23.21) rotate(-60)"/><rect class="a" x="1.64" y="4.42" width="1.98" height="3.83" transform="translate(-4.17 5.44) rotate(-60)"/><rect class="a" x="16.09" y="5.34" width="3.83" height="1.98" transform="translate(-0.54 10.83) rotate(-33)"/><rect class="a" x="0.72" y="14.25" width="3.83" height="1.98" transform="translate(-7.88 3.89) rotate(-33)"/><rect class="a" y="57.09" width="5.88" height="1.98"/><rect class="a" x="8.57" y="57.09" width="51.43" height="1.98"/><rect class="a" x="37.9" y="32.5" width="1.98" height="3.04"/><rect class="a" x="37.9" y="37.44" width="1.98" height="18.04"/><path class="a" d="M49.56,59.07H33.29V34.92H26.35a4.83,4.83,0,0,1-4.82-4.82V19.5a4.82,4.82,0,0,1,9.64,0v5.86h2.12V15a8.14,8.14,0,0,1,16.27,0V34.51h1.5V30.8a4.38,4.38,0,0,1,8.76,0v8.63a4.36,4.36,0,0,1-4.25,4.37h-6Zm-14.28-2h12.3V41.82h8a2.38,2.38,0,0,0,2.3-2.39V30.8a2.4,2.4,0,0,0-4.79,0v5.69H47.58V15a6.15,6.15,0,1,0-12.3,0V27.35H29.19V19.5a2.84,2.84,0,1,0-5.67,0V30.1a2.84,2.84,0,0,0,2.83,2.84h8.93Z"/></svg>