<svg xmlns="http://www.w3.org/2000/svg" viewBox="0 0 84.72 83.4">
    <path class="cls-1" d="M14.57,22.88a7.67,7.67,0,1,1,7.67-7.67A7.68,7.68,0,0,1,14.57,22.88Zm0-12.53a4.87,4.87,0,1,0,4.87,4.87A4.87,4.87,0,0,0,14.57,10.34Z"/>
    <rect class="cls-1" x="13.17" width="2.8" height="5.41"/>
    <rect class="cls-1" x="13.17" y="25.07" width="2.8" height="5.41"/>
    <rect class="cls-1" x="24.05" y="18.77" width="2.8" height="5.41" transform="translate(-5.87 32.78) rotate(-60)"/>
    <rect class="cls-1" x="2.31" y="6.24" width="2.8" height="5.41" transform="translate(-5.89 7.69) rotate(-60)"/>
    <rect class="cls-1" x="22.72" y="7.54" width="5.41" height="2.8" transform="matrix(0.84, -0.54, 0.54, 0.84, -0.77, 15.29)"/>
    <rect class="cls-1" x="1.01" y="20.12" width="5.41" height="2.8" transform="matrix(0.84, -0.54, 0.54, 0.84, -11.12, 5.5)"/>
    <rect class="cls-1" y="80.6" width="8.3" height="2.8"/>
    <rect class="cls-1" x="12.1" y="80.6" width="72.62" height="2.8"/>
    <rect class="cls-1" x="53.51" y="45.89" width="2.8" height="4.29"/>
    <rect class="cls-1" x="53.51" y="52.87" width="2.8" height="25.48"/>
    <path class="cls-1" d="M70,83.4H47V49.31h-9.8a6.81,6.81,0,0,1-6.81-6.81v-15a6.81,6.81,0,0,1,13.61,0v8.28h3V21.16a11.49,11.49,0,0,1,23,0V48.72H72.1V43.49a6.18,6.18,0,0,1,12.36,0V55.67a6.15,6.15,0,0,1-6,6.18H70ZM49.81,80.6H67.18V59.05H78.42a3.35,3.35,0,0,0,3.24-3.38V43.49a3.38,3.38,0,1,0-6.76,0v8H67.18V21.16a8.69,8.69,0,1,0-17.37,0V38.61H41.22V27.53a4,4,0,1,0-8,0v15a4,4,0,0,0,4,4h12.6Z"/>
</svg>
