<svg xmlns="http://www.w3.org/2000/svg" viewBox="0 0 50.13 68.27"><path d="M20.6 26.39v-5.98L10.47 3.55 0 20.4v42.9a4.85 4.85 0 0 0 4.84 4.86h10.93a4.85 4.85 0 0 0 4.84-4.86V26.39zm-8.82-.05a3.14 3.14 0 0 1 2.94-3.26 3.13 3.13 0 0 1 2.93 3.18v25.62h-5.87V26.34zM10.43 9.2l2 3.3h-4zm-3.89 6.27h7.65l3.21 5.35a5.55 5.55 0 0 0-2.68-.7 5.72 5.72 0 0 0-4.41 2.14 5.72 5.72 0 0 0-4.41-2.14 5.56 5.56 0 0 0-2.68.69zM2.95 26.39H3a3.15 3.15 0 0 1 2.9-3.31 3.14 3.14 0 0 1 2.94 3.26v25.54H2.95zm14.71 36.9a1.9 1.9 0 0 1-1.89 1.9H4.84a1.9 1.9 0 0 1-1.89-1.9v-2.53h14.71zm0-5.49H2.95v-3h14.7v3zM29.31 0v68.27h20.82V0zM47 65.08H32.48V57.8h5.77v-3h-5.77V49h5.77v-3h-5.77v-6h4.3v-3h-4.3v-5.77h5.77v-3h-5.77v-6h5.77v-3h-5.77v-5.74h5.77v-3h-5.77V3.18H47z"/></svg>