<svg xmlns="http://www.w3.org/2000/svg" viewBox="0 0 62.01 62.01"><path d="M31.31 17.56v30.45l1.47 1.47 1.48-1.47V17.56l-1.48-1.47-1.47 1.47zm11.91 8.96L37 32.79 43.22 39l6.26-6.26zm-2.09 6.26l2.09-2.09 2.09 2.09-2.09 2.09zm-25.04.01L22.35 39l6.26-6.26-6.26-6.26zm6.26 2.09l-2.09-2.09 2.09-2.09 2.09 2.09z"/><path d="M29.22 0H0v29.22L32.78 62 62 32.79zM3 28V3h25l29.83 29.79-25 25z"/><path d="M11.77 7.42a4.35 4.35 0 1 0 4.35 4.35 4.36 4.36 0 0 0-4.35-4.35zm0 5.76a1.4 1.4 0 1 1 1.4-1.4 1.4 1.4 0 0 1-1.4 1.39z"/></svg>