<svg xmlns="http://www.w3.org/2000/svg" viewBox="0 0 18 3"><path d="M.45.45A1.44 1.44 0 0 1 1.5 0a1.44 1.44 0 0 1 1.05.45A1.44 1.44 0 0 1 3 1.5a1.44 1.44 0 0 1-.45 1.05A1.44 1.44 0 0 1 1.5 3a1.44 1.44 0 0 1-1.05-.45A1.44 1.44 0 0 1 0 1.5 1.44 1.44 0 0 1 .45.45zm7.5 0a1.47 1.47 0 0 1 2.11 0 1.44 1.44 0 0 1 .44 1.05 1.44 1.44 0 0 1-.45 1.05 1.47 1.47 0 0 1-2.11 0A1.44 1.44 0 0 1 7.5 1.5 1.44 1.44 0 0 1 7.95.45zm7.5 0a1.47 1.47 0 0 1 2.11 0A1.44 1.44 0 0 1 18 1.5a1.44 1.44 0 0 1-.45 1.05 1.47 1.47 0 0 1-2.11 0A1.44 1.44 0 0 1 15 1.5a1.44 1.44 0 0 1 .45-1.05z"/></svg>