<svg xmlns="http://www.w3.org/2000/svg" viewBox="0 0 23.06 20.63"><path d="M4.5 6.47l1.92 1.92a5.21 5.21 0 0 0-.14 1.17 5 5 0 0 0 1.34 3.49A5.18 5.18 0 0 0 11 14.77h1.09l.61-.09 1.3 1.26a7.68 7.68 0 0 1-1.78.33H10.9a10.68 10.68 0 0 1-3.07-.7A17.7 17.7 0 0 1 5 14.27a22.28 22.28 0 0 1-2.27-1.55q-1.12-.87-1.55-1.24l-.7-.61-.48-.51.47-.52A17 17 0 0 1 4.5 6.47zM2.34 0l5.07 5.06a12.28 12.28 0 0 1 4.13-.75 11.78 11.78 0 0 1 3.56.56 14.29 14.29 0 0 1 3 1.29 19.82 19.82 0 0 1 2.34 1.64A18 18 0 0 1 22 9.14q.4.42.63.7l.47.52-.47.52a22.14 22.14 0 0 1-5.53 3.89l4.78 4.73-1.12 1.13-5.11-5.16-1.36-1.41-2.34-2.3-2.62-2.57L7 6.84 5.91 5.72 1.22 1.13zM5 8a16.5 16.5 0 0 0-2.91 2.3 22.58 22.58 0 0 0 3.61 2.63 6.56 6.56 0 0 1-.89-3.33A7.36 7.36 0 0 1 5 8zm6.56-2.16a10.2 10.2 0 0 0-3 .47l1.55 1.55a2.23 2.23 0 0 1 1.41-.52 2.24 2.24 0 0 1 2.25 2.25 2.23 2.23 0 0 1-.5 1.41l2.11 2.16a5.14 5.14 0 0 0 1.41-3.56A5 5 0 0 0 16 6.84a10.63 10.63 0 0 0-4.47-1.03zm0 3a.75.75 0 0 0-.33.09l1 1a.75.75 0 0 0 .09-.33.72.72 0 0 0-.75-.75zM18.09 8a7.39 7.39 0 0 1 .19 1.59 6.56 6.56 0 0 1-.89 3.33A22.53 22.53 0 0 0 21 10.31 15.21 15.21 0 0 0 18.09 8z"/></svg>