<svg xmlns="http://www.w3.org/2000/svg" viewBox="0 0 23.06 12"><path d="M8 .59A11.42 11.42 0 0 1 11.53 0 11.63 11.63 0 0 1 15 .56a13.5 13.5 0 0 1 3.09 1.38q1.31.82 2.34 1.62a17.33 17.33 0 0 1 1.59 1.36l.52.61.47.47-.47.47a7.07 7.07 0 0 1-.52.56q-.33.33-1.41 1.22a20.68 20.68 0 0 1-2.2 1.59 16.11 16.11 0 0 1-2.79 1.34 12.21 12.21 0 0 1-3.3.77 7.62 7.62 0 0 1-1.69 0 12.45 12.45 0 0 1-3.28-.75 14.49 14.49 0 0 1-2.78-1.38Q3.38 9 2.41 8.3A16.49 16.49 0 0 1 .94 7l-.47-.53L0 6l.47-.47A7.85 7.85 0 0 1 1 4.92q.38-.37 1.52-1.34A17.55 17.55 0 0 1 4.95 1.9 15.63 15.63 0 0 1 8 .59zM5 3.7A18.39 18.39 0 0 0 2.16 6a17.31 17.31 0 0 0 3.65 2.81 6.42 6.42 0 0 1-1-3.56A6.75 6.75 0 0 1 5 3.7zm6.56-2.2A10.85 10.85 0 0 0 7 2.58a5 5 0 0 0-.75 2.67 5.12 5.12 0 0 0 1.37 3.52A5.13 5.13 0 0 0 11 10.5h1.13a5.14 5.14 0 0 0 3.35-1.73 5.12 5.12 0 0 0 1.34-3.52A5.25 5.25 0 0 0 16 2.53a11 11 0 0 0-4.47-1.03zM9.94 3.66a2.26 2.26 0 0 1 3.19 0 2.17 2.17 0 0 1 .66 1.59 2.24 2.24 0 0 1-2.26 2.25 2.24 2.24 0 0 1-2.25-2.25 2.17 2.17 0 0 1 .66-1.59zm8.16 0a6.78 6.78 0 0 1 .19 1.55 6.42 6.42 0 0 1-1 3.56A17.31 17.31 0 0 0 20.91 6a18.39 18.39 0 0 0-2.82-2.3z"/></svg>