<svg xmlns="http://www.w3.org/2000/svg" viewBox="0 0 18 18"><defs><style>.a{fill:#333740;}</style></defs><title>MOS icons NEW</title><path class="a" d="M6.24,4.77A9,9,0,0,1,9,4.32a8.81,8.81,0,0,1,2.74.44,10.21,10.21,0,0,1,2.42,1.08A20.71,20.71,0,0,1,16,7.1a13.52,13.52,0,0,1,1.24,1.06l.4.47L18,9l-.37.37a4.63,4.63,0,0,1-.4.43c-.17.18-.53.49-1.1,1A16.57,16.57,0,0,1,14.41,12a12.25,12.25,0,0,1-2.17,1,9.86,9.86,0,0,1-2.58.61q-.3,0-.66,0t-.66,0a9.88,9.88,0,0,1-2.56-.59A11.67,11.67,0,0,1,3.57,12c-.62-.4-1.19-.8-1.69-1.19a12.79,12.79,0,0,1-1.15-1L.37,9.37,0,9l.37-.37A5,5,0,0,1,.8,8.16c.2-.2.6-.54,1.19-1A13.79,13.79,0,0,1,3.86,5.8,12.47,12.47,0,0,1,6.24,4.77ZM3.88,7.21A13.75,13.75,0,0,0,1.68,9a13.56,13.56,0,0,0,2.86,2.2,5.11,5.11,0,0,1-.66-4ZM9,5.49a8.47,8.47,0,0,0-3.55.84h0A3.9,3.9,0,0,0,4.9,8.41a4,4,0,0,0,1,2.75,4,4,0,0,0,2.61,1.35h.88a4,4,0,0,0,2.61-1.35,4,4,0,0,0,1-2.75,4.11,4.11,0,0,0-.59-2.12A8.59,8.59,0,0,0,9,5.49ZM7.76,7.17a1.76,1.76,0,0,1,2.48,0,1.75,1.75,0,0,1,0,2.49,1.76,1.76,0,0,1-2.48,0,1.75,1.75,0,0,1,0-2.49Zm6.36,0a5.11,5.11,0,0,1-.66,4A13.56,13.56,0,0,0,16.32,9,13.75,13.75,0,0,0,14.12,7.21Z"/></svg>