<svg xmlns="http://www.w3.org/2000/svg" viewBox="0 0 19.78 19.78"><path d="M16.55 0a3.09 3.09 0 0 1 2.3 1 3.17 3.17 0 0 1 .94 2.3 3.1 3.1 0 0 1-.94 2.27l-2.16 2.07.75.75-1 1.08-.75-.75-7.16 7.12a10.16 10.16 0 0 1-1.87 1.5 4.08 4.08 0 0 1-1.31.47 1.93 1.93 0 0 0-.75.23 6.32 6.32 0 0 0-1.5 1.27l-.56.47-.54-.47-1.5-1.5-.5-.56.47-.56a7.82 7.82 0 0 0 1.31-1.5 2.66 2.66 0 0 0 .28-.84 3.49 3.49 0 0 1 .38-1.22 8.47 8.47 0 0 1 1.5-1.87l7.13-7.12-.75-.75 1.08-1 .75.75 2.1-2.2a3.12 3.12 0 0 1 2.3-.94zm-4.41 5.16L5 12.28a10.29 10.29 0 0 0-1.27 1.55 4.07 4.07 0 0 0-.23.8 4.3 4.3 0 0 1-.42 1.27 8.78 8.78 0 0 1-1 1.27l.56.56a13 13 0 0 1 1.22-1 5.56 5.56 0 0 1 1.27-.37 2.65 2.65 0 0 0 .8-.28 8.25 8.25 0 0 0 1.57-1.31l7.13-7.12zM16.5 1.5a1.6 1.6 0 0 0-1.22.56l-2.06 2.07 2.44 2.44 2.06-2.07a1.6 1.6 0 0 0 .56-1.22A1.74 1.74 0 0 0 17.77 2a1.68 1.68 0 0 0-1.27-.5z"/></svg>