<svg xmlns="http://www.w3.org/2000/svg" viewBox="0 0 18 18"><defs><style>.a{fill:#333740;}</style></defs><title>MOS icons NEW</title><path class="a" d="M2.08,0H15.92V4.85H14.54V1.38H3.46V4.85H2.08V0Zm0,13.15H3.46v3.47H14.54V13.15h1.38V18H2.08V13.15ZM3.46,6.23H4.85l.69,1.39.69-1.39H7.62L6.23,9l1.39,2.77H6.23l-.69-1.39-.69,1.39H3.46L4.85,9Zm4.85,0H9.69v4.15h1.39v1.39H8.31V6.23Zm5.19,0a1.76,1.76,0,0,1,1.3.52,1.6,1.6,0,0,1,.43,1.12H13.85a.26.26,0,0,0-.09-.17c0-.06-.12-.08-.26-.08a.33.33,0,0,0-.24.1.35.35,0,0,0-.11.24.38.38,0,0,0,.35.35,1.64,1.64,0,0,1,1.23.5,1.67,1.67,0,0,1,.5,1.23,1.71,1.71,0,0,1-.5,1.21,1.62,1.62,0,0,1-1.23.52,1.67,1.67,0,0,1-1.3-.52,1.51,1.51,0,0,1-.43-1.13h1.38a.26.26,0,0,0,0,.18c0,.06.13.08.3.08a.31.31,0,0,0,.35-.34.38.38,0,0,0-.35-.35,1.64,1.64,0,0,1-1.23-.5,1.76,1.76,0,0,1,0-2.46A1.67,1.67,0,0,1,13.5,6.23Z"/></svg>