<svg xmlns="http://www.w3.org/2000/svg" viewBox="0 0 15 19.5"><path d="M0 0h15v19.5H0V0zm1.5 1.5V18h12V1.5zM7 5.53a1.19 1.19 0 0 1 .7.23 1.68 1.68 0 0 1 .38.61 3.67 3.67 0 0 1 .22 1.41 3.35 3.35 0 0 1-.16.84 4.37 4.37 0 0 0-.14.66l.14.45a3.29 3.29 0 0 0 .19.49 15.44 15.44 0 0 0 1 1.31h1.17a2.1 2.1 0 0 1 1.13.47 1 1 0 0 1 .28.66 1.31 1.31 0 0 1-.19.66 1.2 1.2 0 0 1-1.17.7 2.36 2.36 0 0 1-1.22-.56 2.27 2.27 0 0 1-.33-.41.91.91 0 0 0-.26-.3h-.49a1.66 1.66 0 0 0-.61.09 3.49 3.49 0 0 0-.59.19l-.49.19a5.57 5.57 0 0 1-.28.66q-.28.61-.42.84a2 2 0 0 1-1.08.84.91.91 0 0 1-.7 0 1.34 1.34 0 0 1-.56-.47 1.13 1.13 0 0 1-.09-1.31 2.21 2.21 0 0 1 1-.94 3 3 0 0 1 .75-.33 3.92 3.92 0 0 1 .66-.19 4.55 4.55 0 0 1 .26-.54 3.83 3.83 0 0 0 .3-.73 4.79 4.79 0 0 0 .26-.94 7.12 7.12 0 0 0 .12-.7 16.2 16.2 0 0 1-.66-1.83A2.71 2.71 0 0 1 6 6.28a1.28 1.28 0 0 1 .33-.56.82.82 0 0 1 .67-.19zm-2 8.25a1.85 1.85 0 0 0-.56.52v.14A2.06 2.06 0 0 0 5 14a.82.82 0 0 1 .09-.23zm2.58-2.72a1.44 1.44 0 0 1 0 .19.36.36 0 0 1-.07.19.31.31 0 0 1-.07.19.28.28 0 0 0-.07.14.65.65 0 0 1 .28 0H8a2.12 2.12 0 0 0-.19-.28zm2.77 1.5h-.19a.9.9 0 0 0 .38.23q.09 0 .19-.14z"/></svg>