<svg xmlns="http://www.w3.org/2000/svg" viewBox="0 0 15 19.5"><path d="M0 0h15v5.25h-1.5V1.5h-12v3.75H0V0zm0 14.25h1.5V18h12v-3.75H15v5.25H0v-5.25zm1.5-7.5H3l.75 1.5.75-1.5H6l-1.5 3 1.5 3H4.5l-.75-1.5-.75 1.5H1.5l1.5-3zm5.25 0h1.5v4.5h1.5v1.5h-3v-6zm5.63 0a1.91 1.91 0 0 1 1.41.56 1.75 1.75 0 0 1 .47 1.22h-1.5a.27.27 0 0 0-.09-.19q0-.09-.28-.09a.38.38 0 0 0 0 .75 1.84 1.84 0 0 1 1.88 1.88 1.84 1.84 0 0 1-.54 1.31 1.78 1.78 0 0 1-1.34.56 1.81 1.81 0 0 1-1.39-.56 1.65 1.65 0 0 1-.5-1.19H12a.27.27 0 0 0 0 .19c0 .06.14.09.33.09a.33.33 0 0 0 .38-.37.4.4 0 0 0-.37-.37 1.84 1.84 0 0 1-1.84-1.91 1.84 1.84 0 0 1 1.88-1.87z"/></svg>