<svg xmlns="http://www.w3.org/2000/svg" viewBox="0 0 18 18"><defs><style>.a{fill:#333740;}</style></defs><title>MOS icons NEW</title><path class="a" d="M2.65,2.65A8.63,8.63,0,0,1,9,0a8.63,8.63,0,0,1,6.35,2.65A8.63,8.63,0,0,1,18,9a8.63,8.63,0,0,1-2.65,6.35A8.63,8.63,0,0,1,9,18a8.63,8.63,0,0,1-6.35-2.65A8.63,8.63,0,0,1,0,9,8.63,8.63,0,0,1,2.65,2.65ZM14.3,3.7A7.23,7.23,0,0,0,9,1.5,7.23,7.23,0,0,0,3.7,3.7,7.23,7.23,0,0,0,1.5,9a7.23,7.23,0,0,0,2.2,5.3A7.23,7.23,0,0,0,9,16.5a7.23,7.23,0,0,0,5.3-2.2A7.23,7.23,0,0,0,16.5,9,7.23,7.23,0,0,0,14.3,3.7ZM9,10.5A5.73,5.73,0,0,1,13.88,13l-1.22.85A4.28,4.28,0,0,0,9,12a4.28,4.28,0,0,0-3.66,1.88L4.12,13A5.73,5.73,0,0,1,9,10.5ZM4.83,6.33a1.12,1.12,0,0,1,1.59,0,1.13,1.13,0,0,1-.8,1.92A1.13,1.13,0,0,1,4.5,7.12,1.07,1.07,0,0,1,4.83,6.33Zm6.75,0a1.12,1.12,0,1,1,1.59,1.59,1.13,1.13,0,0,1-1.92-.8A1.07,1.07,0,0,1,11.58,6.33Z"/></svg>