<svg xmlns="http://www.w3.org/2000/svg" viewBox="0 0 18.94 19.5"><path d="M7.36 0h4.22l.14.61.42 2.2A7.23 7.23 0 0 1 14.06 4l2.2-.75.62-.25.28.52 1.5 2.63.28.52-.42.42-1.69 1.49A8.48 8.48 0 0 1 17 9.75a8.47 8.47 0 0 1-.14 1.17l1.69 1.45.42.42-.28.52-1.5 2.63-.28.52-.61-.19-2.2-.75a7.22 7.22 0 0 1-1.92 1.17l-.42 2.2-.14.61H7.36l-.14-.61-.42-2.2a7.21 7.21 0 0 1-1.92-1.17l-2.2.75-.61.19-.28-.52-1.51-2.63L0 12.8l.42-.42 1.69-1.45A8.47 8.47 0 0 1 2 9.75a8.48 8.48 0 0 1 .14-1.17L.42 7.13 0 6.7l.28-.52 1.5-2.62.28-.56.61.19L4.88 4A7.22 7.22 0 0 1 6.8 2.81l.42-2.2zm1.22 1.5l-.37 2-.09.42-.43.08a6.28 6.28 0 0 0-2.25 1.34l-.37.28-.37-.09-1.93-.65-.89 1.5 1.5 1.31.37.31-.14.47a6.2 6.2 0 0 0 0 2.63l.14.47-.37.28-1.5 1.31.89 1.5L4.69 14l.38-.09.38.28A6.27 6.27 0 0 0 7.7 15.5l.42.14.08.36.38 2h1.78l.38-2 .09-.42.42-.14a6.27 6.27 0 0 0 2.25-1.31l.38-.28.38.09 1.92.66.89-1.5-1.5-1.31-.33-.28.09-.47a6.2 6.2 0 0 0 0-2.62L15.19 8l.38-.28 1.5-1.31-.89-1.5-1.92.66-.37.09-.37-.28A6.28 6.28 0 0 0 11.25 4l-.42-.14-.09-.42-.37-2zM6.82 7.1A3.61 3.61 0 0 1 9.47 6a3.76 3.76 0 0 1 3.75 3.75 3.76 3.76 0 0 1-3.75 3.75 3.76 3.76 0 0 1-3.75-3.75 3.61 3.61 0 0 1 1.1-2.65zm4.24 1.05a2.26 2.26 0 0 0-3.19 0 2.26 2.26 0 0 0 0 3.19 2.26 2.26 0 0 0 3.19 0 2.26 2.26 0 0 0 0-3.19z"/></svg>