<svg xmlns="http://www.w3.org/2000/svg" viewBox="0 0 18 18"><defs><style>.a{fill:#333740;}</style></defs><title>MOS icons NEW</title><path class="a" d="M6,.38A3.57,3.57,0,0,1,8.81,2.2,1.7,1.7,0,0,0,9,2.53a1.7,1.7,0,0,0,.19-.33A3.57,3.57,0,0,1,12,.38,2.14,2.14,0,0,1,13.59,1a2.17,2.17,0,0,1,.66,1.59,2.27,2.27,0,0,1-.14.76H18v4.5h-.75v9.74H.75V7.88H0V3.38H3.89a2.27,2.27,0,0,1-.14-.76A2.17,2.17,0,0,1,4.41,1,2.13,2.13,0,0,1,6,.38ZM1.5,4.88v1.5H8.25V5.62h1.5v.76H16.5V4.88H1.5Zm.75,3v8.24h6V8.62h1.5v7.5h6V7.88ZM6,1.88a.66.66,0,0,0-.75.74A.67.67,0,0,0,6,3.38H7.73a.66.66,0,0,1-.09-.15l-.09-.18C7,2.27,6.47,1.88,6,1.88Zm6,0c-.47,0-1,.39-1.55,1.17,0,.06,0,.1-.07.11a.34.34,0,0,0,0,.1.75.75,0,0,1-.07.12H12a.67.67,0,0,0,.75-.76A.66.66,0,0,0,12,1.88Z"/></svg>