<svg xmlns="http://www.w3.org/2000/svg" viewBox="0 0 18 17.25"><path d="M6 0a3.6 3.6 0 0 1 2.81 1.83 1.31 1.31 0 0 0 .19.33 1.33 1.33 0 0 0 .19-.33A3.6 3.6 0 0 1 12 0a2.17 2.17 0 0 1 1.59.66 2.17 2.17 0 0 1 .66 1.59 2.12 2.12 0 0 1-.14.75H18v4.5h-.75v9.75H.75V7.5H0V3h3.89a2.12 2.12 0 0 1-.14-.75A2.17 2.17 0 0 1 4.41.66 2.17 2.17 0 0 1 6 0zM1.5 4.5V6h6.75v-.75h1.5V6h6.75V4.5h-15zm.75 3v8.25h6v-7.5h1.5v7.5h6V7.5zM6 1.5a.66.66 0 0 0-.75.75A.66.66 0 0 0 6 3h1.73a.53.53 0 0 1-.09-.14l-.09-.19Q6.7 1.5 6 1.5zm6 0q-.7 0-1.55 1.17a.54.54 0 0 1-.07.12.25.25 0 0 0 0 .09.31.31 0 0 1-.07.12H12a.66.66 0 0 0 .75-.75.66.66 0 0 0-.75-.75z"/></svg>