<svg xmlns="http://www.w3.org/2000/svg" viewBox="0 0 18 18"><path d="M2.65 2.65A8.66 8.66 0 0 1 9 0a8.66 8.66 0 0 1 6.35 2.65A8.67 8.67 0 0 1 18 9a8.67 8.67 0 0 1-2.65 6.35A8.66 8.66 0 0 1 9 18a8.66 8.66 0 0 1-6.35-2.65A8.66 8.66 0 0 1 0 9a8.66 8.66 0 0 1 2.65-6.35zm-1.1 6.91a7.53 7.53 0 0 0 1.59 4.1 7 7 0 0 0 3.52 2.46L4.55 13.5h-.89L2.25 12v-1.59zM9 1.5h-.61l1.61.19.42 1.69-2.22.46L7.59 3l-1.31.28.47 2-3 1.41-2 1.59.7 1.5h2.8l3 2.25L7.5 15l.8 1.45H9a7.32 7.32 0 0 0 3.23-.75l1.18-3.7a4.83 4.83 0 0 0-.61-1.31l-1.55.23-1.5-1.17.75-2.25 1.31-1 1.31-.19 1.22.75.47-.94-2-.66L11.2 6l-.14-1.55.66-.56.84.33-.19-1.5h.66A7.47 7.47 0 0 0 9 1.5zm-.84 0a6.13 6.13 0 0 0-1.74.5l.58.06z"/></svg>