<svg xmlns="http://www.w3.org/2000/svg" viewBox="0 0 60 60"><defs><style>.a{fill:#333740;}</style></defs><title>MOS icons NEW</title><path class="a" d="M15.08,7.56V21H7.63v9.63l9.89,10-7.45,7.49a27.06,27.06,0,0,1,5-40.51M33,3.17V22.51h6V27H28.51V40.36L39,50.87l4.36-4.38h7.92a26.69,26.69,0,0,1-39,3.68l9.55-9.6L10.61,29.39V24h7.46V5.82A26.56,26.56,0,0,1,33,3.17M56.85,30a26.91,26.91,0,0,1-3.62,13.51l-11.16,0L39,46.63l-7.46-7.51V30H41.93V19.51H36V3.68A27,27,0,0,1,56.85,30M30,60A30,30,0,1,0,.17,30,29.95,29.95,0,0,0,30,60"/></svg>