<svg xmlns="http://www.w3.org/2000/svg" viewBox="0 0 18 18"><defs><style>.a{fill:#333740;}</style></defs><title>MOS icons NEW</title><path class="a" d="M2.65,2.65A8.63,8.63,0,0,1,9,0a8.63,8.63,0,0,1,6.35,2.65A8.63,8.63,0,0,1,18,9a8.63,8.63,0,0,1-2.65,6.35A8.63,8.63,0,0,1,9,18a8.63,8.63,0,0,1-6.35-2.65A8.63,8.63,0,0,1,0,9,8.63,8.63,0,0,1,2.65,2.65ZM1.55,9.56a7.46,7.46,0,0,0,1.59,4.1,6.94,6.94,0,0,0,3.52,2.46L4.55,13.5H3.66L2.25,12V10.41ZM9,1.5l-.61.05L10,1.69l.42,1.69L8.2,3.84,7.59,3l-1.31.28.47,2-3,1.41-2,1.59.71,1.5H5.25l3,2.25L7.5,15l.8,1.45.7.05a7.32,7.32,0,0,0,3.23-.75L13.41,12a5,5,0,0,0-.61-1.31l-1.55.23L9.75,9.75,10.5,7.5l1.31-1,1.31-.19,1.22.75.47-.94-2-.66L11.2,6l-.14-1.55.66-.56.84.33-.18-1.5L13,2.67A7.47,7.47,0,0,0,9,1.5Zm-.84.05A6,6,0,0,0,6.42,2L7,2.06Z"/></svg>