<svg xmlns="http://www.w3.org/2000/svg" viewBox="0 0 58.84 59.17"><path d="M14.71 7.46v13.25H7.36v9.5L17.11 40l-7.34 7.4a26.68 26.68 0 0 1 4.94-39.94m17.65-4.33V22.2h5.88v4.44H27.95V39.8l10.3 10.36 4.29-4.32h7.81a26.32 26.32 0 0 1-38.49 3.63L21.27 40l-11-11v-5.33h7.36V5.74A26.18 26.18 0 0 1 29.42 3a26.52 26.52 0 0 1 2.94.17M55.9 29.58a26.56 26.56 0 0 1-3.57 13.32h-11L38.25 46l-7.36-7.4v-9h10.3V19.24H35.3V3.63a26.63 26.63 0 0 1 20.59 26M29.42 59.17A29.58 29.58 0 1 0 0 29.58a29.54 29.54 0 0 0 29.42 29.59"/></svg>