<svg xmlns="http://www.w3.org/2000/svg" viewBox="0 0 18.05 21"><path d="M5.11.66A2.17 2.17 0 0 1 6.7 0a2.17 2.17 0 0 1 1.6.66A2.17 2.17 0 0 1 9 2.25v3.14a2.12 2.12 0 0 1 .75-.14 2.24 2.24 0 0 1 1.5.56 2.24 2.24 0 0 1 1.5-.56 2.17 2.17 0 0 1 1.41.49 2 2 0 0 1 .75 1.2 2.77 2.77 0 0 1 .94-.19 2.19 2.19 0 0 1 1.57.66A2.13 2.13 0 0 1 18 9v5.86a5.91 5.91 0 0 1-1.8 4.34 6 6 0 0 1-4.34 1.8h-1.27a6.1 6.1 0 0 1-3.75-1.27L.61 13.59A2.26 2.26 0 0 1 0 12a2.16 2.16 0 0 1 2.2-2.2 2.26 2.26 0 0 1 1.59.61l.19.19.47.52V2.25A2.17 2.17 0 0 1 5.11.66zm2.13 1.05A.75.75 0 0 0 6 2.25v12.47l-1.36-1.31-1.92-1.93a.64.64 0 0 0-1 0 .64.64 0 0 0 0 1l6 6a4.66 4.66 0 0 0 2.86 1h1.27a4.57 4.57 0 0 0 3.33-1.34 4.45 4.45 0 0 0 1.36-3.3V9a.69.69 0 0 0-.23-.54.78.78 0 0 0-.54-.21.7.7 0 0 0-.52.21A.73.73 0 0 0 15 9v1.5h-1.55v-3a.75.75 0 1 0-1.5 0v3h-1.5v-3A.75.75 0 1 0 9 7.5v3H7.45V2.25a.73.73 0 0 0-.21-.54z"/></svg>