<svg xmlns="http://www.w3.org/2000/svg" viewBox="0 0 64.27 62.23"><path d="M57 30l-2.09-2.1-16.7-16.82-9.41 9.46a7.53 7.53 0 0 1-9.3.95L33 7.94a16.21 16.21 0 0 1 23 0c6.66 6.7 7.1 16 1.05 22.06m0 8.41a3 3 0 0 1-4.18 0l-4.18-4.2-8.3-8.35L38.27 28l12.48 12.51a3 3 0 0 1-4.18 4.2l-4.18-4.2L34 32l-2.09 2.1 12.6 12.67a3 3 0 0 1-3.55 4.67 5.87 5.87 0 0 0-5.85-5.36h-.4c-.13 0 0-.26 0-.4A5.92 5.92 0 0 0 33 41.56a5.86 5.86 0 0 0-4.18-1.74h-.4c-.14 0 0-.26 0-.4a5.81 5.81 0 0 0-6.32-5.85v-.46A5.92 5.92 0 0 0 20.44 29a6 6 0 0 0-8.36 0l-3.14 3.11-1.23-1.24a16.44 16.44 0 0 1 0-23.12 16.2 16.2 0 0 1 22.09-.83L15.21 21.59l1 1.05a10.31 10.31 0 0 0 14.63 0l7.32-7.36 16 16.08L57 34.21a3 3 0 0 1 0 4.2M37.16 54.18L33 58.38a3 3 0 0 1-4.18 0 3 3 0 0 1 0-4.2L33 50a2.95 2.95 0 0 1 4.18 0 3 3 0 0 1 0 4.2m-14.64-2.1a3 3 0 0 1 0-4.2l4.18-4.2a2.95 2.95 0 0 1 4.18 0 3 3 0 0 1 0 4.2l-4.18 4.2a3 3 0 0 1-4.18 0m-6.27-6.31a3 3 0 0 1 0-4.2l4.18-4.2a3 3 0 0 1 5 2.1 3 3 0 0 1-.86 2.1l-4.18 4.21a3 3 0 0 1-4.18 0M10 39.46a3 3 0 0 1 0-4.2l4.18-4.2a3 3 0 0 1 4.18 4.2l-4.18 4.2a3 3 0 0 1-4.18 0M58.06 5.84a19.15 19.15 0 0 0-26.11-1 19.15 19.15 0 0 0-26.33.77 19.42 19.42 0 0 0 0 27.39L7 34.36a5.91 5.91 0 0 0 .9 7.21 5.86 5.86 0 0 0 4.18 1.74h.4a5.93 5.93 0 0 0 1.69 4.6 5.86 5.86 0 0 0 4.18 1.74h.4c.14 0 0 .26 0 .4a5.92 5.92 0 0 0 1.73 4.2 5.86 5.86 0 0 0 4.18 1.74h.4c.14 0 0 .26 0 .4a5.92 5.92 0 0 0 1.73 4.2 5.89 5.89 0 0 0 8.36 0l4.18-4.2a5.88 5.88 0 0 0 1.19-1.77 5.9 5.9 0 0 0 7.85-5.59v-.4c0-.13.27 0 .4 0a5.93 5.93 0 0 0 5.91-5.94v-.4c0-.13.27 0 .4 0a5.95 5.95 0 0 0 4.18-10.15c7.26-7.31 6.82-18.35-1.05-26.27"/></svg>