<svg xmlns="http://www.w3.org/2000/svg" viewBox="0 0 18 18"><defs><style>.a{fill:#333740;}</style></defs><title>MOS icons NEW</title><path class="a" d="M8.63,2.25a2.07,2.07,0,0,1,1.85,1A2.39,2.39,0,0,1,11.58,3a2.08,2.08,0,0,1,1.85,1,2.52,2.52,0,0,1,1.11-.27,2.12,2.12,0,0,1,1.56.64,2.15,2.15,0,0,1,.65,1.57v6.64a5.19,5.19,0,0,1-5.17,5.17H7.71A4.91,4.91,0,0,1,3.84,16L2.08,14a3.18,3.18,0,0,1-.83-2A3,3,0,0,1,1.9,9.91l1.57-2V5.2a2.12,2.12,0,0,1,.64-1.56A2.11,2.11,0,0,1,5.68,3a2.4,2.4,0,0,1,1.11.28A2.05,2.05,0,0,1,8.63,2.25Zm0,1.48a.65.65,0,0,0-.74.74V6.68H6.42V5.2a.65.65,0,0,0-.74-.73.65.65,0,0,0-.74.73v5.91H3.47v-.79l-.37.51a1.67,1.67,0,0,0-.37,1.08A1.61,1.61,0,0,0,3.19,13l1.75,2a3.46,3.46,0,0,0,2.77,1.24h3.87a3.69,3.69,0,0,0,3.69-3.69V5.94a.65.65,0,0,0-.73-.74.65.65,0,0,0-.74.74v.74H12.32V5.2a.65.65,0,0,0-.74-.73.64.64,0,0,0-.73.73V6.68H9.37V4.47A.65.65,0,0,0,8.63,3.73Z"/></svg>