<svg xmlns="http://www.w3.org/2000/svg" viewBox="0 0 18 21"><path d="M8.39.47a2.22 2.22 0 0 1 3.52 1.22 2.3 2.3 0 0 1 .84-.19 2.17 2.17 0 0 1 1.59.66A2.17 2.17 0 0 1 15 3.75v.89a2.12 2.12 0 0 1 .75-.14A2.24 2.24 0 0 1 18 6.75v9a5.05 5.05 0 0 1-1.55 3.7 5.05 5.05 0 0 1-3.7 1.55H9.28a4.93 4.93 0 0 1-3.56-1.59L.66 14.34a2.26 2.26 0 0 1 0-3.19 2.17 2.17 0 0 1 1.59-.66 2.17 2.17 0 0 1 1.59.66l.66.66V3.75a2.17 2.17 0 0 1 .66-1.59 2.17 2.17 0 0 1 1.59-.66 2.3 2.3 0 0 1 .84.19 2.15 2.15 0 0 1 .8-1.22zm1.36 1a.66.66 0 0 0-.75.78v7.5H7.5v-6A.66.66 0 0 0 6.75 3a.66.66 0 0 0-.75.75v11.72l-1.31-1.31-1.87-2a.71.71 0 0 0-1.1 0 .71.71 0 0 0 0 1.1l5.16 5.06a3.4 3.4 0 0 0 2.4 1.18h3.47a3.76 3.76 0 0 0 3.75-3.75v-9a.66.66 0 0 0-.75-.75.66.66 0 0 0-.75.75v3h-1.5v-6a.66.66 0 0 0-.75-.75.66.66 0 0 0-.75.75v6h-1.5v-7.5a.66.66 0 0 0-.75-.75z"/></svg>