<svg xmlns="http://www.w3.org/2000/svg" viewBox="0 0 18 18"><defs><style>.a{fill:#333740;}</style></defs><title>MOS icons NEW</title><path class="a" d="M8.48.4A1.84,1.84,0,0,1,9.64,0a1.9,1.9,0,0,1,1.85,1.45,1.93,1.93,0,0,1,.72-.16,1.85,1.85,0,0,1,1.37.56,1.83,1.83,0,0,1,.56,1.36V4a1.87,1.87,0,0,1,.65-.12,1.91,1.91,0,0,1,1.92,1.93V13.5a4.52,4.52,0,0,1-4.5,4.5h-3a4.23,4.23,0,0,1-3-1.37L1.85,12.29a1.83,1.83,0,0,1-.56-1.36,1.85,1.85,0,0,1,.56-1.37A1.86,1.86,0,0,1,3.21,9a1.89,1.89,0,0,1,1.37.56l.56.56V3.21a1.84,1.84,0,0,1,.57-1.36,1.83,1.83,0,0,1,1.36-.56,1.85,1.85,0,0,1,.72.16A1.88,1.88,0,0,1,8.48.4Zm1.16.89A.56.56,0,0,0,9,1.93V8.36H7.71V3.21a.57.57,0,0,0-.64-.64.57.57,0,0,0-.64.64V13.26L5.3,12.13,3.7,10.45a.61.61,0,0,0-1,0,.6.6,0,0,0,0,.94l4.42,4.34a2.92,2.92,0,0,0,2.09,1h3a3.23,3.23,0,0,0,3.22-3.21V5.79a.57.57,0,0,0-.64-.65.58.58,0,0,0-.65.65V8.36H12.86V3.21a.57.57,0,0,0-.65-.64.57.57,0,0,0-.64.64V8.36H10.29V1.93A.57.57,0,0,0,9.64,1.29Z"/></svg>