<svg xmlns="http://www.w3.org/2000/svg" viewBox="0 0 15.75 15.75"><path d="M7.5 0a2.1 2.1 0 0 1 1.88 1A2.5 2.5 0 0 1 10.5.75a2.1 2.1 0 0 1 1.88 1 2.5 2.5 0 0 1 1.12-.25 2.17 2.17 0 0 1 1.59.66 2.17 2.17 0 0 1 .66 1.59v6.75a5.05 5.05 0 0 1-1.55 3.7 5.05 5.05 0 0 1-3.7 1.55H6.57A5 5 0 0 1 2.63 14L.85 12A3.22 3.22 0 0 1 0 9.87a3.06 3.06 0 0 1 .66-2.09l1.59-2.06V3a2.17 2.17 0 0 1 .66-1.59A2.17 2.17 0 0 1 4.5.75 2.5 2.5 0 0 1 5.63 1 2.1 2.1 0 0 1 7.5 0zm0 1.5a.66.66 0 0 0-.75.75V4.5h-1.5V3a.66.66 0 0 0-.75-.75.66.66 0 0 0-.75.75v6h-1.5v-.8l-.37.52a1.71 1.71 0 0 0-.37 1.1A1.67 1.67 0 0 0 2 11l1.78 2a3.52 3.52 0 0 0 2.81 1.27h3.91a3.76 3.76 0 0 0 3.75-3.75V3.75A.66.66 0 0 0 13.5 3a.66.66 0 0 0-.75.75v.75h-1.5V3a.66.66 0 0 0-.75-.75.66.66 0 0 0-.75.75v1.5h-1.5V2.25a.66.66 0 0 0-.75-.75z"/></svg>