<svg xmlns="http://www.w3.org/2000/svg" viewBox="0 0 56.08 66.89"><path d="M53.13 36.43v11.29a2.46 2.46 0 0 1-2.46 2.46h-1a2.46 2.46 0 0 1-2.46-2.46V34.93a2.46 2.46 0 0 1 2.46-2.46h1a2.46 2.46 0 0 1 2.46 2.46v1.5zM29.18 63.94a1.5 1.5 0 1 1 1.5-1.5 1.5 1.5 0 0 1-1.5 1.5M43 11a22.46 22.46 0 0 0-29.7-.22L12 8.76a25 25 0 0 1 32.7.54zM5.41 32.47h1a2.46 2.46 0 0 1 2.46 2.46v12.79a2.46 2.46 0 0 1-2.47 2.46h-1A2.46 2.46 0 0 1 3 47.72V34.93a2.46 2.46 0 0 1 2.46-2.46M28 0A28.07 28.07 0 0 0 0 28v19.72a5.42 5.42 0 0 0 5.41 5.41h1a5.42 5.42 0 0 0 5.41-5.41V34.93a5.42 5.42 0 0 0-5.42-5.41h-1a5.37 5.37 0 0 0-2.46.6V28a25 25 0 0 1 6.89-17.18l3 4.57 1.28-1.31a19.5 19.5 0 0 1 27.88 0l1 1.07 3.76-3.75A25 25 0 0 1 53.13 28v2.07a5.37 5.37 0 0 0-2.46-.6h-1a5.42 5.42 0 0 0-5.41 5.41v12.84a5.42 5.42 0 0 0 5.41 5.41h1a5.37 5.37 0 0 0 2.44-.59 8.37 8.37 0 0 1-8.34 8H33.19a4.44 4.44 0 1 0 .31 3h11.27a11.33 11.33 0 0 0 11.31-11.37V28A28.07 28.07 0 0 0 28 0"/></svg>