<svg xmlns="http://www.w3.org/2000/svg" viewBox="0 0 21 18.09"><path d="M5.63 0a6.66 6.66 0 0 1 4.87 2.2A6.66 6.66 0 0 1 15.38 0a5.39 5.39 0 0 1 4 1.66 5.45 5.45 0 0 1 1.64 4 4.31 4.31 0 0 1-.47 1.9A5.38 5.38 0 0 1 19.59 9l-.47.42-8.06 8.16-.56.56-.56-.56-8.06-8.2A6.61 6.61 0 0 1 .94 8.3 4.86 4.86 0 0 1 0 5.63a5.45 5.45 0 0 1 1.64-4A5.39 5.39 0 0 1 5.63 0zm0 1.5a4 4 0 0 0-2.91 1.22A4 4 0 0 0 1.5 5.63a3.52 3.52 0 0 0 .66 1.83l.75.89 7.59 7.59 7.59-7.59a4.38 4.38 0 0 0 1.41-2.72 4 4 0 0 0-1.22-2.91 4 4 0 0 0-2.9-1.22 4.61 4.61 0 0 0-2.07.5 7.31 7.31 0 0 0-1.69 1.1l-.56.52-.56.66-.56-.66q-.24-.23-.63-.59a9 9 0 0 0-1.55-1 4.59 4.59 0 0 0-2.13-.53z"/></svg>