<svg xmlns="http://www.w3.org/2000/svg" viewBox="0 0 18 18"><defs><style>.a{fill:#333740;}</style></defs><title>MOS icons NEW</title><path class="a" d="M0,1.93H18V16.07H0V1.93ZM1.24,3.21v8.28l4-4L5.74,7l.49.48,3.69,3.7,2.41-2.41.49-.48.48.48,3.37,3.37V3.21Zm4.5,5.63-4.5,4.5v1.45H11.65Zm7.08,1.28-2,2,2.65,2.7h3.21V14Zm.38-5.24a1.23,1.23,0,0,1,.9-.38,1.3,1.3,0,0,1,1.29,1.29,1.25,1.25,0,0,1-.38.9,1.27,1.27,0,0,1-.91.38,1.23,1.23,0,0,1-.9-.38,1.21,1.21,0,0,1-.38-.9A1.23,1.23,0,0,1,13.2,4.88Z"/></svg>