<svg xmlns="http://www.w3.org/2000/svg" viewBox="0 0 18 18"><defs><style>.a{fill:#333740;}</style></defs><title>MOS icons NEW</title><path class="a" d="M17.94,12.71a5.38,5.38,0,0,1-1.45,3.78,5.38,5.38,0,0,1-3.78,1.45C11.47,18,10.24,18,9,18s-2.47,0-3.71-.06a5.38,5.38,0,0,1-3.78-1.45A5.38,5.38,0,0,1,.06,12.71C0,11.47,0,10.24,0,9S0,6.53.06,5.29A5.38,5.38,0,0,1,1.51,1.51,5.38,5.38,0,0,1,5.29.06C6.53,0,7.76,0,9,0s2.47,0,3.71.06a5.38,5.38,0,0,1,3.78,1.45,5.38,5.38,0,0,1,1.45,3.78C18,6.53,18,7.76,18,9S18,11.47,17.94,12.71ZM3.69,2a2.81,2.81,0,0,0-1,.68,2.81,2.81,0,0,0-.68,1c-.47,1.19-.36,4-.36,5.31s-.11,4.12.36,5.31a2.81,2.81,0,0,0,.68,1,2.81,2.81,0,0,0,1,.68c1.19.47,4,.36,5.31.36s4.12.11,5.31-.36A3.08,3.08,0,0,0,16,14.31c.47-1.19.36-4,.36-5.31s.11-4.12-.36-5.31a2.81,2.81,0,0,0-.68-1,2.81,2.81,0,0,0-1-.68c-1.19-.47-4-.36-5.31-.36S4.88,1.51,3.69,2ZM9,13.62A4.62,4.62,0,1,1,13.62,9,4.62,4.62,0,0,1,9,13.62ZM9,6a3,3,0,1,0,3,3A3,3,0,0,0,9,6Zm4.8-.73A1.08,1.08,0,1,1,14.88,4.2,1.07,1.07,0,0,1,13.8,5.27Z"/></svg>