<svg xmlns="http://www.w3.org/2000/svg" viewBox="0 0 19.5 19.5"><path d="M8 2a6.49 6.49 0 0 1 4.76-2 6.49 6.49 0 0 1 4.76 2 6.49 6.49 0 0 1 2 4.76 6.49 6.49 0 0 1-2 4.76 6.49 6.49 0 0 1-4.76 2 6.66 6.66 0 0 1-3-.75V15H7.5v2.25H5.25v2.25H0V14l.19-.28 5.9-5.89A9.9 9.9 0 0 1 6 6.75 6.49 6.49 0 0 1 8 2zm8.45 1a5.05 5.05 0 0 0-3.7-1.55A5.05 5.05 0 0 0 9 3a5.05 5.05 0 0 0-1.5 3.75A8.43 8.43 0 0 0 7.64 8v.38l-.28.28-5.91 6V18h2.3v-2.25H6V13.5h2.25v-2.25H10l.19.09a5.21 5.21 0 0 0 6.23-.89A5.05 5.05 0 0 0 18 6.75 5.05 5.05 0 0 0 16.45 3zM13.2 4.2a1.5 1.5 0 0 1 2.55 1.05A1.5 1.5 0 1 1 13.2 4.2z"/></svg>