<svg xmlns="http://www.w3.org/2000/svg" viewBox="0 0 18 18"><defs><style>.a{fill:#333740;}</style></defs><title>MOS icons NEW</title><path class="a" d="M7.38,1.84A6,6,0,0,1,11.77,0a6,6,0,0,1,4.39,1.84A6,6,0,0,1,18,6.23a6,6,0,0,1-1.84,4.39,6,6,0,0,1-4.39,1.84A6.16,6.16,0,0,1,9,11.77v2.08H6.92v2.07H4.85V18H0V12.89l.17-.26,5.45-5.4c0-.47-.08-.8-.08-1A6,6,0,0,1,7.38,1.84Zm7.81,1a4.8,4.8,0,0,0-6.84,0A4.67,4.67,0,0,0,6.92,6.23a9,9,0,0,0,.13,1.13l0,.34L6.84,8l-5.46,5.5v3.16H3.46V14.54H5.54V12.46H7.62V10.38H9.26l.17.09a4.8,4.8,0,0,0,5.76-.82,4.67,4.67,0,0,0,1.43-3.42A4.67,4.67,0,0,0,15.19,2.81Zm-3,1.06a1.34,1.34,0,0,1,1-.41,1.4,1.4,0,0,1,1.39,1.39,1.34,1.34,0,0,1-.41,1,1.36,1.36,0,0,1-1,.41,1.4,1.4,0,0,1-1.38-1.38A1.36,1.36,0,0,1,12.18,3.87Z"/></svg>