<svg xmlns="http://www.w3.org/2000/svg" viewBox="0 0 22.5 13.5"><path d="M1.5 0H21a1.44 1.44 0 0 1 1.05.45 1.44 1.44 0 0 1 .45 1.05V12a1.52 1.52 0 0 1-1.5 1.5H1.5a1.44 1.44 0 0 1-1.05-.45A1.44 1.44 0 0 1 0 12V1.5A1.44 1.44 0 0 1 .45.45 1.44 1.44 0 0 1 1.5 0zm0 1.5V12H21V1.5zM3 3h1.5v1.5H3zm0 3h3v1.5H3zm0 3h3v1.5H3zm3-6h1.5v1.5H6zm1.5 3H9v1.5H7.5zm0 3H15v1.5H7.5zM9 3h1.5v1.5H9zm1.5 3H12v1.5h-1.5zM12 3h1.5v1.5H12zm1.5 3H15v1.5h-1.5zM15 3h1.5v1.5H15zm1.5 3h3v1.5h-3zm0 3h3v1.5h-3zM18 3h1.5v1.5H18z"/></svg>