<svg xmlns="http://www.w3.org/2000/svg" viewBox="0 0 64.94 50.18">
    <path class="cls-1" d="M62,45.46c0,1-1.13,1.77-2.46,1.77H5.41C4.08,47.23,3,46.42,3,45.45s0-2.67,0-4.13H25v3H39.89v-3H62ZM5.36,33.95H59.58l2.09,4.43H3.26ZM5.9,5.41A2.46,2.46,0,0,1,8.36,3H56.58A2.46,2.46,0,0,1,59,5.41V31H5.9ZM62,5.41A5.42,5.42,0,0,0,56.58,0H8.36A5.42,5.42,0,0,0,2.95,5.41V32.14L0,38.37v.33s0,4.85,0,6.76c0,2.6,2.43,4.72,5.41,4.72H59.52c3,0,5.41-2.12,5.41-4.73V38.37L62,32.14Z"/>
    <path class="cls-1" d="M33.53,28.61a10.73,10.73,0,0,1-7.83-3.26,10.73,10.73,0,0,1-3.26-7.83,10.73,10.73,0,0,1,3.26-7.83,11,11,0,0,1,15.67,0,10.73,10.73,0,0,1,3.26,7.83,10.73,10.73,0,0,1-3.26,7.83A10.73,10.73,0,0,1,33.53,28.61Zm0-19.06a7.6,7.6,0,0,0-5.62,2.34,7.6,7.6,0,0,0-2.34,5.62,7.6,7.6,0,0,0,2.34,5.62,7.93,7.93,0,0,0,11.25,0,7.61,7.61,0,0,0,2.34-5.62,7.6,7.6,0,0,0-2.34-5.62A7.6,7.6,0,0,0,33.53,9.54ZM32.08,19V10.81H35v5.25h3.75V19Z"/>
</svg>
