<svg xmlns="http://www.w3.org/2000/svg" viewBox="0 0 64.45 64.81"><path d="M60.27 60.61a4.25 4.25 0 0 1-3 1.25 4.15 4.15 0 0 1-3-1.36l-16-17.42 4.64-4.67 17.24 16.13a4.2 4.2 0 0 1 .12 6.07M37.4 33.35l3.27 3-4.48 4.5-3-3.29zm-26.12-3.13l18.77-18.88 12.7 12.77L24 43zm9.41 19.93L4 33.41l3.18-3.19L23.86 47zM33.23 4.07L49.87 20.8 46.69 24 30.05 7.26zm6.25 27.18L44.67 26l2 2 7.22-7.27L33.23 0 26 7.26l2.13 2.15L9.36 28.29l-2.14-2.14L0 33.41l20.69 20.81L27.91 47l-2-2 5.19-5.22 21 22.8a7.06 7.06 0 0 0 5.1 2.31h.14a7.06 7.06 0 0 0 5-2.11 7.17 7.17 0 0 0-.2-10.33z"/></svg>