<svg xmlns="http://www.w3.org/2000/svg" viewBox="0 0 18 18"><path d="M2.65 2.65A8.66 8.66 0 0 1 9 0a8.66 8.66 0 0 1 6.35 2.65A8.67 8.67 0 0 1 18 9a8.67 8.67 0 0 1-2.65 6.35A8.66 8.66 0 0 1 9 18a8.66 8.66 0 0 1-6.35-2.65A8.66 8.66 0 0 1 0 9a8.66 8.66 0 0 1 2.65-6.35zm-1.1 5.6v1.5h2.3a4 4 0 0 1-.1-.75 5.35 5.35 0 0 1 0-.75zm.28 3a7.72 7.72 0 0 0 4.92 4.92v-2.44a5.06 5.06 0 0 1-2.48-2.48zm4.92-9.42a7.67 7.67 0 0 0-3 1.85 6.93 6.93 0 0 0-1.87 3.07h2.39a5.06 5.06 0 0 1 2.48-2.48zm4.9 4.52A3.61 3.61 0 0 0 9 5.25 3.76 3.76 0 0 0 5.25 9 3.76 3.76 0 0 0 9 12.75 3.76 3.76 0 0 0 12.75 9a3.61 3.61 0 0 0-1.1-2.65zM9 1.5h-.75v2.3A4 4 0 0 1 9 3.75a4 4 0 0 1 .75.09V1.55Q9.28 1.5 9 1.5zm-.75 12.66v2.3h1.5v-2.3a4 4 0 0 1-.75.09 4 4 0 0 1-.75-.09zm3-12.33v2.44a5.06 5.06 0 0 1 2.48 2.48h2.44a7.72 7.72 0 0 0-4.92-4.92zm2.48 9.42a5.06 5.06 0 0 1-2.48 2.48v2.44a7.72 7.72 0 0 0 4.92-4.92zm.42-3a4 4 0 0 1 .09.75 4 4 0 0 1-.09.75h2.3v-1.5z"/></svg>