<svg xmlns="http://www.w3.org/2000/svg" viewBox="0 0 21 19.97"><path d="M0 7.22h2.25v1.5H0zM3.61 0l1.55 1.59-1 1-1.63-1.51zm.52 13.31l1 1-1.52 1.63-1.08-1.08zM10.5.47a6.49 6.49 0 0 1 4.76 2 6.49 6.49 0 0 1 2 4.76 7 7 0 0 1-2.16 5.06 4 4 0 0 0-1.5 3v.89h-.1v3h-1.69a1.52 1.52 0 0 1-2.62 0H7.5v-4.5a3.64 3.64 0 0 0-1.31-2.25 6.87 6.87 0 0 1-1.95-2.68 6.64 6.64 0 0 1-.4-3.37 6.78 6.78 0 0 1 2-3.94A6.32 6.32 0 0 1 9.75.56zm0 1.5l-.56.09a5 5 0 0 0-3.07 1.46 5.09 5.09 0 0 0-1.52 3 4.93 4.93 0 0 0 1.82 4.78 5 5 0 0 1 1.73 3.42h3.28a5.67 5.67 0 0 1 1.88-3.52 5.33 5.33 0 0 0 1.73-3.94 5.05 5.05 0 0 0-1.55-3.7A5.05 5.05 0 0 0 10.5 2zM9 16.22v1.5h3v-1.5zM17.39 0l1.08 1.08-1.59 1.55-1-1zm-.52 13.31l1.59 1.55-1.08 1.08-1.55-1.59zm1.88-6.09H21v1.5h-2.25z"/></svg>