<svg xmlns="http://www.w3.org/2000/svg" viewBox="0 0 64.94 50.18"><path d="M62 45.46c0 1-1.13 1.77-2.46 1.77H5.41c-1.33 0-2.41-.81-2.41-1.78v-4.13h22v3h14.89v-3H62zM5.36 33.95h54.22l2.09 4.43H3.26zM5.9 5.41A2.46 2.46 0 0 1 8.36 3h48.22A2.46 2.46 0 0 1 59 5.41V31H5.9zm56.1 0A5.42 5.42 0 0 0 56.58 0H8.36a5.42 5.42 0 0 0-5.41 5.41v26.73L0 38.37v7.09c0 2.6 2.43 4.72 5.41 4.72h54.11c3 0 5.41-2.12 5.41-4.73v-7.08L62 32.14z"/><path d="M50 6.27a4.39 4.39 0 0 0-4.38 4.38 4.33 4.33 0 0 0 .45 1.91l-5.82 5.91a4.32 4.32 0 0 0-4.3.32L30.79 15a4.33 4.33 0 0 0 .21-1.32 4.38 4.38 0 1 0-8.66.92l-4.67 2.88a4.34 4.34 0 0 0-2.73-1A4.4 4.4 0 1 0 19.22 20l4.67-2.88a4.32 4.32 0 0 0 5.18.23l5.16 3.83a4.31 4.31 0 0 0-.23 1.24 4.38 4.38 0 0 0 8.76 0 4.32 4.32 0 0 0-.45-1.9l5.82-5.91A4.33 4.33 0 0 0 50 15a4.38 4.38 0 0 0 0-8.76zM14.94 22.34a1.46 1.46 0 1 1 1.46-1.46 1.46 1.46 0 0 1-1.46 1.46zm11.68-7.2a1.46 1.46 0 1 1 1.46-1.46 1.46 1.46 0 0 1-1.46 1.46zm11.77 8.74a1.46 1.46 0 1 1 1.46-1.46 1.46 1.46 0 0 1-1.46 1.46zM50 12.11a1.46 1.46 0 1 1 1.46-1.46A1.46 1.46 0 0 1 50 12.11z"/></svg>