<svg xmlns="http://www.w3.org/2000/svg" viewBox="0 0 18 18"><path d="M5.81 7.5a4.39 4.39 0 0 1 1.69.33L6.28 9a2.39 2.39 0 0 0-.47 0 3.07 3.07 0 0 0-2.25.94l-1.12 1.12a2.94 2.94 0 0 0-.94 2.23 3.09 3.09 0 0 0 .94 2.27 3.07 3.07 0 0 0 2.25.94 3 3 0 0 0 2.25-.94l1.13-1.12A3 3 0 0 0 9 11.72l1.22-1.22a4.4 4.4 0 0 1 .33 1.69 4.45 4.45 0 0 1-1.41 3.33L8 16.59A4.45 4.45 0 0 1 4.69 18a4.51 4.51 0 0 1-3.3-1.38A4.51 4.51 0 0 1 0 13.31 4.45 4.45 0 0 1 1.41 10l1.07-1.09A4.45 4.45 0 0 1 5.81 7.5zm5.63-2.06l1.13 1.13-6 6-1.13-1.13zM13.31 0a4.51 4.51 0 0 1 3.3 1.38A4.51 4.51 0 0 1 18 4.69 4.45 4.45 0 0 1 16.59 8l-1.07 1.09a4.45 4.45 0 0 1-3.33 1.41 4.39 4.39 0 0 1-1.69-.33L11.72 9a2.38 2.38 0 0 0 .47 0 3.07 3.07 0 0 0 2.25-.94l1.13-1.12a2.94 2.94 0 0 0 .94-2.23 3.1 3.1 0 0 0-.94-2.27 3.07 3.07 0 0 0-2.25-.94 3 3 0 0 0-2.25.94L9.94 3.56A3 3 0 0 0 9 6.28L7.83 7.5a4.39 4.39 0 0 1-.33-1.69 4.45 4.45 0 0 1 1.41-3.33L10 1.41A4.45 4.45 0 0 1 13.31 0z"/></svg>