<svg xmlns="http://www.w3.org/2000/svg" viewBox="0 0 18 18.75"><path d="M.54 7.29a1.81 1.81 0 0 1 1.34-.54 1.84 1.84 0 0 1 1.87 1.88 1.42 1.42 0 0 1-.56 1.13l-.09.09-.66.66h1.31V12H0v-1.22l.23-.19 1.93-1.87.09-.09a.36.36 0 0 0-.12-.26.38.38 0 0 0-.63.26V9H0v-.37a1.81 1.81 0 0 1 .54-1.34zM0 13.5h3v1.13l-.09.19-.28.47a1.74 1.74 0 0 1 1.13 1.59 1.84 1.84 0 0 1-1.87 1.88H0v-1.5h1.88a.36.36 0 0 0 .26-.12.34.34 0 0 0 0-.52.36.36 0 0 0-.26-.12H.75v-1l.09-.19L1 15H0zM1.5 0H3v5.25H1.5V1.88a2.69 2.69 0 0 1-1.22.38V.75A1 1 0 0 0 .7.63a1.43 1.43 0 0 0 .38-.25l.14-.1zm3.75 2.25H18v1.5H5.25zm0 6.75H18v1.5H5.25zm0 6.75H18v1.5H5.25z"/></svg>