<svg xmlns="http://www.w3.org/2000/svg" viewBox="0 0 15 20.25"><path d="M3.8 1.55A5.05 5.05 0 0 1 7.5 0a5.05 5.05 0 0 1 3.7 1.55 5.05 5.05 0 0 1 1.55 3.7v2.16A7.2 7.2 0 0 1 15 12.75 7.22 7.22 0 0 1 12.8 18a7.22 7.22 0 0 1-5.3 2.2A7.22 7.22 0 0 1 2.2 18 7.22 7.22 0 0 1 0 12.75a7.2 7.2 0 0 1 2.25-5.34V5.25a5.05 5.05 0 0 1 1.55-3.7zm7.95 7a5.78 5.78 0 0 0-4.25-1.8 5.78 5.78 0 0 0-4.24 1.76 5.78 5.78 0 0 0-1.76 4.24A5.78 5.78 0 0 0 3.26 17a5.78 5.78 0 0 0 4.24 1.75A5.78 5.78 0 0 0 11.74 17a5.78 5.78 0 0 0 1.76-4.24 5.78 5.78 0 0 0-1.76-4.25zm-1.6-5.95A3.61 3.61 0 0 0 7.5 1.5a3.61 3.61 0 0 0-2.65 1.1 3.61 3.61 0 0 0-1.1 2.65v1a7.33 7.33 0 0 1 7.5 0v-1a3.61 3.61 0 0 0-1.1-2.65zm-3.7 9.1A1.5 1.5 0 0 1 9 12.75a1.47 1.47 0 0 1-.75 1.31v2.44h-1.5v-2.44A1.47 1.47 0 0 1 6 12.75a1.44 1.44 0 0 1 .45-1.05z"/></svg>