<svg xmlns="http://www.w3.org/2000/svg" viewBox="0 0 60 60"><defs><style>.a{fill:#333740;}</style></defs><title>MOS icons NEW</title><path class="a" d="M56.81,44.68H31.28V24.26A12.76,12.76,0,0,0,26.14,14h7.69V29.36h2.55V14H46.6A10.22,10.22,0,0,1,56.81,24.26ZM36.38,57.45h-5.1V47.23h5.1ZM8.3,24.26H28.72v3.3L18.51,37.77,5,24.26H8.3ZM28.72,37.88l-3.35-3.36,3.35-3.35ZM13.4,36.27l5.11,5.11,5-5.05,5.16,5.16v3.19H5Zm-1.8-1.8L3.19,42.88V26.06ZM18.51,14a10.22,10.22,0,0,1,9.88,7.66H8.63A10.22,10.22,0,0,1,18.51,14M36.38,2.55h3.83V5.11H36.38ZM46.6,11.49H36.38V7.66h6.39V0H33.83V11.49H18.51A12.79,12.79,0,0,0,6,21.7H.64V47.23H28.72v8.64l-2.55-5.11-3.34,6.69H21.06V60h3.35l1.76-3.53L27.93,60H46.6V57.45H38.94V47.23H59.36v-23A12.78,12.78,0,0,0,46.6,11.49"/></svg>