<svg xmlns="http://www.w3.org/2000/svg" viewBox="0 0 64.72 62.18"><path d="M58.84 19.83V9.41a4.17 4.17 0 0 0-4.15-4.17H40.4L34.81.82a4.09 4.09 0 0 0-4.9 0l-5.59 4.42H10a4.17 4.17 0 0 0-4.12 4.17v10.42L0 24.49v34.24a3.45 3.45 0 0 0 3.43 3.45h57.86a3.45 3.45 0 0 0 3.43-3.45V24.49zm0 3.76l2.63 2.08-2.63 1.72zM31.73 3.14a1.16 1.16 0 0 1 1.26 0l2.65 2.1h-6.56zM8.83 9.41A1.21 1.21 0 0 1 10 8.2h44.69a1.21 1.21 0 0 1 1.21 1.22v19.9l-21 13.75a5.3 5.3 0 0 1-5.2 0L8.83 29.34zM5.88 23.6v3.81l-2.62-1.73zM2.94 57.34V29L20 40.21zm2.29 1.89l17.26-17.37 5.6 3.68a8.2 8.2 0 0 0 8.42 0l5.81-3.81 17.38 17.5zm56.55-21.57v19.47l-16.94-17L61.78 29z"/><path d="M35.3 16.28V14.8H14.71v2.96H35.3v-1.48zm14.83 8.88v-1.48H14.71v2.96h35.42v-1.48z"/></svg>