<svg xmlns="http://www.w3.org/2000/svg" viewBox="0 0 60 60"><defs><style>.a{fill:#333740;}</style></defs><title>MOS icons NEW</title><path class="a" d="M54.55,19.56V9.9A3.87,3.87,0,0,0,50.7,6H37.45l-5.18-4.1a3.78,3.78,0,0,0-4.54,0L22.55,6H9.3A3.87,3.87,0,0,0,5.45,9.9v9.66L0,23.88V55.62a3.19,3.19,0,0,0,3.18,3.2H56.82A3.19,3.19,0,0,0,60,55.62V23.88Zm0,3.49L57,25l-2.43,1.59Zm-25.13-19a1.08,1.08,0,0,1,1.17,0L33,6H27ZM8.18,9.9A1.13,1.13,0,0,1,9.3,8.77H50.7A1.13,1.13,0,0,1,51.82,9.9V28.36L32.35,41.11a4.9,4.9,0,0,1-4.82,0L8.18,28.38ZM5.45,23.05v3.53L3,25ZM2.73,54.34V28.06L18.52,38.45Zm2.12,1.74L20.85,40,26,43.4a7.61,7.61,0,0,0,7.8,0l5.39-3.53,16.11,16.2Zm52.42-20V54.14L41.57,38.35l15.7-10.29Z"/><polygon class="a" points="32.73 16.27 32.73 14.9 13.64 14.9 13.64 16.27 13.64 17.64 32.73 17.64 32.73 16.27"/><polygon class="a" points="46.48 24.5 46.48 23.13 13.64 23.13 13.64 24.5 13.64 25.87 46.48 25.87 46.48 24.5"/></svg>