<svg xmlns="http://www.w3.org/2000/svg" viewBox="0 0 67.89 69.37"><path d="M64.94 51.66H35.42V28a14.73 14.73 0 0 0-5.94-11.81h8.89v17.76h3V16.24h11.76A11.82 11.82 0 0 1 64.94 28zM41.33 66.42h-5.9V54.61h5.9zM8.86 28h23.61v3.82L20.66 43.67 5 28h3.86zm23.61 15.8l-3.88-3.88L32.47 36zm-17.71-1.86l5.9 5.9L26.5 42l6 6v3.69H5zm-2.09-2.09L3 49.57V30.13zm8-23.61a11.82 11.82 0 0 1 11.42 8.85H9.24a11.82 11.82 0 0 1 11.42-8.85M41.33 3h4.43v3h-4.43zm11.8 10.28h-11.8V8.86h7.38V0H38.37v13.28H20.66A14.79 14.79 0 0 0 6.2 25.09H0v29.52h32.47v10l-3-5.9-3.86 7.73h-2v3h3.86l2-4.08 2 4.08h21.66v-3h-8.85V54.61h23.61V28a14.78 14.78 0 0 0-14.76-14.72"/></svg>