<svg xmlns="http://www.w3.org/2000/svg" viewBox="0 0 13.5 20.06"><path d="M2 2a6.51 6.51 0 0 1 4.75-2 6.51 6.51 0 0 1 4.78 2 6.51 6.51 0 0 1 2 4.78 9.29 9.29 0 0 1-1 3.56 31 31 0 0 1-2.06 4Q9.75 15.52 9 16.73t-1.2 1.83l-.42.61-.61.89-.61-.89q-1.55-2.2-3-4.83a30.92 30.92 0 0 1-2.06-4A9.28 9.28 0 0 1 0 6.75 6.51 6.51 0 0 1 2 2zm8.48 1a5.07 5.07 0 0 0-3.73-1.5A5.07 5.07 0 0 0 3 3a5.07 5.07 0 0 0-1.5 3.75 8.83 8.83 0 0 0 .84 3 41.92 41.92 0 0 0 2.06 3.84q1.17 2 2.34 3.75 1.17-1.73 2.34-3.75a42 42 0 0 0 2.06-3.84 8.83 8.83 0 0 0 .84-3A5.07 5.07 0 0 0 10.48 3zM5.7 5.7a1.47 1.47 0 0 1 2.11 0 1.47 1.47 0 0 1 0 2.11 1.47 1.47 0 0 1-2.11 0 1.47 1.47 0 0 1 0-2.11z"/></svg>