<svg xmlns="http://www.w3.org/2000/svg" viewBox="0 0 59.72 64.94"><path d="M35.76 26.57h17.61l6.35-8.85-6.35-8.87H35.76V0H24v8.85H.34v17.72H24v5.9H6.35L0 41.33l6.35 8.86H24v10l-3-5.9L17.14 62h-2v3H19l2-4.08L23 65h21.62v-3h-8.86V50.18h23.62V32.47H35.76zM26.91 3h5.9v5.9h-5.9zM3.29 23.61v-11.8h48.56l4.23 5.9-4.23 5.9zm29.52 3v5.9h-5.9v-5.9zm0 35.42h-5.9V50.18h5.9zm23.61-26.61v11.81H7.86l-4.23-5.9 4.23-5.9z"/><path d="M9.2 16.24h38.37v2.95H9.2zm1.47 23.61H21v2.95H10.67zm14.76 0h16.23v2.95H25.43z"/></svg>