<svg xmlns="http://www.w3.org/2000/svg" viewBox="0 0 70.6 61.54"><path d="M61.78 22.92h8.83v2.96h-8.83zm-10.35-5.14V0L21.74 11h-10C5.27 11 0 16.57 0 23.37v3.39A12.31 12.31 0 0 0 7.92 38.4l7.81 19A6.73 6.73 0 0 0 22 61.54a6.65 6.65 0 0 0 2.52-.54l1.21-.51a6.79 6.79 0 0 0 3.64-8.83L24.53 40l26.89 8.56V31A6.63 6.63 0 0 0 55 29.17a6.73 6.73 0 0 0-3.58-11.39zm-48.48 9v-3.41c0-5.17 3.95-9.37 8.8-9.37h8.8v22.12h-8.8c-4.86 0-8.81-4.2-8.81-9.36zm23.7 26.04a3.82 3.82 0 0 1-2 5l-1.21.5a3.78 3.78 0 0 1-4.94-2.06l-7.12-17.2H21zm21.84-8.34l-25-8v-23l25-9.3zm4.45-17.41a3.69 3.69 0 0 1-1.51.9v-7.15a3.7 3.7 0 0 1 1.53.92 3.78 3.78 0 0 1 0 5.32zM65.61 10.8l-2.08-2.09-6.24 6.27 2.08 2.09 6.24-6.27zm-8.32 23.01l6.24 6.27 2.08-2.09-6.24-6.27-2.08 2.09z"/></svg>