<svg xmlns="http://www.w3.org/2000/svg" viewBox="0 0 60 60"><defs><style>.a{fill:#333740;}</style></defs><title>MOS icons NEW</title><rect class="a" x="52.5" y="23.33" width="7.5" height="2.51"/><path class="a" d="M43.7,19V3.85L18.48,13.23H10A10.25,10.25,0,0,0,0,23.71v2.88a10.45,10.45,0,0,0,6.73,9.89L13.37,52.6a5.72,5.72,0,0,0,5.29,3.55,5.57,5.57,0,0,0,2.17-.44l1-.43A5.68,5.68,0,0,0,25,52.17a5.76,5.76,0,0,0,0-4.39l-4.11-10L43.7,45.08V30.21a5.62,5.62,0,0,0,3-1.57,5.72,5.72,0,0,0-3-9.68ZM2.5,26.59V23.71a7.74,7.74,0,0,1,7.48-8h7.47v18.8H10A7.74,7.74,0,0,1,2.5,26.59ZM22.65,48.74a3.25,3.25,0,0,1,0,2.47A3.19,3.19,0,0,1,20.91,53l-1,.43a3.21,3.21,0,0,1-4.2-1.75l-6-14.59h8.16ZM41.2,41.65,20,34.89V15.37L41.2,7.46ZM45,26.85a3,3,0,0,1-1.28.77V21.55a3,3,0,0,1,1.3.78,3.19,3.19,0,0,1,0,4.52Z"/><polygon class="a" points="55.76 13.03 53.99 11.25 48.69 16.58 50.45 18.36 55.76 13.03"/><polygon class="a" points="48.69 32.58 53.99 37.91 55.76 36.14 50.45 30.8 48.69 32.58"/></svg>