<svg xmlns="http://www.w3.org/2000/svg" viewBox="0 0 18 18"><path d="M2.65 2.65A8.66 8.66 0 0 1 9 0a8.66 8.66 0 0 1 6.35 2.65A8.66 8.66 0 0 1 18 9a8.66 8.66 0 0 1-2.65 6.35A8.66 8.66 0 0 1 9 18a8.66 8.66 0 0 1-6.35-2.65A8.66 8.66 0 0 1 0 9a8.66 8.66 0 0 1 2.65-6.35zM14.3 3.7A7.22 7.22 0 0 0 9 1.5a7.22 7.22 0 0 0-5.3 2.2A7.22 7.22 0 0 0 1.5 9a7.22 7.22 0 0 0 2.2 5.3A7.22 7.22 0 0 0 9 16.5a7.22 7.22 0 0 0 5.3-2.2A7.22 7.22 0 0 0 16.5 9a7.22 7.22 0 0 0-2.2-5.3zM4.83 6.33a1.13 1.13 0 0 1 1.59 0 1.13 1.13 0 0 1-.8 1.92 1.13 1.13 0 0 1-.8-1.92zM5.25 12h7.5v1.5h-7.5zm6.33-5.67a1.13 1.13 0 0 1 1.59 1.59 1.13 1.13 0 0 1-1.59-1.59z"/></svg>