<svg xmlns="http://www.w3.org/2000/svg" viewBox="0 0 60 60"><defs><style>.a{fill:#333740;}</style></defs><title>MOS icons NEW</title><polygon class="a" points="48.49 35.03 45.98 35.03 45.17 46.34 47.68 46.34 48.49 35.03"/><rect class="a" x="36.25" y="35.03" width="2.5" height="11.31"/><rect class="a" x="26.25" y="35.03" width="2.5" height="11.31"/><path class="a" d="M55,21.2V11.14a6.27,6.27,0,0,0-6.25-6.28H40V2.35H25V4.86H16.25A6.27,6.27,0,0,0,10,11.14v6.29H4.58A4.61,4.61,0,0,0,0,22v31a4.6,4.6,0,0,0,4.58,4.6H17.92a4.59,4.59,0,0,0,4.5-3.77H50a5,5,0,0,0,4.89-4.47L56.73,30H60V21.2ZM27.5,4.86h10V7.37h-10ZM20,53.05a2.09,2.09,0,0,1-2.08,2.09H4.58A2.09,2.09,0,0,1,2.5,53.05V50.11H8.75v2.53h5V50.11H20Zm0-6.71V47.6H2.5V27.49H20ZM20,25H2.5V22a2.09,2.09,0,0,1,2.08-2.1H17.92A2.1,2.1,0,0,1,20,22Zm-2.08-7.54H12.5V11.14a3.76,3.76,0,0,1,3.75-3.77H25V9.89H40V7.37h8.75a3.76,3.76,0,0,1,3.75,3.77V21.2H22.42A4.6,4.6,0,0,0,17.92,17.43ZM52.41,49.17A2.52,2.52,0,0,1,50,51.37H22.5V30H54.22ZM57.5,27.49h-35V23.71h35Z"/><path class="a" d="M7.92,42.57h6.66v-6h1.67v-4.1H12.92a1.67,1.67,0,1,1-3.34,0H6.25v4.1H7.92Z"/></svg>