<svg xmlns="http://www.w3.org/2000/svg" viewBox="0 0 70.95 65.41"><path d="M57.34 38.65h-2.97l-.95 13.38h2.96l.96-13.38zm-14.47 0h2.96v13.38h-2.96zm-11.83 0H34v13.38h-2.96z"/><path d="M65 22.3V10.41A7.42 7.42 0 0 0 57.65 3H47.3V0H29.56v3H19.22a7.42 7.42 0 0 0-7.39 7.43v7.43H5.42A5.44 5.44 0 0 0 0 23.29V60a5.44 5.44 0 0 0 5.42 5.45h15.77a5.43 5.43 0 0 0 5.32-4.46h32.62a6 6 0 0 0 5.79-5.29l2.17-23H71V22.3zM32.52 3h11.82v3H32.52zm-8.87 57a2.47 2.47 0 0 1-2.46 2.48H5.42A2.47 2.47 0 0 1 3 60v-3.51h7.39v3h5.91v-3h7.39zm0-7.93v1.49H3V29.73h20.65zm0-25.27H3v-3.51a2.47 2.47 0 0 1 2.46-2.48h15.73a2.47 2.47 0 0 1 2.46 2.48zm-2.46-8.92h-6.41v-7.47a4.45 4.45 0 0 1 4.43-4.46h10.35v3H47.3v-3h10.35a4.45 4.45 0 0 1 4.44 4.46V22.3H26.51a5.43 5.43 0 0 0-5.32-4.46zM62 55.37A3 3 0 0 1 59.13 58H26.61V32.7h37.51zm6-25.64H26.61v-4.46H68z"/><path d="M9.36 47.57h7.88v-7.05h2v-4.85h-3.97a2 2 0 1 1-3.94 0H7.39v4.84h2z"/></svg>