<svg xmlns="http://www.w3.org/2000/svg" viewBox="0 0 60 60.37"><path d="M38.89 30.56H20.74a.49.49 0 0 0-.56.56 9.65 9.65 0 0 0 9.63 8.7 9.52 9.52 0 0 0 9.63-8.7.59.59 0 0 0-.55-.56zM10.56 19.63h8.14a.49.49 0 0 0 .56-.56 11 11 0 0 1 3.33-6.85 10.38 10.38 0 0 1 7.22-2.78A10.71 10.71 0 0 1 37 12.22a10.1 10.1 0 0 1 3.33 6.85.59.59 0 0 0 .56.56h8.15a.49.49 0 0 0 .56-.56A19.81 19.81 0 0 0 29.81 0a20.08 20.08 0 0 0-20 18.89.8.8 0 0 0 .75.74z"/><path d="M60 31.3a.49.49 0 0 0-.56-.56H51.3a.49.49 0 0 0-.56.56 20.76 20.76 0 0 1-41.48 0 .59.59 0 0 0-.56-.56H.56a.49.49 0 0 0-.56.56 30.05 30.05 0 0 0 30 29.07 29.24 29.24 0 0 0 20.93-8.52A30.89 30.89 0 0 0 60 31.3z"/></svg>