<svg xmlns="http://www.w3.org/2000/svg" viewBox="0 0 79.98 77.03">
  <path d="M73.81,0,0,69.85l3.41,3.52L77.23,3.52ZM46.69,39.16,35.47,49.78a12.74,12.74,0,0,0,5.66,1.32A12.52,12.52,0,0,0,53.66,40s0,0,0-.05a.78.78,0,0,0-.78-.78ZM66,25.16a.78.78,0,0,0,.79-.78v0a25.08,25.08,0,0,0-.51-3.76l-4.83,4.57Zm-49.83,0H26.76a.78.78,0,0,0,.76-.7,13.38,13.38,0,0,1,4.36-8.71A13.76,13.76,0,0,1,50.2,15.6l8.75-8.28A25.85,25.85,0,0,0,41.13.26,25.58,25.58,0,0,0,15.42,24.35v0A.78.78,0,0,0,16.21,25.16Zm63,14H68.67a.79.79,0,0,0-.78.73A26.59,26.59,0,0,1,41.13,65.1,26.92,26.92,0,0,1,25,59.73L16.18,68a39.16,39.16,0,0,0,52-1.83A38,38,0,0,0,80,39.94.79.79,0,0,0,79.2,39.16ZM16,47.92a26.15,26.15,0,0,1-1.67-8,.79.79,0,0,0-.78-.74H3.06a.78.78,0,0,0-.78.78A37.77,37.77,0,0,0,6.82,56.65Z"/>
</svg>
