<svg xmlns="http://www.w3.org/2000/svg" viewBox="0 0 54.99 62.12"><path d="M52.78 2.22A7.52 7.52 0 0 0 47.42 0H7.57a7.57 7.57 0 0 0-5.35 12.93A7.52 7.52 0 0 0 6.1 15v47.12h41.32v-7.25H55V7.57a7.52 7.52 0 0 0-2.22-5.35zM4.49 10.65a4.36 4.36 0 0 1 3.08-7.44h33.67a7.54 7.54 0 0 0 0 8.72H7.57a4.33 4.33 0 0 1-3.08-1.28zm40 48.51H9V14.89h35.47zm7.31-7.51h-4.38V11.94a4.36 4.36 0 1 1 4.36-4.36z"/><path d="M23.38 21.84l-2.09-2.09-4.86 4.86-1.91-1.91-2.09 2.09 4 3.99 6.95-6.94zm3.38.43h11.81v2.95H26.76zm-3.38 11.38l-2.09-2.09-4.86 4.86-1.91-1.91-2.09 2.09 4 3.99 6.95-6.94zm3.38.43h11.81v2.95H26.76zm-3.38 11.37l-2.09-2.08-4.86 4.86-1.91-1.91-2.09 2.08 4 4 6.95-6.95zm3.38.44h11.81v2.95H26.76z"/></svg>