<svg xmlns="http://www.w3.org/2000/svg" viewBox="0 0 18 18"><defs><style>.a{fill:#333740;}</style></defs><title>MOS icons NEW</title><path class="a" d="M16.25.78A2.69,2.69,0,0,0,14.35,0H3.65a2.65,2.65,0,0,0-1.9.79,2.68,2.68,0,0,0,0,3.8,2.69,2.69,0,0,0,.84.58V18H14.73V16.05H17V2.66A2.62,2.62,0,0,0,16.25.78Zm-14,1.91a1.35,1.35,0,0,1,.4-1,1.39,1.39,0,0,1,1-.41H12a2.66,2.66,0,0,0-.37,1.35A2.63,2.63,0,0,0,12.05,4H3.34a1.39,1.39,0,0,1-.67-.37A1.35,1.35,0,0,1,2.27,2.69Zm1.64,14V5.34h9.51V16.69Zm11.82-2.21h-1V4h-.38a1.39,1.39,0,0,1-1-.39,1.34,1.34,0,0,1,0-1.91,1.42,1.42,0,0,1,1.95,0,1.35,1.35,0,0,1,.4,1Z"/><rect class="a" x="7.45" y="7.89" width="4.66" height="1.31"/><rect class="a" x="7.45" y="10.52" width="4.66" height="1.31"/><rect class="a" x="7.45" y="13.15" width="4.66" height="1.31"/><rect class="a" x="5.09" y="7.89" width="1.48" height="1.31"/><rect class="a" x="5.09" y="10.52" width="1.48" height="1.31"/><rect class="a" x="5.09" y="13.15" width="1.48" height="1.31"/></svg>