<svg xmlns="http://www.w3.org/2000/svg" viewBox="0 0 18.36 20.54"><defs/><g id="Layer_2"><g id="Layer_1-2"><path d="M17.45.89A3.06 3.06 0 0 0 15.29 0H3.07A3.07 3.07 0 0 0 .9 5.24a3.06 3.06 0 0 0 1 .66v14.64h13.82v-2.22h2.64V3a3 3 0 0 0-.91-2.11zM1.5 3.07A1.57 1.57 0 0 1 3.07 1.5h9.57a3 3 0 0 0 0 3.1H2.72A1.56 1.56 0 0 1 1.5 3.07zM3.37 19V6.1h10.85V19zm13.49-2.52h-1.14V4.58h-.43a1.57 1.57 0 0 1-1.11-.45 1.52 1.52 0 0 1 0-2.17A1.62 1.62 0 0 1 16.4 2a1.56 1.56 0 0 1 .46 1.11z"/><path d="M7.4 9h5.31v1.5H7.4zM7.4 12h5.31v1.5H7.4zM7.4 15h5.31v1.5H7.4zM4.72 9h1.69v1.5H4.72zM4.72 12h1.69v1.5H4.72zM4.72 15h1.69v1.5H4.72z"/></g></g></svg>