<svg  xmlns:i="http://ns.adobe.com/AdobeIllustrator/10.0/"  xmlns="http://www.w3.org/2000/svg"  version="1.1" x="0px" y="0px" viewBox="0 0 100 100" enable-background="new 0 0 100 100" xml:space="preserve">
    <switch>
        <g i:extraneous="self">
            <path d="M61.8,94.3c3.7-3.7,5.7-8.6,5.7-13.8V75V57.9c0-2.5-1-4.9-2.8-6.7c-4.5-4.5-6.9-10.8-6.5-17.2l1.3-13.8    c0.2-3.5-1.6-9.5-4.6-12.8C53,5.4,51.2,5,50,5s-3,0.4-4.9,2.4c-3,3.3-4.8,9.2-4.6,12.8L41.8,34c0.4,6.4-1.9,12.7-6.5,17.2    c-1.8,1.8-2.8,4.2-2.8,6.7V75v5.4c0,3.6-1.3,6.9-3.6,9.6H7.5C6.1,90,5,91.1,5,92.5S6.1,95,7.5,95H60C60.7,95,61.3,94.7,61.8,94.3z     M38.8,54.7c5.6-5.6,8.4-13.2,7.9-21.1l-1.2-13.7c-0.2-2.3,1.3-6.9,3.3-9c0.6-0.6,1-0.8,1.2-0.8s0.7,0.2,1.2,0.8    c1.9,2.1,3.4,6.7,3.3,9l-1.3,13.8c-0.5,7.8,2.4,15.5,7.9,21.1c0.8,0.8,1.2,1.7,1.3,2.8H37.5C37.6,56.4,38.1,55.5,38.8,54.7z     M37.5,62.5h25v10h-25V62.5z M40,80.4c0,3.6-1.3,6.9-3.6,9.6H35c1.6-2.9,2.5-6.2,2.5-9.6v-2.9H40V80.4z M47.5,80.4    c0,3.6-1.3,6.9-3.6,9.6h-1.4c1.6-2.9,2.5-6.2,2.5-9.6v-2.9h2.5V80.4z M55,80.4c0,3.6-1.3,6.9-3.6,9.6H50c1.6-2.9,2.5-6.2,2.5-9.6    v-2.9H55V80.4z M57.5,90c1.6-2.9,2.5-6.2,2.5-9.6v-2.9h2.5v2.9c0,3.6-1.3,6.9-3.6,9.6H57.5z" />
            <path d="M48.2,21.8c2.7,2,5.7-1,3.7-3.7C49.2,16.1,46.1,19.2,48.2,21.8z" />
        </g>
    </switch>
</svg>
