<svg xmlns="http://www.w3.org/2000/svg"  version="1.1" x="0px" y="0px" viewBox="0 0 100 100" style="enable-background:new 0 0 100 100;" xml:space="preserve">
    <g>
        <path d="M86.8,44c-0.5-3-1.4-6-2.6-8.8c-0.3-0.8-1.2-1.1-2-0.8c-0.8,0.3-1.1,1.2-0.8,2c1.1,2.6,1.9,5.3,2.4,8.1   c0.2,1-0.1,2-0.8,2.7c-0.7,0.8-1.7,1.2-2.7,1.2c-0.8,0-1.5,0.7-1.5,1.5s0.7,1.5,1.5,1.5c1.9,0,3.7-0.8,5-2.3   C86.5,47.8,87.1,45.9,86.8,44z" />
        <path d="M56.4,51.1c-4.8,3-7.7,8.3-7.7,13.9v15.1c0,1-0.5,2-1.2,2.7c-0.8,0.7-1.7,0.9-2.7,0.8c-17.5-2.8-29.7-18.3-28.5-36   C17.4,30.8,31,17.2,47.8,16c3.8-0.3,7.5,0.1,11.1,1c0.8,0.2,1.6-0.3,1.8-1.1c0.2-0.8-0.3-1.6-1.1-1.8c-3.9-1-8-1.4-12-1.1   c-18.3,1.3-33.1,16-34.3,34.3c-1.3,19.3,12,36.1,31,39.2c0.3,0.1,0.7,0.1,1,0.1c1.5,0,3-0.5,4.1-1.5c1.5-1.2,2.3-3.1,2.3-5V65   c0-4.7,2.3-8.9,6.3-11.4c0.7-0.4,0.9-1.4,0.5-2.1S57.1,50.6,56.4,51.1z" />
        <path d="M34.4,28.3c-3.4,0-6.1,2.7-6.1,6.1s2.7,6.1,6.1,6.1s6.1-2.7,6.1-6.1S37.8,28.3,34.4,28.3z M34.4,37.5   c-1.7,0-3.1-1.4-3.1-3.1s1.4-3.1,3.1-3.1s3.1,1.4,3.1,3.1S36.1,37.5,34.4,37.5z" />
        <path d="M33.2,50c0-3.4-2.7-6.1-6.1-6.1S21,46.6,21,50s2.7,6.1,6.1,6.1S33.2,53.4,33.2,50z M27.1,53.1c-1.7,0-3.1-1.4-3.1-3.1   s1.4-3.1,3.1-3.1s3.1,1.4,3.1,3.1S28.8,53.1,27.1,53.1z" />
        <path d="M43.9,26c0,3.4,2.7,6.1,6.1,6.1s6.1-2.7,6.1-6.1c0-3.4-2.7-6.1-6.1-6.1S43.9,22.6,43.9,26z M53.1,26c0,1.7-1.4,3.1-3.1,3.1   s-3.1-1.4-3.1-3.1s1.4-3.1,3.1-3.1S53.1,24.2,53.1,26z" />
        <path d="M34.1,72.1c3.4,0,6.1-2.7,6.1-6.1c0-3.4-2.7-6.1-6.1-6.1c-3.4,0-6.1,2.7-6.1,6.1C27.9,69.3,30.7,72.1,34.1,72.1z    M34.1,62.8c1.7,0,3.1,1.4,3.1,3.1s-1.4,3.1-3.1,3.1s-3.1-1.4-3.1-3.1S32.3,62.8,34.1,62.8z" />
        <path d="M79.2,26.7c-2.1-7.5-8-13.3-12.3-14c-0.9-0.2-1.9,0.3-2.3,1.1c-0.5,0.8-0.4,1.8,0.2,2.6c0.5,0.7,1,1.9,0.8,3.2   c-0.2,1.1-0.7,1.9-1.7,2.6l-0.1,0.1c-3.9,3-5.8,6.7-5.6,10.2c0.2,2.5,1.4,4.6,3.6,6.1c0,0.1,0,0.2,0,0.3v7.1c0,0.7,0.3,1.3,0.8,1.8   c-0.9,4.2-3.2,19.1,3.2,37.8c0.4,1.1,1.5,1.9,2.9,1.9c0,0,0,0,0.1,0c1.4,0,2.5-0.7,3-1.9c6.9-18.1,4.3-33.5,3.3-37.8   c0.5-0.5,0.8-1.1,0.8-1.8v-7.1c0-0.2,0-0.4-0.1-0.7C78.1,36.3,80.8,32.4,79.2,26.7z M72.7,39.3v6.1h-8v-6.1H72.7z M68.9,84.3   c-0.1,0-0.3,0-0.4,0c-6-17.6-3.9-32-3.1-35.9H72C72.9,52.4,75.4,67.3,68.9,84.3z M72.9,36.3h-8.7c-0.1,0-0.2,0-0.2,0   c-1.7-1-2.7-2.5-2.8-4.2c-0.2-2.5,1.4-5.3,4.4-7.6c1.7-1.1,2.7-2.7,3-4.6c0.2-1.2,0-2.5-0.4-3.6c2.9,1.6,6.6,5.8,8.1,11.1   C78,33.3,73.7,35.9,72.9,36.3z" />
        <path d="M70.2,22.8c-0.7,0.4-0.9,1.4-0.4,2.1c0.6,0.9,2.2,4,1.6,5.8c-0.1,0.3-0.3,0.8-1.2,1.2c-0.8,0.3-1.1,1.2-0.8,2   c0.2,0.6,0.8,0.9,1.4,0.9c0.2,0,0.4,0,0.6-0.1c1.5-0.6,2.5-1.7,2.9-3.1c1.1-3.4-1.7-7.8-2-8.3C71.8,22.6,70.8,22.4,70.2,22.8z" />
    </g>
</svg>
