<svg xmlns="http://www.w3.org/2000/svg" viewBox="0 0 18 18"><defs><style>.a{fill:#333740;}</style></defs><title>MOS icons NEW</title><path class="a" d="M12.75,0a3.9,3.9,0,0,1,2.88,1.2,3.9,3.9,0,0,1,1.2,2.88,3.9,3.9,0,0,1-1.17,2.86l-7,7a2.29,2.29,0,0,1-1.71.7A2.39,2.39,0,0,1,4.5,12.26a2.19,2.19,0,0,1,.7-1.67l6.42-6.47,1.08,1L6.28,11.63a.89.89,0,0,0,0,1.28.82.82,0,0,0,.63.26,1,1,0,0,0,.66-.23l7-7a2.62,2.62,0,0,0,.75-1.86,2.45,2.45,0,0,0-.75-1.8,2.55,2.55,0,0,0-3.61,0l-7,7a4,4,0,0,0-1.27,3,4.12,4.12,0,0,0,1.24,3,4.06,4.06,0,0,0,3,1.24,4.18,4.18,0,0,0,3-1.22l4.69-4.69,1.08,1L11,16.31A5.53,5.53,0,0,1,6.91,18a5.51,5.51,0,0,1-4.05-1.69,5.49,5.49,0,0,1-1.69-4,5.36,5.36,0,0,1,1.69-4l7-7A3.82,3.82,0,0,1,12.75,0Z"/></svg>