<svg xmlns="http://www.w3.org/2000/svg" viewBox="0 0 15.66 18"><path d="M11.58 0a3.93 3.93 0 0 1 2.88 1.2 3.93 3.93 0 0 1 1.2 2.88 3.89 3.89 0 0 1-1.17 2.86l-7 7a2.33 2.33 0 0 1-1.71.7 2.4 2.4 0 0 1-2.41-2.41A2.18 2.18 0 0 1 4 10.59l6.42-6.47 1.08 1-6.39 6.51a.9.9 0 0 0-.28.66.88.88 0 0 0 .89.89 1 1 0 0 0 .66-.23l7-7a2.62 2.62 0 0 0 .75-1.85 2.46 2.46 0 0 0-.75-1.8 2.55 2.55 0 0 0-3.61 0l-7 7a4 4 0 0 0-1.27 3 4.09 4.09 0 0 0 1.24 3 4.06 4.06 0 0 0 3 1.24 4.18 4.18 0 0 0 3-1.22l4.69-4.69 1.08 1-4.71 4.68A5.53 5.53 0 0 1 5.74 18a5.53 5.53 0 0 1-4.05-1.69A5.53 5.53 0 0 1 0 12.26a5.38 5.38 0 0 1 1.69-4l7-7A3.82 3.82 0 0 1 11.58 0z"/></svg>