<svg xmlns="http://www.w3.org/2000/svg" viewBox="0 0 64.72 48.31"><path d="M17.65 14.79a1.48 1.48 0 1 1 1.47-1.48 1.48 1.48 0 0 1-1.47 1.48m-5.88 0a1.48 1.48 0 1 1 1.47-1.48 1.48 1.48 0 0 1-1.47 1.48m5.88-5.92A4.37 4.37 0 0 0 14.71 10a4.36 4.36 0 0 0-2.94-1.15 4.44 4.44 0 0 0 0 8.87 4.37 4.37 0 0 0 2.94-1.15 4.37 4.37 0 0 0 2.94 1.15 4.44 4.44 0 0 0 0-8.87"/><path d="M50 26.86c-7.72 0-11.77-2.2-11.77-3s4-3 11.77-3 11.77 2.2 11.77 3-4 3-11.77 3m11.78 4.44c0 .76-4 3-11.77 3s-11.77-2.2-11.77-3v-3.67c2.87 1.48 7.42 2.18 11.77 2.18s8.9-.7 11.77-2.18zM55.9 42.39c0 .76-4 3-11.77 3s-11.77-2.2-11.77-3v-3.66c2.87 1.48 7.42 2.18 11.77 2.18s8.9-.7 11.77-2.18zM29.42 35v.51h-24A2.46 2.46 0 0 1 2.94 33v-3.42H35.3v.56c-3.42.95-5.88 2.54-5.88 4.85M50 37.21h1.33a31.58 31.58 0 0 1-7.22.76c-7.72 0-11.77-2.2-11.77-3 0-.41 1.2-1.24 3.51-1.92 1.87 2.83 8.19 4.14 14.14 4.14M2.94 5.42A2.46 2.46 0 0 1 5.39 3h48.05a2.46 2.46 0 0 1 2.46 2.42v13A38.32 38.32 0 0 0 50 18c-6.94 0-14.39 1.78-14.68 5.68H2.94zm55.9 13.63V5.42A5.41 5.41 0 0 0 53.44 0H5.39A5.41 5.41 0 0 0 0 5.42V33a5.41 5.41 0 0 0 5.39 5.42h24v3.93c0 4.07 7.62 5.92 14.71 5.92s14.71-1.85 14.71-5.92v-6.21c3.42-.95 5.88-2.54 5.88-4.85V23.9c0-2.31-2.46-3.9-5.88-4.85"/></svg>