<svg xmlns="http://www.w3.org/2000/svg" viewBox="0 0 18 18"><defs><style>.a{fill:#333740;}</style></defs><title>MOS icons NEW</title><path class="a" d="M15.58,0A2.37,2.37,0,0,1,17.3.74a2.3,2.3,0,0,1,.7,1.7,2.46,2.46,0,0,1-.7,1.74l-.09.09.46.42-.51.51L5.58,16.79l-.18.14L5.16,17l-4.09.83L0,18l.19-1.07L1,12.85l.05-.23.14-.19L12.84.88l.51-.51.46.47,0-.1A2.39,2.39,0,0,1,15.58,0ZM2.42,13.64l-.33,1.48.79.79,1.49-.32L4,14Zm8.84-9L3.44,12.34l1.4.28.46.09.1.47.27,1.39,7.77-7.8ZM13.4,2.46,12.28,3.53l2.23,2.22,1.07-1.11Zm2.18-1a1,1,0,0,0-.65.28l0,.1,1.31,1.29.09,0a.87.87,0,0,0,0-1.35A1.09,1.09,0,0,0,15.58,1.48Z"/></svg>