<svg xmlns="http://www.w3.org/2000/svg" viewBox="0 0 50.01 50"><path d="M45.71 4.29A13.47 13.47 0 0 0 37.24.06a10.61 10.61 0 0 0-8.82 3.35L15.88 15.94l1.06 8.29-4.77-4.77L5.65 26l1.94 14.3L0 47.89 2.12 50l7.41-7.41 14.3 1.94 22.76-22.76c4.94-4.94 4.41-12.18-.88-17.48zm.88 12.53l-9.88-1.41 7.94-7.94c2.12 2.65 3.35 6 1.94 9.36zm-9.7-13.94a10.74 10.74 0 0 1 5.65 2.47l-7.95 7.95-1.23-9.89a6 6 0 0 1 3.53-.53zm-6.36 2.47l1.59 10.59-11.65 11.65L19.06 17zM12.18 23.53l6 6-8.3 8.3-1.41-10.77zm10.76 17.83l-10.76-1.41 21.88-21.89 10.77 1.41-.18.18z"/></svg>