<svg xmlns="http://www.w3.org/2000/svg" viewBox="0 0 18.14 18.19"><path d="M15.7 0a2.38 2.38 0 0 1 1.73.75 2.33 2.33 0 0 1 .7 1.71 2.49 2.49 0 0 1-.7 1.76l-.09.09.47.42-.52.52L5.63 17l-.19.14h-.23L1.08 18 0 18.19l.19-1.08L1 13v-.23l.14-.19L12.94.89l.52-.52.47.47V.75A2.38 2.38 0 0 1 15.7 0zM2.44 13.78l-.33 1.5.8.8 1.5-.33L4 14.16zm8.91-9.14l-7.88 7.83 1.41.28.47.09.09.47.28 1.41 7.83-7.87zm2.15-2.16l-1.12 1.08 2.25 2.25 1.07-1.12zm2.2-1a1 1 0 0 0-.66.28v.09l1.31 1.31h.09a.87.87 0 0 0 0-1.36 1.06 1.06 0 0 0-.74-.3z"/></svg>