<svg xmlns="http://www.w3.org/2000/svg" viewBox="0 0 60 60"><defs><style>.a{fill:#333740;}</style></defs><title>MOS icons NEW</title><path class="a" d="M50.71,9.29a13.45,13.45,0,0,0-8.48-4.23,10.58,10.58,0,0,0-8.82,3.35L20.88,20.94l1.06,8.3-4.77-4.77L10.64,31l1.95,14.3L5,52.88,7.11,55l7.42-7.41,14.29,1.94L51.59,26.76C56.53,21.82,56,14.59,50.71,9.29Zm.88,12.53-9.88-1.41,7.94-7.94C51.76,15.12,53,18.47,51.59,21.82ZM41.88,7.88a10.81,10.81,0,0,1,5.65,2.47l-7.94,7.94L38.35,8.41A6,6,0,0,1,41.88,7.88Zm-6.35,2.47h0l1.59,10.59L25.47,32.59h0L24.06,22ZM17.17,28.53l6,6-8.29,8.29L13.47,32.06ZM27.94,46.35,17.17,44.94,39.06,23.06l10.76,1.41-.17.18Z"/></svg>