<svg xmlns="http://www.w3.org/2000/svg" viewBox="0 0 19.56 19.55"><path d="M4.31 0a1.84 1.84 0 0 1 1.1.38l3 3.09A1.36 1.36 0 0 1 9 4.76a1.56 1.56 0 0 1-.47 1.15L7 7.41a9.52 9.52 0 0 0 2.16 3.09 10.91 10.91 0 0 0 3 2.06l1.45-1.45a1.84 1.84 0 0 1 2.34 0v.09l3 3a1.7 1.7 0 0 1 0 2.34l-2.3 2.34a2.55 2.55 0 0 1-2.62.56A25.29 25.29 0 0 1 5.6 14 23.08 23.08 0 0 1 .16 5.44a2.17 2.17 0 0 1 .65-2.53L3.16.47A1.84 1.84 0 0 1 4.31 0zm0 1.5a.26.26 0 0 0-.16.09l-2.3 2.3a.84.84 0 0 0-.28 1 21.08 21.08 0 0 0 5.11 8A23 23 0 0 0 14.6 18a1.09 1.09 0 0 0 1.17-.23l2.3-2.25q.09-.14 0-.23l-3.09-3c-.06-.09-.12-.09-.19 0l-1.87 1.88-.37.33-.47-.23a12.68 12.68 0 0 1-3.8-2.44l-.14-.14a8.65 8.65 0 0 1-1.5-1.76 11.61 11.61 0 0 1-.94-1.66l-.28-.61-.14-.47.33-.33 1.86-1.98c.09-.06.12-.12.09-.19l-3-3a.26.26 0 0 0-.25-.19z"/></svg>