<svg xmlns="http://www.w3.org/2000/svg" viewBox="0 0 19.5 19.5"><path d="M2.86 2.86A9.39 9.39 0 0 1 9.75 0a9.39 9.39 0 0 1 6.89 2.86 9.39 9.39 0 0 1 2.86 6.89 9.39 9.39 0 0 1-2.86 6.89 9.39 9.39 0 0 1-6.89 2.86 9.39 9.39 0 0 1-6.89-2.86A9.39 9.39 0 0 1 0 9.75a9.39 9.39 0 0 1 2.86-6.89zm6-1.31a8 8 0 0 0-5.23 2.67A8 8 0 0 0 1.5 9.75a8 8 0 0 0 2.41 5.84A8 8 0 0 0 9.75 18 8 8 0 0 0 15 16.13l-5.81-5.82L9 10V1.55h-.09zm1.59 0V9H18a8 8 0 0 0-2.39-5.06 8 8 0 0 0-5.11-2.39zm1.08 9l4.6 4.45A8.08 8.08 0 0 0 18 10.5z"/></svg>