<svg xmlns="http://www.w3.org/2000/svg" viewBox="0 0 18 18"><path d="M2.63 2.63A8.68 8.68 0 0 1 9 0a8.68 8.68 0 0 1 6.38 2.63A8.68 8.68 0 0 1 18 9a8.68 8.68 0 0 1-2.62 6.38A8.68 8.68 0 0 1 9 18a8.68 8.68 0 0 1-2.67-.42 8.61 8.61 0 0 0 1.13-2.34L8 13.08a1.8 1.8 0 0 0 .82.77 2.65 2.65 0 0 0 1.24.3 4.15 4.15 0 0 0 3.35-1.64 6.11 6.11 0 0 0 1.34-4 4.85 4.85 0 0 0-1.62-3.7 5.61 5.61 0 0 0-4-1.5 5.89 5.89 0 0 0-4.3 1.61 5.24 5.24 0 0 0-1.6 3.85 4.66 4.66 0 0 0 .52 2.11 2.9 2.9 0 0 0 1.31 1.41q.28.09.33-.14a4.35 4.35 0 0 1 .09-.45l.14-.59a.21.21 0 0 0 0-.23 3 3 0 0 1-.7-2.06A3.78 3.78 0 0 1 6 6.07a4 4 0 0 1 3-1.15 3.72 3.72 0 0 1 2.72 1 3.54 3.54 0 0 1 1 2.65 5.14 5.14 0 0 1-.8 3 2.37 2.37 0 0 1-2 1.17 1.36 1.36 0 0 1-1.08-.49 1.17 1.17 0 0 1-.23-1.15q.09-.37.28-1t.3-1.15a3.7 3.7 0 0 0 .12-.82A1.42 1.42 0 0 0 9 7.15a1 1 0 0 0-.84-.35A1.43 1.43 0 0 0 7 7.43 2.48 2.48 0 0 0 6.52 9a3.46 3.46 0 0 0 .07.68 1.46 1.46 0 0 0 .16.49v.14q-.89 3.8-1 4.5a7.49 7.49 0 0 0 0 2.58 9.17 9.17 0 0 1-4.12-3.3A8.65 8.65 0 0 1 0 9a8.68 8.68 0 0 1 2.63-6.37z"/></svg>