<svg xmlns="http://www.w3.org/2000/svg" viewBox="0 0 18 18"><defs><style>.a{fill:#333740;}</style></defs><title>MOS icons NEW</title><path class="a" d="M2.62,2.62A8.74,8.74,0,0,1,9,0a8.74,8.74,0,0,1,6.38,2.62A8.74,8.74,0,0,1,18,9a8.74,8.74,0,0,1-2.62,6.38A8.74,8.74,0,0,1,9,18a8.66,8.66,0,0,1-2.67-.42,8.46,8.46,0,0,0,1.12-2.35L8,13.08a1.72,1.72,0,0,0,.82.77,2.68,2.68,0,0,0,1.24.31,4.16,4.16,0,0,0,3.35-1.64,6.15,6.15,0,0,0,1.34-4,4.84,4.84,0,0,0-1.62-3.7,5.61,5.61,0,0,0-4-1.5A5.89,5.89,0,0,0,4.83,4.92a5.26,5.26,0,0,0-1.6,3.85,4.76,4.76,0,0,0,.52,2.11,2.9,2.9,0,0,0,1.31,1.4c.19.06.3,0,.33-.14a4.47,4.47,0,0,1,.09-.44c.07-.27.11-.47.14-.59a.19.19,0,0,0,0-.23,3,3,0,0,1-.7-2.07A3.78,3.78,0,0,1,6,6.07,3.92,3.92,0,0,1,9,4.92a3.73,3.73,0,0,1,2.72,1,3.52,3.52,0,0,1,1,2.65,5.13,5.13,0,0,1-.79,2.95,2.39,2.39,0,0,1-2,1.17,1.35,1.35,0,0,1-1.08-.49,1.16,1.16,0,0,1-.23-1.15c.06-.25.15-.59.28-1s.23-.82.3-1.15a3.59,3.59,0,0,0,.12-.82A1.39,1.39,0,0,0,9,7.15a1,1,0,0,0-.84-.35A1.44,1.44,0,0,0,7,7.43,2.47,2.47,0,0,0,6.52,9a3.21,3.21,0,0,0,.07.68,1.38,1.38,0,0,0,.16.49l0,.14c-.6,2.53-.94,4-1,4.5a7.29,7.29,0,0,0,0,2.58,9.26,9.26,0,0,1-4.13-3.3A8.68,8.68,0,0,1,0,9,8.7,8.7,0,0,1,2.62,2.62Z"/></svg>