<svg xmlns="http://www.w3.org/2000/svg" viewBox="0 0 18 18"><defs><style>.a{fill:#333740;}</style></defs><title>MOS icons NEW</title><path class="a" d="M13.24,0l1,1L11.33,4,14,6.67l3-2.94,1,1-2.94,3,1.73,1.68-1.12,1.12L15.11,10,11.28,13.8a2.16,2.16,0,0,1-1.6.66A2.34,2.34,0,0,1,8,13.8l-1.4-1.4L1.12,18,0,16.88l5.6-5.5L4.2,10a2.34,2.34,0,0,1-.66-1.66,2.16,2.16,0,0,1,.66-1.6L8,2.89l-.56-.56L8.58,1.21l1.68,1.73ZM9.09,3.92,5.27,7.74A.81.81,0,0,0,5,8.35a.78.78,0,0,0,.23.6l3.78,3.78a.78.78,0,0,0,.6.23.81.81,0,0,0,.61-.23l3.82-3.82Z"/></svg>