<svg xmlns="http://www.w3.org/2000/svg" viewBox="0 0 19.5 19.5"><path d="M2.86 2.86A9.39 9.39 0 0 1 9.75 0a9.39 9.39 0 0 1 6.89 2.86 9.39 9.39 0 0 1 2.86 6.89 9.39 9.39 0 0 1-2.86 6.89 9.39 9.39 0 0 1-6.89 2.86 9.39 9.39 0 0 1-6.89-2.86A9.39 9.39 0 0 1 0 9.75a9.39 9.39 0 0 1 2.86-6.89zm12.73 1.05A8 8 0 0 0 9.75 1.5a8 8 0 0 0-5.84 2.41A8 8 0 0 0 1.5 9.75a8 8 0 0 0 2.41 5.84A8 8 0 0 0 9.75 18a8 8 0 0 0 5.84-2.41A8 8 0 0 0 18 9.75a8 8 0 0 0-2.41-5.84zM9 5.25h1.5V9h3.75v1.5H10.5v3.75H9V10.5H5.25V9H9z"/></svg>