<svg xmlns="http://www.w3.org/2000/svg" viewBox="0 0 66.71 61.99">
    <path class="cls-1" d="M62.35,44.17V17.81a3.06,3.06,0,0,0-3.09-3.09H50.54V11.82h5.82V0H41.63V11.82h5.82v2.91H29.27A15.65,15.65,0,0,0,15.82,7.27,15.83,15.83,0,0,0,0,23.09c0,4.91,4.73,14,8.91,21.09v.18H4.73V62h62V44.17ZM44.54,2.91h8.91V8.73H44.54ZM59.08,17.63a.18.18,0,0,1,.18.18V44.17H22.9a137,137,0,0,0,6.91-13.63v1.82h2.91V29.45H30.18a25.89,25.89,0,0,0,.91-2.91h1.45V23.63h-.91v-.55a19,19,0,0,0-.91-5.45ZM28.9,23.09c0,5.45-8.36,19.81-12.72,26.72C11.63,42.9,3.45,28.72,3.45,23.09a12.72,12.72,0,1,1,25.45,0Zm34.9,36H7.63V47.26h3.27a63.87,63.87,0,0,0,3.82,6L16,55.08l1.27-1.82c.18-.36,1.82-2.73,3.82-6H63.81Z"/>
    <rect class="cls-1" x="32.72" y="50.17" width="5.82" height="2.91"/>
    <path class="cls-1" d="M53.44,23.63H38.72V38.36H53.44ZM50.54,35.45H41.63V26.54h8.91Z"/>
    <rect class="cls-1" x="29.81" y="35.45" width="2.91" height="2.91"/>
    <path class="cls-1" d="M15.82,30a6.91,6.91,0,1,0-6.91-6.91A6.9,6.9,0,0,0,15.82,30Zm0-10.73a3.84,3.84,0,0,1,3.82,3.82,4,4,0,0,1-3.82,3.82A4,4,0,0,1,12,23.09,3.84,3.84,0,0,1,15.82,19.27Z"/>
</svg>
