<svg xmlns="http://www.w3.org/2000/svg" viewBox="0 0 18 18"><defs><style>.a{fill:#333740;}</style></defs><title>MOS icons NEW</title><path class="a" d="M6,.52V2.16A7.11,7.11,0,0,0,2.74,4.88,7.26,7.26,0,0,0,1.5,9a7.23,7.23,0,0,0,2.2,5.3A7.23,7.23,0,0,0,9,16.5a7.23,7.23,0,0,0,5.3-2.2A7.23,7.23,0,0,0,16.5,9a7.26,7.26,0,0,0-1.24-4.12A7.11,7.11,0,0,0,12,2.16V.52A8.93,8.93,0,0,1,18,9a8.63,8.63,0,0,1-2.65,6.35A8.63,8.63,0,0,1,9,18a8.63,8.63,0,0,1-6.35-2.65A8.63,8.63,0,0,1,0,9,8.75,8.75,0,0,1,1.66,3.77,8.82,8.82,0,0,1,6,.52ZM8.25,0h1.5V9H8.25Z"/></svg>