<svg xmlns="http://www.w3.org/2000/svg" viewBox="0 0 18 19.5"><path d="M8.37.87A2.9 2.9 0 0 1 10.5 0a2.9 2.9 0 0 1 2.13.87A2.9 2.9 0 0 1 13.5 3H18v5.25h-1.5a1.5 1.5 0 1 0 0 3H18v5.25h-4.5a3 3 0 0 1-3 3 3 3 0 0 1-3-3H3v-3.75a2.9 2.9 0 0 1-2.13-.87A2.9 2.9 0 0 1 0 9.75a2.9 2.9 0 0 1 .87-2.13A2.9 2.9 0 0 1 3 6.75V3h4.5A2.9 2.9 0 0 1 8.37.87zm3.21 1.05A1.5 1.5 0 0 0 9 3v1.5H4.5v3.75H3a1.5 1.5 0 1 0 0 3h1.5V15H9v1.5a1.5 1.5 0 1 0 3 0V15h4.5v-2.25a3 3 0 0 1-3-3 3 3 0 0 1 3-3V4.5H12V3a1.46 1.46 0 0 0-.42-1.08z"/></svg>