<svg xmlns="http://www.w3.org/2000/svg" viewBox="0 0 18 18"><defs><style>.a{fill:#333740;}</style></defs><title>MOS icons NEW</title><path class="a" d="M8.42.8a2.68,2.68,0,0,1,2-.8,2.68,2.68,0,0,1,2,.8,2.65,2.65,0,0,1,.8,2h4.16V7.62H15.92a1.38,1.38,0,1,0,0,2.76h1.39v4.85H13.15a2.65,2.65,0,0,1-.8,2,2.68,2.68,0,0,1-2,.8,2.68,2.68,0,0,1-2-.8,2.65,2.65,0,0,1-.8-2H3.46V11.77a2.7,2.7,0,0,1-2-.8,2.68,2.68,0,0,1-.8-2,2.68,2.68,0,0,1,.8-2,2.7,2.7,0,0,1,2-.8V2.77H7.62A2.65,2.65,0,0,1,8.42.8Zm3,1a1.46,1.46,0,0,0-2,0,1.36,1.36,0,0,0-.39,1V4.15H4.85V7.62H3.46a1.38,1.38,0,1,0,0,2.76H4.85v3.47H9v1.38a1.36,1.36,0,0,0,.39,1,1.46,1.46,0,0,0,2,0,1.36,1.36,0,0,0,.39-1V13.85h4.15V11.77A2.73,2.73,0,0,1,13.15,9a2.73,2.73,0,0,1,2.77-2.77V4.15H11.77V2.77A1.36,1.36,0,0,0,11.38,1.77Z"/></svg>