<svg xmlns="http://www.w3.org/2000/svg" viewBox="0 0 16.5 16.5"><path d="M6 6h4.5V0h6v6H15v1.5h-1.5V6H12v1.5H9V9h1.5v1.5H6v6H0v-6h4.5V9h3V7.5H6zM0 0h6v6H3v1.5H1.5V6H0V0zm1.5 7.5V9H0V7.5zm0-6v3h3v-3zm0 10.5v3h3v-3zm.75-9.75h1.5v1.5h-1.5zm0 10.5h1.5v1.5h-1.5zM4.5 9H3V7.5h1.5zm3-9H9v1.5h.75V3H9v2.25H7.5V4.5h-.75V3h.75zM15 12v1.5h-.75V15h-1.5v-1.5h-3v3h-1.5V12H12v-1.5h1.5V12zm-2.25 3v1.5h-1.5V15zM12 1.5v3h3v-3zM13.5 9H12V7.5h1.5zm-.75-6.75h1.5v1.5h-1.5zM15 9v1.5h-1.5V9zm0-1.5h1.5V9H15zm0 3h1.5V12H15zm0 4.5h1.5v1.5H15z"/></svg>