<svg xmlns="http://www.w3.org/2000/svg" viewBox="0 0 18 18"><defs><style>.a{fill:#333740;}</style></defs><title>MOS icons NEW</title><path class="a" d="M6.55,6.55h4.9V0H18V6.55H16.36V8.18H14.73V6.55H13.09V8.18H9.82V9.82h1.63v1.63H6.55V18H0V11.45H4.91V9.82H8.18V8.18H6.55ZM0,0H6.55V6.55H3.27V8.18H1.64V6.55H0V0ZM1.64,8.18V9.82H0V8.18Zm0-6.54V4.91H4.91V1.64Zm0,11.45v3.27H4.91V13.09ZM2.45,2.45H4.09V4.09H2.45Zm0,11.46H4.09v1.64H2.45ZM4.91,9.82H3.27V8.18H4.91ZM8.18,0H9.82V1.64h.82V3.27H9.82V5.73H8.18V4.91H7.36V3.27h.82Zm8.18,13.09v1.64h-.81v1.63H13.91V14.73H10.64V18H9V13.09h4.09V11.45h1.64v1.64Zm-2.45,3.27V18H12.27V16.36ZM13.09,1.64V4.91h3.27V1.64Zm1.64,8.18H13.09V8.18h1.64Zm-.82-7.37h1.64V4.09H13.91Zm2.45,7.37v1.63H14.73V9.82Zm0-1.64H18V9.82H16.36Zm0,3.27H18v1.64H16.36Zm0,4.91H18V18H16.36Z"/></svg>