<svg xmlns="http://www.w3.org/2000/svg" viewBox="0 0 18 18"><path d="M2.65 2.65A8.66 8.66 0 0 1 9 0a8.67 8.67 0 0 1 6.35 2.65A8.67 8.67 0 0 1 18 9a8.66 8.66 0 0 1-2.65 6.35A8.66 8.66 0 0 1 9 18a8.66 8.66 0 0 1-6.35-2.65A8.66 8.66 0 0 1 0 9a8.66 8.66 0 0 1 2.65-6.35zM14.3 3.7A7.22 7.22 0 0 0 9 1.5a7.22 7.22 0 0 0-5.3 2.2A7.22 7.22 0 0 0 1.5 9a7.22 7.22 0 0 0 2.2 5.3A7.22 7.22 0 0 0 9 16.5a7.22 7.22 0 0 0 5.3-2.2A7.22 7.22 0 0 0 16.5 9a7.22 7.22 0 0 0-2.2-5.3zM6.89 5.39a2.94 2.94 0 0 1 4.22 0A2.88 2.88 0 0 1 12 7.5a2.75 2.75 0 0 1-.54 1.64A3 3 0 0 1 10 10.22l-.28.09v.94H8.25v-.94a1.38 1.38 0 0 1 1-1.45l.28-.09a1.2 1.2 0 0 0 .97-1.27 1.49 1.49 0 0 0-2.55-1.05A1.44 1.44 0 0 0 7.5 7.5H6a2.88 2.88 0 0 1 .89-2.11zM8.25 12h1.5v1.5h-1.5z"/></svg>