<svg xmlns="http://www.w3.org/2000/svg" viewBox="0 0 40 39.96"><path d="M34 5.81A20 20 0 0 0 2.16 29L0 40l11-2.16A20.54 20.54 0 0 0 20.11 40 19.83 19.83 0 0 0 40 20.07a19.54 19.54 0 0 0-6-14.26zM32.08 32a17.34 17.34 0 0 1-12.15 5.1 17.52 17.52 0 0 1-8.27-2.1l-.53-.18-7.74 1.62L5 28.69l-.18-.53a17.06 17.06 0 0 1 3-20.24 17.34 17.34 0 0 1 12.15-5.1 16.62 16.62 0 0 1 12.15 5.1 17.34 17.34 0 0 1 5.1 12.15A17.25 17.25 0 0 1 32.08 32z"/><path d="M19.93 9.86a5.58 5.58 0 0 0-4 1.58l1.06 1.06-1.06-1.06a10.69 10.69 0 0 0-1.23 1.76c-.18.35-.18.7-.35 1.06l2.82.53c0-.18.18-.35.18-.53a1.76 1.76 0 0 1 .7-.88 2.83 2.83 0 0 1 1.94-.88 2.78 2.78 0 0 1 2.82 2.82 2.83 2.83 0 0 1-.88 1.94L20.11 19a5.58 5.58 0 0 0-1.58 4v.7h2.82v-.35a2.83 2.83 0 0 1 .88-1.94l1.77-1.7a5.58 5.58 0 0 0 1.58-4 5.6 5.6 0 0 0-5.65-5.85zm-1.4 15.66h2.82v2.82h-2.82z"/></svg>