<svg xmlns="http://www.w3.org/2000/svg" viewBox="0 0 18.07 17.25"><path d="M4.81 6.09V10l-1.13-.62-2 3.19a1 1 0 0 0-.09 1.13 1.11 1.11 0 0 0 1 .56h4.18v1.5H2.65a2.46 2.46 0 0 1-2.3-1.36 2.36 2.36 0 0 1 .09-2.62l1.93-3.2L1.43 8zM9 0a2.28 2.28 0 0 1 2.06 1.13l2.34 3.75 1.08-.61v4L11 6.28l1.13-.66-2.31-3.74a.92.92 0 0 0-1.55 0L6.12 5.34l-1.27-.75L7 1.13A2.28 2.28 0 0 1 9 0zm6.8 8.72l1.87 3a2.53 2.53 0 0 1 0 2.65 2.39 2.39 0 0 1-2.2 1.34h-4.2v1.5L7.62 15l3.66-2.25v1.5h4.22a1 1 0 0 0 1-.54 1.12 1.12 0 0 0 0-1.15l-1.87-3z"/></svg>