<svg xmlns="http://www.w3.org/2000/svg" viewBox="0 0 60 60"><defs><style>.a{fill:#333740;}</style></defs><title>MOS icons NEW</title><path class="a" d="M55.71,42.86V17.35a3.06,3.06,0,0,0-3.06-3.06H44.29V11.43H50V0H35.71V11.43h5.72v2.86H7.35a3.06,3.06,0,0,0-3.06,3.06V42.86H0V60H60V42.86ZM38.57,8.57V2.86h8.57V8.57ZM7.14,17.35a.22.22,0,0,1,.21-.21h45.3a.22.22,0,0,1,.21.21V42.86H7.14Zm50,39.79H2.86V45.71H57.14Z"/><rect class="a" x="27.14" y="48.57" width="5.71" height="2.86"/><path class="a" d="M32.86,37.14H47.14V22.86H32.86Zm2.85-11.43h8.58v8.58H35.71Z"/><rect class="a" x="12.86" y="22.86" width="14.29" height="2.86"/><rect class="a" x="12.86" y="28.57" width="2.86" height="2.86"/><rect class="a" x="18.57" y="28.57" width="2.86" height="2.86"/><rect class="a" x="24.29" y="28.57" width="2.86" height="2.86"/><rect class="a" x="12.86" y="34.28" width="2.86" height="2.86"/><rect class="a" x="18.57" y="34.28" width="2.86" height="2.86"/><rect class="a" x="24.29" y="34.28" width="2.86" height="2.86"/></svg>