<svg xmlns="http://www.w3.org/2000/svg" viewBox="0 0 60 60"><defs><style>.a{fill:#333740;}</style></defs><title>MOS icons NEW</title><path class="a" d="M42.32,9.89a7.72,7.72,0,1,0,5.46,2.26A7.67,7.67,0,0,0,42.32,9.89Zm3.47,11.19a4.91,4.91,0,1,1,0-6.94A4.85,4.85,0,0,1,45.79,21.08Z"/><path class="a" d="M57.69,2.24C56.55,1.1,53.05,0,48.55,0A26.39,26.39,0,0,0,29.81,7.86a85.59,85.59,0,0,0-9.22,11.25c-2.31-1-6-.08-11.21,2.76A79.29,79.29,0,0,0,1.3,27L0,28l5.26,5.26h7.48c-.21.57-.42,1.13-.6,1.69l-.27.81L15.09,39c-1,1.35-1.88,2.67-2.59,3.84l-.58.94L16.17,48l.94-.58c1.17-.71,2.49-1.62,3.84-2.59l3.22,3.22.81-.27c.6-.19,1.2-.41,1.81-.65v7.65l5.26,5.26,1-1.3a79.29,79.29,0,0,0,5.16-8.08c2.91-5.33,3.79-9.07,2.69-11.36a86.31,86.31,0,0,0,11.2-9.19C63.43,18.76,59.9,4.44,57.69,2.24Zm-9.14.49c4,0,6.72,1,7.17,1.48s1.55,3.49,1.51,7.44A19.21,19.21,0,0,1,52,7.93a19.32,19.32,0,0,1-3.7-5.19ZM6.43,30.46,4.3,28.33c5.63-4,12-7.18,14.66-6.8a73.67,73.67,0,0,0-5,8.93Zm10.15,14-1.1-1.1A96.89,96.89,0,0,1,24.36,32c1.71-1.7,3.34-2.08,4.5-.92a2.11,2.11,0,0,1,.67,1.73,4.89,4.89,0,0,1-1.59,2.77A96.89,96.89,0,0,1,16.58,44.45ZM31.72,55.76l-2.13-2.13V45.92a73.9,73.9,0,0,0,8.89-5C39,43.42,35.8,50,31.72,55.76Zm-6.8-10.9-1.71-1.7a82.73,82.73,0,0,0,6.71-5.61,7.42,7.42,0,0,0,2.4-4.49,4.92,4.92,0,0,0-1.48-4,4.86,4.86,0,0,0-3.51-1.49A7,7,0,0,0,22.38,30a82.73,82.73,0,0,0-5.61,6.71L15.07,35C17.79,27.5,25,16.63,31.78,9.83A23.38,23.38,0,0,1,45.32,3a21.9,21.9,0,0,0,4.7,7,22.13,22.13,0,0,0,7,4.72A23.63,23.63,0,0,1,50.1,28.15C43.31,34.94,32.44,42.13,24.92,44.86Z"/><rect class="a" x="1.96" y="42.56" width="8.42" height="2.81" transform="translate(-29.28 17.24) rotate(-45)"/><rect class="a" x="11.88" y="52.48" width="8.42" height="2.81" transform="translate(-33.39 27.16) rotate(-45)"/><rect class="a" x="1.53" y="52.85" width="8.42" height="2.81" transform="translate(-36.68 19.95) rotate(-45)"/></svg>