<svg xmlns="http://www.w3.org/2000/svg" viewBox="0 0 19.37 19.36"><path d="M17.77 0h1.54v.7a21.94 21.94 0 0 1-.09 2.81Q18.94 6.84 17.77 8q-.94.94-5.62 4.55-.52.42-.94.7l.09 1.27A2.75 2.75 0 0 1 10.17 17L8.3 18.56l-1 .8-.23-1.22-.52-2.48L3.7 12.8l-2.48-.52L0 12.09l.8-1 1.54-1.9a2.75 2.75 0 0 1 2.49-1.13l1.31.09a4.94 4.94 0 0 0 .28-.42 2.45 2.45 0 0 1 .38-.47 64.29 64.29 0 0 1 4.59-5.67Q12.56.38 15.8.09 16.78 0 17.77 0zM3 13.45l1 1.08a5 5 0 0 0-.84 1.59 4.53 4.53 0 0 0 1.59-.84l1 1a5.49 5.49 0 0 1-2.25 1.31L2.25 18l-1.08.19.19-1.12q.14-.61.38-1.31A6.26 6.26 0 0 1 3 13.45zm1.73-3.89a1.35 1.35 0 0 0-1.22.56l-.8.94 1 .19a4 4 0 0 0 .54-.66l.77-1zM17.11 1.5a10.25 10.25 0 0 0-1.22.09 6.11 6.11 0 0 0-3.47 1q-1 1-4.5 5.53Q7.17 9.19 5 12l2.34 2.3q.52-.42 3.84-3 4.5-3.47 5.53-4.45.8-.8 1-3.47.09-1 .09-2h-.75zM9.8 14.34l-1 .77a3.89 3.89 0 0 0-.66.54l.19 1 .94-.8a1.35 1.35 0 0 0 .56-1.22zm2.84-9.75a1.41 1.41 0 0 1 1.05-.47 1.48 1.48 0 0 1 1.08.47 1.47 1.47 0 0 1 0 2.16 1.48 1.48 0 0 1-1.08.47 1.41 1.41 0 0 1-1.05-.47 1.53 1.53 0 0 1 0-2.16z"/></svg>