<svg xmlns="http://www.w3.org/2000/svg" viewBox="0 0 63.11 63.22"><path d="M44.52 10.46a8.12 8.12 0 1 0 5.74 2.38 8.06 8.06 0 0 0-5.74-2.38zm3.65 11.77a5.17 5.17 0 1 1 0-7.3 5.14 5.14 0 0 1 0 7.3z"/><path d="M60.68 2.41C59.49 1.21 55.8 0 51.07 0a27.75 27.75 0 0 0-19.71 8.32 89.82 89.82 0 0 0-9.7 11.84c-2.43-1-6.31-.08-11.79 2.91a80.47 80.47 0 0 0-8.5 5.43L0 29.51 5.54 35h7.87c-.23.6-.44 1.19-.64 1.77l-.28.86 3.39 3.39c-1 1.42-2 2.81-2.73 4l-.6 1L17 50.55l1-.6c1.23-.75 2.63-1.7 4-2.73l3.39 3.39.86-.28c.62-.21 1.26-.44 1.9-.69v8l5.54 5.54 1-1.37a80.79 80.79 0 0 0 5.43-8.5c3.06-5.61 4-9.54 2.83-12a89.79 89.79 0 0 0 11.78-9.67c12-11.86 8.27-26.91 5.95-29.23zm-9.62.52c4.22 0 7.07 1.09 7.55 1.55.59.61 1.63 3.67 1.59 7.83a20.34 20.34 0 0 1-5.5-3.91 20.36 20.36 0 0 1-3.9-5.46zM6.76 32.09l-2.24-2.24c5.93-4.19 12.66-7.55 15.43-7.15a77 77 0 0 0-5.27 9.39zm10.68 14.72l-1.16-1.15a101.08 101.08 0 0 1 9.34-11.95c1.8-1.8 3.51-2.2 4.73-1a2.2 2.2 0 0 1 .7 1.82 5.11 5.11 0 0 1-1.68 2.91 100.87 100.87 0 0 1-11.93 9.37zM33.37 58.7l-2.24-2.24v-8.1a77.58 77.58 0 0 0 9.34-5.27c.6 2.64-2.81 9.54-7.1 15.61zm-7.16-11.45l-1.79-1.8a87.37 87.37 0 0 0 7.06-5.9A7.81 7.81 0 0 0 34 34.84a5.37 5.37 0 0 0-5.24-5.76 7.42 7.42 0 0 0-5.21 2.55 87.75 87.75 0 0 0-5.9 7.06l-1.79-1.8c2.86-7.89 10.42-19.35 17.57-26.5a24.58 24.58 0 0 1 14.24-7.22 23.19 23.19 0 0 0 4.94 7.31 23.16 23.16 0 0 0 7.35 5 24.79 24.79 0 0 1-7.26 14.18c-7.15 7.15-18.58 14.72-26.49 17.59zm-23.9 1.136l6.264-6.265 2.086 2.086-6.265 6.265zm10.444 10.431l6.265-6.265 2.086 2.086-6.265 6.265zm-10.892.388l6.265-6.265 2.086 2.086-6.265 6.265z"/></svg>