<svg xmlns="http://www.w3.org/2000/svg" viewBox="0 0 19.5 19.5"><path d="M.75.75h6v6h-1.5V2.81a8.62 8.62 0 0 0-2.74 3 8 8 0 0 0-1 4 8 8 0 0 0 2.41 5.84A8 8 0 0 0 9.75 18a8 8 0 0 0 5.84-2.41A8 8 0 0 0 18 9.75V9h1.5v.75a9.39 9.39 0 0 1-2.86 6.89 9.39 9.39 0 0 1-6.89 2.86 9.39 9.39 0 0 1-6.89-2.86A9.39 9.39 0 0 1 0 9.75a9.33 9.33 0 0 1 3.47-7.5H.75zm9-.75h.75v1.5h-.75zm2.34.33l.66.14.61.23h.09l-.61 1.36h-.09L12.33 2l-.56-.14zm2.82 1.17l.38.28.52.38.23.19-1 1.13-.04-.1-.52-.38-.37-.23zm2.25 2l.19.19.42.52.28.42-1.31.8-.19-.33v-.09l-.33-.42-.22-.18zM18.75 6v.09l.19.61v.09l.14.61-1.41.42-.19-.61-.19-.52z"/></svg>