<svg xmlns="http://www.w3.org/2000/svg" viewBox="0 0 19.5 19.5"><path d="M12.75.75h6v1.5H16a9.33 9.33 0 0 1 3.47 7.5 9.39 9.39 0 0 1-2.86 6.89 9.39 9.39 0 0 1-6.86 2.86 9.39 9.39 0 0 1-6.89-2.86A9.39 9.39 0 0 1 0 9.75V9h1.5v.75a8 8 0 0 0 2.41 5.84A8 8 0 0 0 9.75 18a8 8 0 0 0 5.84-2.41A8 8 0 0 0 18 9.75a8 8 0 0 0-1-4 8.63 8.63 0 0 0-2.74-3v4h-1.5v-6zM.75 6l1.31.66-.19.52-.19.61-1.4-.34.14-.61v-.09l.19-.61zm1.59-2.53l1.13.94-.19.19-.28.46v.09l-.19.33-1.31-.8.28-.42.42-.52zm2.25-2l.84 1.27-.37.26H5l-.42.38-.14.14-1-1.12.23-.19.52-.37zM7.41.33l.38 1.45-.56.14-.52.19h-.15L6 .8h.09L6.7.52zM9 0h.75v1.5H9z"/></svg>