<svg xmlns="http://www.w3.org/2000/svg" viewBox="0 0 18 18"><defs><style>.a{fill:#333740;}</style></defs><title>MOS icons NEW</title><path class="a" d="M.69.69H6.23V6.23H4.85V2.6A8,8,0,0,0,2.31,5.34,7.38,7.38,0,0,0,1.38,9a7.37,7.37,0,0,0,2.23,5.39A7.37,7.37,0,0,0,9,16.62a7.37,7.37,0,0,0,5.39-2.23A7.37,7.37,0,0,0,16.62,9V8.31H18V9a8.67,8.67,0,0,1-2.64,6.36A8.67,8.67,0,0,1,9,18a8.67,8.67,0,0,1-6.36-2.64A8.67,8.67,0,0,1,0,9,8.62,8.62,0,0,1,3.2,2.08H.69ZM9,0h.69V1.38H9Zm2.16.3.61.13v0h0l.57.21h.08l0,.05L11.94,2h-.08l-.48-.17,0-.05-.52-.13Zm2.6,1.08.35.26h0l.47.35V2h.05l.21.18-1,1-.13-.13h0l-.39-.35h0L13,2.55ZM15.84,3.2l.17.18,0,0,.39.47v0l.26.39-1.21.73-.17-.3-.05-.09L15,4.28v0l-.17-.17Zm1.47,2.34,0,.08h0v0l.18.56,0,.09.13.56-1.3.39-.17-.56v0l-.17-.47V6.14Z"/></svg>