<svg xmlns="http://www.w3.org/2000/svg" viewBox="0 0 18 18"><defs><style>.a{fill:#333740;}</style></defs><title>MOS icons NEW</title><path class="a" d="M11.77.69h5.54V2.08H14.8A8.62,8.62,0,0,1,18,9a8.67,8.67,0,0,1-2.64,6.36A8.67,8.67,0,0,1,9,18a8.67,8.67,0,0,1-6.36-2.64A8.67,8.67,0,0,1,0,9V8.31H1.38V9a7.37,7.37,0,0,0,2.23,5.39A7.37,7.37,0,0,0,9,16.62a7.37,7.37,0,0,0,5.39-2.23A7.37,7.37,0,0,0,16.62,9a7.38,7.38,0,0,0-.93-3.66A8,8,0,0,0,13.15,2.6V6.23H11.77V.69ZM.69,5.54l1.21.6v.05l-.17.47v0l-.17.56L.26,6.88l.13-.56,0-.09.18-.56v0h0ZM2.16,3.2l1,.87L3,4.24v0l-.3.39,0,.09-.17.3L1.3,4.33l.26-.39v0L2,3.42l0,0ZM4.24,1.38,5,2.55l-.35.22h0l-.39.35h0l-.13.13-1-1L3.33,2h0V2l.47-.35h0ZM6.84.3l.34,1.34-.52.13,0,.05L6.14,2H6.06L5.5.74l0-.05h.08L6.19.48h0v0ZM8.31,0H9V1.38H8.31Z"/></svg>