<svg xmlns="http://www.w3.org/2000/svg" viewBox="0 0 18 18"><defs><style>.a{fill:#333740;}</style></defs><title>MOS icons NEW</title><path class="a" d="M0,2.08H18V15.92H0V2.08ZM1.38,3.46V6.23H16.62V3.46Zm0,4.16v2.76H16.62V7.62Zm0,4.15v2.77H16.62V11.77ZM2.77,4.15H8.31V5.54H2.77Zm0,4.16H8.31V9.69H2.77Zm0,4.15H8.31v1.39H2.77ZM14,4.35a.73.73,0,0,1,1,0,.66.66,0,0,1,.19.5.66.66,0,0,1-.19.49.73.73,0,0,1-1,0,.66.66,0,0,1-.19-.49A.66.66,0,0,1,14,4.35ZM14,8.5a.75.75,0,1,1-.19.5A.68.68,0,0,1,14,8.5Zm0,4.16a.73.73,0,0,1,1,0,.66.66,0,0,1,.19.49.66.66,0,0,1-.19.5.72.72,0,0,1-1,0,.66.66,0,0,1-.19-.5A.66.66,0,0,1,14,12.66Z"/></svg>