<svg xmlns="http://www.w3.org/2000/svg" viewBox="0 0 16.5 18.05"><path d="M8.25 0a8.43 8.43 0 0 1 3.84 1.22 7.75 7.75 0 0 0 3.66 1h.75V3q0 7.36-3.94 11.86a12.85 12.85 0 0 1-1.9 1.8 10.86 10.86 0 0 1-1.57 1.05l-.56.29H8a10.93 10.93 0 0 1-4-3.14Q0 10.31 0 3v-.75h.75a7.57 7.57 0 0 0 3.66-1A8.43 8.43 0 0 1 8.25 0zm0 1.5A4.67 4.67 0 0 0 7 1.66a4.33 4.33 0 0 0-.87.3l-1 .56a10.35 10.35 0 0 1-3.58 1.14Q1.73 10 5.06 13.88a9.63 9.63 0 0 0 3.19 2.53 9.63 9.63 0 0 0 3.19-2.53Q14.77 10 15 3.66a10.35 10.35 0 0 1-3.61-1.12.51.51 0 0 0-.19-.09 6.24 6.24 0 0 0-2.95-.95z"/></svg>