<svg xmlns="http://www.w3.org/2000/svg" viewBox="0 0 56.3 62.67"><path d="M21 30.69l6.75 16.4L56.3 35.2l-7.88-19.13-4.08 1.7L37 0l-7.45 3.11L20 7.08l-7.47 3.11zM45.46 20.5l1.36-.57 5.63 13.67-23.1 9.62-5.63-13.67 6.79-2.83 3.38 8.2 9.51-4-3.4-8.16zm-12.23 5.09l4.08-1.7 2.25 5.47-4.08 1.7zM28 7l2 4.86-4.08 1.7-2-4.86zm-6.8 2.83l3.13 7.59 9.51-4-3.17-7.57 4.76-2 6.19 15-14.16 5.9-4.87 2-6.19-15z"/><path d="M53.91 41L27.35 52.06a5.82 5.82 0 0 0-2.8-1.17L6.42 6.87H0v3h4.45l17.08 41.41a5.91 5.91 0 1 0 7.69 3.2L55 43.73zM26.5 57.88a3 3 0 1 1 0-2.26 2.93 2.93 0 0 1 0 2.26z"/></svg>