<svg xmlns="http://www.w3.org/2000/svg" viewBox="0 0 18 18"><defs><style>.a{fill:#333740;}</style></defs><title>MOS icons NEW</title><path class="a" d="M0,0H1.5V3.75H6.89A2.1,2.1,0,0,1,9,2.25a2.1,2.1,0,0,1,2.11,1.5H18v1.5H11.11A2.1,2.1,0,0,1,9,6.75a2.1,2.1,0,0,1-2.11-1.5H1.5v3H12.14a2.1,2.1,0,0,1,2.11-1.5,2.1,2.1,0,0,1,2.11,1.5H18v1.5H16.36a2.1,2.1,0,0,1-2.11,1.5,2.1,2.1,0,0,1-2.11-1.5H1.5v3H3.14a2.1,2.1,0,0,1,2.11-1.5,2.1,2.1,0,0,1,2.11,1.5H18v1.5H7.36a2.1,2.1,0,0,1-2.11,1.5,2.1,2.1,0,0,1-2.11-1.5H1.5V18H0ZM6,13.5a.66.66,0,0,0-.75-.75.66.66,0,0,0-.75.75.66.66,0,0,0,.75.75A.66.66,0,0,0,6,13.5Zm3.75-9A.66.66,0,0,0,9,3.75a.66.66,0,0,0-.75.75A.66.66,0,0,0,9,5.25.66.66,0,0,0,9.75,4.5ZM15,9a.66.66,0,0,0-.75-.75A.66.66,0,0,0,13.5,9a.66.66,0,0,0,.75.75A.66.66,0,0,0,15,9Z"/></svg>