<svg xmlns="http://www.w3.org/2000/svg" viewBox="0 0 58.84 56.25"><path d="M13.24 14.83a7.4 7.4 0 0 0 7.22-5.92h38.38v-3H20.46A7.37 7.37 0 0 0 6 5.92H0v3h6a7.4 7.4 0 0 0 7.24 5.91zm0-11.83a4.42 4.42 0 1 1-4.39 4.41A4.41 4.41 0 0 1 13.24 3zm32.23 23.63a7.37 7.37 0 0 0-14.44 0H0v3h31a7.37 7.37 0 0 0 14.44 0h13.4v-3zm-7.22 5.92a4.42 4.42 0 1 1 4.39-4.42 4.41 4.41 0 0 1-4.4 4.41zm-17.66 8.87a7.4 7.4 0 0 0-7.22 5.92H0v3h13.37a7.37 7.37 0 0 0 14.44 0h31v-3h-31a7.4 7.4 0 0 0-7.22-5.92zm0 11.83A4.42 4.42 0 1 1 25 48.83a4.41 4.41 0 0 1-4.41 4.42z"/></svg>