<svg xmlns="http://www.w3.org/2000/svg" viewBox="0 0 18 18"><path d="M0 0h1.5v3.75h5.39A2.09 2.09 0 0 1 9 2.25a2.09 2.09 0 0 1 2.11 1.5H18v1.5h-6.89A2.09 2.09 0 0 1 9 6.75a2.09 2.09 0 0 1-2.11-1.5H1.5v3h10.64a2.09 2.09 0 0 1 2.11-1.5 2.09 2.09 0 0 1 2.11 1.5H18v1.5h-1.64a2.09 2.09 0 0 1-2.11 1.5 2.09 2.09 0 0 1-2.11-1.5H1.5v3h1.64a2.09 2.09 0 0 1 2.11-1.5 2.09 2.09 0 0 1 2.11 1.5H18v1.5H7.36a2.09 2.09 0 0 1-2.11 1.5 2.09 2.09 0 0 1-2.11-1.5H1.5V18H0zm6 13.5a.66.66 0 0 0-.75-.75.66.66 0 0 0-.75.75.66.66 0 0 0 .75.75.66.66 0 0 0 .75-.75zm3.75-9A.66.66 0 0 0 9 3.75a.66.66 0 0 0-.75.75.66.66 0 0 0 .75.75.66.66 0 0 0 .75-.75zM15 9a.66.66 0 0 0-.75-.75.66.66 0 0 0-.75.75.66.66 0 0 0 .75.75A.66.66 0 0 0 15 9z"/></svg>