<svg xmlns="http://www.w3.org/2000/svg" viewBox="0 0 18 18"><path d="M2.65 2.65A8.66 8.66 0 0 1 9 0a8.66 8.66 0 0 1 6.35 2.65A8.66 8.66 0 0 1 18 9a8.66 8.66 0 0 1-2.65 6.35A8.66 8.66 0 0 1 9 18a8.66 8.66 0 0 1-6.35-2.65A8.66 8.66 0 0 1 0 9a8.66 8.66 0 0 1 2.65-6.35zM14.3 3.7A7.22 7.22 0 0 0 9 1.5a7.22 7.22 0 0 0-5.3 2.2A7.22 7.22 0 0 0 1.5 9a7.22 7.22 0 0 0 2.2 5.3A7.22 7.22 0 0 0 9 16.5a7.22 7.22 0 0 0 5.3-2.2A7.22 7.22 0 0 0 16.5 9a7.22 7.22 0 0 0-2.2-5.3zm-9.19 7.55A4.24 4.24 0 0 0 9 13.5a4.24 4.24 0 0 0 3.89-2.25l1.27.75A5.71 5.71 0 0 1 12 14.18a6 6 0 0 1-6 0A5.71 5.71 0 0 1 3.84 12zm-.28-4.92a1.13 1.13 0 0 1 1.59 0 1.13 1.13 0 0 1-.8 1.92 1.13 1.13 0 0 1-.8-1.92zm6.75 0a1.13 1.13 0 0 1 1.59 1.59 1.13 1.13 0 0 1-1.59-1.59z"/></svg>