<svg xmlns="http://www.w3.org/2000/svg" viewBox="0 0 17.25 16.88"><path d="M2.63 0h.75a2.53 2.53 0 0 1 1.85.77A2.53 2.53 0 0 1 6 2.63a2.65 2.65 0 0 1-1.41 2.3q-.42.28-2 1.08H6V7.5H0v-.75a1.53 1.53 0 0 1 .47-1.12A3 3 0 0 1 1.41 5q.14-.09 1-.54t1.39-.8a1.29 1.29 0 0 0 .7-1 1.11 1.11 0 0 0-.3-.82 1.11 1.11 0 0 0-.82-.3h-.75a1.11 1.11 0 0 0-.82.3 1.11 1.11 0 0 0-.3.82V3H0v-.37A2.53 2.53 0 0 1 .77.77 2.53 2.53 0 0 1 2.63 0zm.09 9H4.5v7.5H3v-4.78a3 3 0 0 1-2.25 1v-1.5a1.67 1.67 0 0 0 1.41-.8l.42-.89zm10-9h1.5v14l2-1.92 1 1-3.19 3.23-.56.52-.56-.52-3.16-3.18 1-1 2 1.92z"/></svg>