<svg xmlns="http://www.w3.org/2000/svg" viewBox="0 0 17.25 16.88"><path d="M2.63 9h.75a2.53 2.53 0 0 1 1.85.77A2.53 2.53 0 0 1 6 11.63a2.65 2.65 0 0 1-1.41 2.3q-.42.28-2 1.08H6v1.5H0v-.75a1.53 1.53 0 0 1 .47-1.12 3 3 0 0 1 .94-.64q.14-.09 1-.54t1.41-.77a1.29 1.29 0 0 0 .7-1 1.11 1.11 0 0 0-.3-.82 1.11 1.11 0 0 0-.82-.3h-.77a1.11 1.11 0 0 0-.82.3 1.11 1.11 0 0 0-.3.82V12H0v-.37a2.53 2.53 0 0 1 .77-1.86A2.53 2.53 0 0 1 2.63 9zm.09-9H4.5v7.5H3V2.72a3 3 0 0 1-2.25 1V2.25a1.67 1.67 0 0 0 1.41-.8l.42-.89zm10 0h1.5v14l2-1.92 1 1-3.19 3.23-.56.52-.56-.52-3.16-3.18 1-1 2 1.92z"/></svg>