<svg xmlns="http://www.w3.org/2000/svg" viewBox="0 0 60 57.2"><path d="M22.38 16.08l-6.8-2.82v-5h8.12V2.82H25V0H3.48v2.82h1.33v5.3h8.12v4l-4.64-1.84L0 30.17 14.09 36l20.22 16.55L38 43.76a9.51 9.51 0 0 0 8.79-6 9.71 9.71 0 0 0-2-10.44l3.65-8.79zM7.46 5.47V2.82h13.43v2.65zm8.12 18.9a1.43 1.43 0 0 1-1.33 1.33 1.33 1.33 0 1 1 0-2.65 1.31 1.31 0 0 1 1.33 1.32zm.17 9.45l-12.1-5.14 6.13-14.92 3 1.16v5.47a4.59 4.59 0 0 0-2.65 4 4 4 0 1 0 8 0 4.16 4.16 0 0 0-2.65-3.81v-4.34l6 2.49 17.07 1.66-10.04 23.87zm17.57 14.42l-2.65-2.15 10.44-25.37 3.32.33zm11.1-11.44a6.94 6.94 0 0 1-5.14 4.14l4.48-10.77a7.79 7.79 0 0 1 .66 6.63zm6.276 4.212l1.014-2.448 6.587 2.729-1.014 2.448zm1.711-15.673l6.588-2.727 1.013 2.45-6.588 2.725zM41.628 50.623l2.448-1.014 2.729 6.587-2.448 1.014z"/></svg>