<svg xmlns="http://www.w3.org/2000/svg" viewBox="0 0 60 60"><defs><style>.a{fill:#333740;}</style></defs><title>MOS icons NEW</title><path class="a" d="M30,50.47H49.13V34.07H30ZM32.6,36.68H46.52V47.86H32.6Z"/><path class="a" d="M59.32,12.27,52.4,2.5a2.92,2.92,0,0,0-2.26-1.17H9.86A2.94,2.94,0,0,0,7.6,2.5L.68,12.27A4,4,0,0,0,0,14.4v3.27A8.45,8.45,0,0,0,2.64,23.8V58.61h8.15v.06H24.53v-.06H57.17V24A8.47,8.47,0,0,0,60,17.67V14.4A4,4,0,0,0,59.32,12.27ZM50.27,4l6.82,9.63H45.32l-2.88-9.7h7.67A.4.4,0,0,1,50.27,4ZM28.69,17.75a5.87,5.87,0,0,1-11.73,0v-.08h0V16.25H28.7v1.42h0ZM17.4,13.64l2.87-9.7H28.7v9.7Zm13.9,4V16.25H43v1.42a5.87,5.87,0,0,1-11.74.08Zm0-4V3.94h8.42l2.88,9.7ZM9.71,4a.49.49,0,0,1,.15-.09h7.69l-2.88,9.7H2.91ZM2.61,16.25H14.34v1.42s0,0,0,.08a5.87,5.87,0,0,1-11.74-.08ZM21.92,56H13.4V36.68h8.52Zm32.65,0h-30V34.07H10.79V56H5.24V25.51a8.48,8.48,0,0,0,10.41-3.33,8.47,8.47,0,0,0,14.35,0,8.45,8.45,0,0,0,14.34,0,8.49,8.49,0,0,0,7.18,4,8.39,8.39,0,0,0,3-.57Zm-3-32.46a5.88,5.88,0,0,1-5.87-5.88V16.25H57.39v1.42A5.88,5.88,0,0,1,51.52,23.55Z"/></svg>