<svg xmlns="http://www.w3.org/2000/svg" viewBox="0 0 69 65.94"><path d="M34.49 56.51h22V37.66h-22zm3-15.86h16v12.86h-16z"/><path d="M68.22 12.58l-8-11.24A3.37 3.37 0 0 0 57.66 0H11.34a3.37 3.37 0 0 0-2.6 1.34l-8 11.24A4.64 4.64 0 0 0 0 15v3.8a9.72 9.72 0 0 0 3 7v40h9.4v.07h15.81v-.07h37.54V26A9.72 9.72 0 0 0 69 18.8V15a4.64 4.64 0 0 0-.78-2.42zm-10.41-9.5l7.84 11.08H52.11L48.81 3h8.81a.85.85 0 0 1 .19.08zM33 18.88a6.75 6.75 0 0 1-13.5 0v-1.73H33v1.73zm-13-4.73L23.31 3H33v11.15zm16 4.65v-1.65h13.5v1.65a6.75 6.75 0 0 1-13.5.09v-.09zm0-4.64V3h9.68L49 14.15zm-24.83-11a.91.91 0 0 1 .17-.16h8.84l-3.3 11.15H3.34zM3 17.15h13.5v1.74A6.75 6.75 0 0 1 3 18.8zm22.21 45.73H15.4V40.66h9.81zm37.54 0H28.21V37.66H12.4v25.22H6V27.81A9.72 9.72 0 0 0 18 24a9.72 9.72 0 0 0 16.5 0A9.72 9.72 0 0 0 51 24a9.7 9.7 0 0 0 11.75 3.92zm-3.5-37.33a6.76 6.76 0 0 1-6.75-6.75v-1.65H66v1.65a6.76 6.76 0 0 1-6.75 6.75z"/></svg>