<svg xmlns="http://www.w3.org/2000/svg" viewBox="0 0 18 18"><defs><style>.a{fill:#333740;}</style></defs><title>MOS icons NEW</title><path class="a" d="M8.19.34h7.08V7.42l-.17.26-7.51,7.5-.51.43-.51-.43L.43,9,0,8.53.43,8,7.93.51Zm.55,1.37L1.92,8.53l5.16,5.16,6.83-6.82V1.71ZM16,2.39H18V9.9l-.17.21-7.21,7.12-.47.43-.51-.43L8.36,15.87l.94-.94.85.85L16.64,9.3V3.75H16Zm-4.58.87a.73.73,0,0,1,1,0,.66.66,0,0,1,.19.49.64.64,0,0,1-.19.49.7.7,0,0,1-1,0,.64.64,0,0,1-.19-.49A.66.66,0,0,1,11.37,3.26Z"/></svg>