<svg xmlns="http://www.w3.org/2000/svg" viewBox="0 0 59.04 49.98"><path d="M53.63 0H5.41A5.42 5.42 0 0 0 0 5.41V33a5.42 5.42 0 0 0 5.41 5.41h13.78V50l18.14-11.56h16.3A5.42 5.42 0 0 0 59 33V5.41A5.42 5.42 0 0 0 53.63 0zm2.46 33a2.46 2.46 0 0 1-2.46 2.46H36.47L22.14 44.6v-9.12H5.41A2.46 2.46 0 0 1 3 33V5.41A2.46 2.46 0 0 1 5.41 3h48.22a2.46 2.46 0 0 1 2.46 2.46z"/><path d="M28.04 8.85h22.14v2.95H28.04zm0 8.86h22.14v2.95H28.04zM8.86 26.57h41.32v2.95H8.86zm3.02-3.42l5.25-2.76 5.25 2.76-1-5.84 4.25-4.14-5.87-.85L17.13 7l-2.63 5.31-5.87.85 4.25 4.14zM16.46 15l.66-1.35.67 1.35 1.48.22-1.07 1 .25 1.48-1.33-.7-1.33.7.25-1.48-1.07-1z"/></svg>