<svg xmlns="http://www.w3.org/2000/svg" viewBox="0 0 18 18"><defs><style>.a{fill:#333740;}</style></defs><title>MOS icons NEW</title><path class="a" d="M11.94,0l.51.47,5.12,5.1.43.52-.43.51a3.77,3.77,0,0,1-3.28,1l-2.43,2.47a5.31,5.31,0,0,1-1.41,5.1L10,15.7l-.51-.51L6.61,12.34.94,18H0v-.94L5.67,11.4,2.73,8.47,2.22,8l.51-.47A5.07,5.07,0,0,1,7.51,6l2.81-2.76A4.63,4.63,0,0,1,11.43.51Zm.13,2.09a3.3,3.3,0,0,0-.47,1.57v.25l-.17.22L8.27,7.28,8,7.53l-.39-.08a3.71,3.71,0,0,0-3.28.68L9.9,13.7A3.86,3.86,0,0,0,10.49,10l-.17-.38.34-.34,2.82-2.81.3-.3.38.13A2.57,2.57,0,0,0,16,6Z"/></svg>