<svg xmlns="http://www.w3.org/2000/svg" viewBox="0 0 18 18"><defs><style>.a{fill:#333740;}</style></defs><title>MOS icons NEW</title><path class="a" d="M4.41,0H17.62V12.52H14L8.71,17.8l-.24.2H8.13a2.25,2.25,0,0,1-1.59-.61A1.91,1.91,0,0,1,5.88,16a3.78,3.78,0,0,1,.73-2.35,2.83,2.83,0,0,1,.49-.49l.15-.59H2.75a2.25,2.25,0,0,1-1.84-.88,2.19,2.19,0,0,1-.46-2L2.16,1.86A2.14,2.14,0,0,1,3,.51,2.3,2.3,0,0,1,4.41,0Zm0,1.57a.71.71,0,0,0-.78.58L2,10a.93.93,0,0,0,.17.68.74.74,0,0,0,.62.3H9.3l-.29,1L8.57,13.7l-.1.29-.25.19a1.68,1.68,0,0,0-.39.3A2.6,2.6,0,0,0,7.44,16c0,.22.16.35.49.39l5-4.89V1.57Zm10.08,0V11h1.56V1.57Z"/></svg>