<svg xmlns="http://www.w3.org/2000/svg" viewBox="0 0 22.5 18"><path d="M0 0h13.5v3h4l.28.19 4.5 4.5.22.31v7.78h-2.34a3.1 3.1 0 0 1-1.08 1.62 3 3 0 0 1-3.66 0 3.1 3.1 0 0 1-1.08-1.62H8.16a3.1 3.1 0 0 1-1.08 1.62 2.86 2.86 0 0 1-1.83.6 2.86 2.86 0 0 1-1.83-.63 3.1 3.1 0 0 1-1.08-1.62H0V0zm1.5 1.5v12.75h.84a3.1 3.1 0 0 1 1.08-1.62A2.86 2.86 0 0 1 5.25 12a2.86 2.86 0 0 1 1.83.63 3.1 3.1 0 0 1 1.08 1.62H12V1.5zm4.8 12.45a1.47 1.47 0 0 0-2.11 0 1.5 1.5 0 0 0 1.06 2.55 1.49 1.49 0 0 0 1.05-2.55zm7.2-9.45v9.75h.84a3.1 3.1 0 0 1 1.08-1.62 3 3 0 0 1 3.66 0 3.1 3.1 0 0 1 1.08 1.62H21V8.58L16.92 4.5zm4.8 9.45a1.47 1.47 0 1 0 .45 1.05 1.44 1.44 0 0 0-.45-1.05z"/></svg>