<svg xmlns="http://www.w3.org/2000/svg" viewBox="0 0 18 14.63"><path d="M18 1.73a7.64 7.64 0 0 1-1.83 1.92v.47a10.24 10.24 0 0 1-.7 3.7 11.94 11.94 0 0 1-2 3.38 9.32 9.32 0 0 1-3.33 2.48 10.59 10.59 0 0 1-4.48.94A10.35 10.35 0 0 1 0 13a8.07 8.07 0 0 0 .89 0 7.21 7.21 0 0 0 4.59-1.59 3.42 3.42 0 0 1-2.16-.73A3.82 3.82 0 0 1 2 8.86a2.54 2.54 0 0 0 .7.09 3.41 3.41 0 0 0 1-.14 3.76 3.76 0 0 1-2.15-1.29A3.51 3.51 0 0 1 .7 5.2a4 4 0 0 0 1.69.47A3.55 3.55 0 0 1 .75 2.53 3.68 3.68 0 0 1 1.27.66a10 10 0 0 0 7.59 3.89 3.85 3.85 0 0 1-.09-.84 3.57 3.57 0 0 1 1.07-2.63A3.57 3.57 0 0 1 12.47 0a3.49 3.49 0 0 1 2.67 1.17 6.88 6.88 0 0 0 2.34-.89 3.54 3.54 0 0 1-1.59 2A8.43 8.43 0 0 0 18 1.73z"/></svg>