<svg xmlns="http://www.w3.org/2000/svg" viewBox="0 0 72.7 61.96"><path d="M72.69 59.06V48.84a13.13 13.13 0 0 0-13.08-13.15H56.7v-2.85A11.22 11.22 0 0 0 62.51 23v-2.16a4.35 4.35 0 0 0 1.41-7.38v-.88A12.55 12.55 0 0 0 51.42 0h-1.1a12.55 12.55 0 0 0-12.51 12.58v.92a4.35 4.35 0 0 0 1.47 7.34V23a11.22 11.22 0 0 0 5.82 9.84v2.85h-2.93a13.06 13.06 0 0 0-8.78 3.47V25.83a4.33 4.33 0 0 0 0-6.55v-.88A12.55 12.55 0 0 0 20.88 5.82h-1.1A12.55 12.55 0 0 0 7.27 18.4v.92a4.34 4.34 0 0 0 0 6.46V42.9A13.16 13.16 0 0 0 0 54.66V62h72.7v-2.9zM58.56 38.59l-3.43 3.83-2-1.72 2.6-2.11zm0-32.37A9.6 9.6 0 0 1 61 12.35h-1a3.21 3.21 0 0 1-3.17-2.81 14 14 0 0 0 1.75-3.32zm-8.25-3.3h1.1a9.45 9.45 0 0 1 4.76 1.32 11 11 0 0 1-2 4 10.84 10.84 0 0 1-8.53 4.13h-4.91a9.62 9.62 0 0 1 9.58-9.45zM42.16 23v-4.8h-1.45a1.47 1.47 0 0 1 0-2.95h4.95A13.68 13.68 0 0 0 54.58 12a6.09 6.09 0 0 0 5 3.27h1.45a1.47 1.47 0 0 1 0 2.95h-1.42V23a8.28 8.28 0 0 1-8.25 8.3h-1a8.28 8.28 0 0 1-8.2-8.3zM46 38.59l2.58 2.07-2.19 1.77-3.29-3.84zM19.78 8.74h1.11a9.62 9.62 0 0 1 9.58 9.43h-1a10.93 10.93 0 0 1-10.79-9.32 9.48 9.48 0 0 1 1.1-.11zm-3.92.86a13.82 13.82 0 0 0 1.06 3.4 5.31 5.31 0 0 1-5.28 5.15H10.2a9.64 9.64 0 0 1 5.65-8.54zm-5.68 11.47h1.45A8.2 8.2 0 0 0 19 16.31a13.74 13.74 0 0 0 10 4.75h1.45a1.47 1.47 0 0 1 0 2.95h-1.37v4.8a8.28 8.28 0 0 1-8.25 8.3h-1a8.28 8.28 0 0 1-8.25-8.3V24h-1.4a1.47 1.47 0 0 1 0-2.95zM17.44 40v-.26a11 11 0 0 0 2.43.28h1a11 11 0 0 0 2.43-.28v4.68h4.35v.94c0 2.7-4.18 6.42-7.27 8.5A30.73 30.73 0 0 1 16.69 51a8.75 8.75 0 0 0 .71-3c0-.17.05-.33.05-.5V40zm8.72 1.5v-2.84a11.24 11.24 0 0 0 4.32-4.25v7.42a13 13 0 0 0-2.85-.33zm-11.61-2.84v8.74a5.85 5.85 0 0 1-4.36 5.66V34.32a11.25 11.25 0 0 0 4.36 4.34zm23.27 20.4H2.9v-4.4a10.26 10.26 0 0 1 4.37-8.4v9.92h1.45a8.66 8.66 0 0 0 6.33-2.77 34.79 34.79 0 0 0 4.54 3.42l.76.47.76-.47c1-.6 9.42-6 9.42-11.48v-.51a10.25 10.25 0 0 1 7.28 9.82zm11.63 0H40.7v-4.4a13.17 13.17 0 0 0-6.93-11.6 10.33 10.33 0 0 1 5.85-4.12l6.44 7.53 3.39-2.75zM48 36.44v-2.51a11 11 0 0 0 2.43.28h1a11 11 0 0 0 2.44-.28v2.52l-2.9 2.35zm21.81 22.62H52.33V43.82l3 2.67 6.77-7.56a10.25 10.25 0 0 1 7.66 9.92z"/><path d="M53.8 25.44H48a2.91 2.91 0 1 0 5.82 0zm4.36 26.31h5.82v-2.9h-5.82v2.9zm-37.8-17.56a2.92 2.92 0 0 0 2.91-2.92h-5.82a2.92 2.92 0 0 0 2.91 2.92z"/></svg>