<svg xmlns="http://www.w3.org/2000/svg" viewBox="0 0 22.5 13.5"><path d="M2.81 1.31A4.34 4.34 0 0 1 6 0a4.34 4.34 0 0 1 3.19 1.31A4.34 4.34 0 0 1 10.5 4.5a4.29 4.29 0 0 1-1.87 3.66 5.85 5.85 0 0 1 2.63 2.44 5.85 5.85 0 0 1 2.63-2.44A4.29 4.29 0 0 1 12 4.5a4.34 4.34 0 0 1 1.31-3.19 4.53 4.53 0 0 1 6.38 0A4.34 4.34 0 0 1 21 4.5a4.29 4.29 0 0 1-1.87 3.66 5.94 5.94 0 0 1 2.46 2.18 5.76 5.76 0 0 1 .91 3.16H21A4.48 4.48 0 0 0 16.5 9a4.48 4.48 0 0 0-4.5 4.5h-1.5a4.34 4.34 0 0 0-1.31-3.19A4.34 4.34 0 0 0 6 9a4.34 4.34 0 0 0-3.19 1.31A4.34 4.34 0 0 0 1.5 13.5H0a5.76 5.76 0 0 1 .91-3.16 5.94 5.94 0 0 1 2.47-2.18A4.29 4.29 0 0 1 1.5 4.5a4.34 4.34 0 0 1 1.31-3.19zm5.32 1.06A2.9 2.9 0 0 0 6 1.5a3 3 0 0 0-3 3 3 3 0 0 0 3 3 3 3 0 0 0 3-3 2.9 2.9 0 0 0-.87-2.13zm10.5 0a3.06 3.06 0 0 0-4.27 0 2.9 2.9 0 0 0-.86 2.13 3 3 0 0 0 3 3 3 3 0 0 0 3-3 2.9 2.9 0 0 0-.87-2.13z"/></svg>