<svg xmlns="http://www.w3.org/2000/svg" viewBox="0 0 18 18"><defs><style>.a{fill:#333740;}</style></defs><title>MOS icons NEW</title><path class="a" d="M2.25,4.65A3.47,3.47,0,0,1,4.8,3.6,3.47,3.47,0,0,1,7.35,4.65,3.47,3.47,0,0,1,8.4,7.2a3.42,3.42,0,0,1-1.5,2.92,4.81,4.81,0,0,1,2.1,2,4.7,4.7,0,0,1,2.1-2A3.42,3.42,0,0,1,9.6,7.2a3.59,3.59,0,0,1,3.6-3.6,3.59,3.59,0,0,1,3.6,3.6,3.42,3.42,0,0,1-1.5,2.92,4.83,4.83,0,0,1,2,1.75A4.58,4.58,0,0,1,18,14.4H16.8a3.59,3.59,0,0,0-3.6-3.6,3.59,3.59,0,0,0-3.6,3.6H8.4a3.47,3.47,0,0,0-1.05-2.55,3.47,3.47,0,0,0-2.55-1,3.47,3.47,0,0,0-2.55,1,3.47,3.47,0,0,0-1,2.55H0a4.58,4.58,0,0,1,.73-2.53,4.77,4.77,0,0,1,2-1.75A3.42,3.42,0,0,1,1.2,7.2,3.47,3.47,0,0,1,2.25,4.65Zm4.26.84A2.35,2.35,0,0,0,4.8,4.8,2.36,2.36,0,0,0,2.4,7.2,2.36,2.36,0,0,0,4.8,9.6,2.36,2.36,0,0,0,7.2,7.2,2.34,2.34,0,0,0,6.51,5.49Zm8.4,0A2.4,2.4,0,0,0,10.8,7.2a2.4,2.4,0,1,0,4.8,0A2.34,2.34,0,0,0,14.91,5.49Z"/></svg>