<svg xmlns="http://www.w3.org/2000/svg" viewBox="0 0 15 16.5"><path d="M3.8 1.55A5.05 5.05 0 0 1 7.5 0a5.05 5.05 0 0 1 3.7 1.55 5.05 5.05 0 0 1 1.55 3.7 5.15 5.15 0 0 1-.63 2.48 5.08 5.08 0 0 1-1.71 1.88 7.6 7.6 0 0 1 3.33 2.74A7.19 7.19 0 0 1 15 16.5h-1.5a5.78 5.78 0 0 0-1.76-4.24A5.78 5.78 0 0 0 7.5 10.5a5.78 5.78 0 0 0-4.24 1.76A5.78 5.78 0 0 0 1.5 16.5H0a7.19 7.19 0 0 1 1.27-4.15 7.6 7.6 0 0 1 3.32-2.74 5.07 5.07 0 0 1-1.71-1.88 5.15 5.15 0 0 1-.63-2.48 5.05 5.05 0 0 1 1.55-3.7zm6.35 1.05A3.61 3.61 0 0 0 7.5 1.5a3.61 3.61 0 0 0-2.65 1.1 3.61 3.61 0 0 0-1.1 2.65 3.61 3.61 0 0 0 1.1 2.65A3.61 3.61 0 0 0 7.5 9a3.61 3.61 0 0 0 2.65-1.1 3.61 3.61 0 0 0 1.1-2.65 3.61 3.61 0 0 0-1.1-2.65z"/></svg>