<svg xmlns="http://www.w3.org/2000/svg" viewBox="0 0 60 60"><defs><style>.a{fill:#333740;}</style></defs><title>MOS icons NEW</title><path class="a" d="M22.24,13.53H25A4.19,4.19,0,0,1,29.14,9.4h0V6.64h0A4.2,4.2,0,0,1,25,2.5H22.24A4.2,4.2,0,0,1,18.1,6.64h0V9.22h0A4.36,4.36,0,0,1,22.24,13.53Zm1.38-7.06A6.86,6.86,0,0,0,25.17,8a6.66,6.66,0,0,0-1.55,1.55A6.3,6.3,0,0,0,22.07,8,6.66,6.66,0,0,0,23.62,6.47Z"/><path class="a" d="M0,50.6l6.9,6.9L33.62,30.78h0l1.9-1.9,9.82-9.83-6.89-6.89Zm6.9,2.93L4,50.6,28.79,25.78l2.93,2.93ZM33.62,26.81l-2.93-2.93L38.62,16l2.93,2.93Z"/><polygon class="a" points="57.24 6.47 57.24 3.71 54.48 3.71 54.48 3.71 54.48 3.71 54.48 6.47 51.72 6.47 51.72 9.22 54.48 9.22 54.48 12.15 57.24 12.15 57.24 9.22 60 9.22 60 6.47 57.24 6.47"/><path class="a" d="M51.72,28.71a4.48,4.48,0,1,0,0,9,4.57,4.57,0,0,0,4.49-4.48A4.45,4.45,0,0,0,51.72,28.71Zm0,6.2a1.72,1.72,0,0,1,0-3.44,1.85,1.85,0,0,1,1.73,1.72A1.73,1.73,0,0,1,51.72,34.91Z"/></svg>