<svg xmlns="http://www.w3.org/2000/svg" viewBox="0 0 60 55"><path d="M22.24 11H25a4.2 4.2 0 0 1 4.14-4.1V4.14A4.2 4.2 0 0 1 25 0h-2.76a4.2 4.2 0 0 1-4.14 4.14v2.58A4.35 4.35 0 0 1 22.24 11zm1.38-7a6.58 6.58 0 0 0 1.55 1.55 6.58 6.58 0 0 0-1.55 1.55 6.58 6.58 0 0 0-1.55-1.55A6.58 6.58 0 0 0 23.62 4zM0 48.1L6.9 55l26.72-26.72 1.9-1.9 9.83-9.83-6.9-6.9zM6.9 51L4 48.1l24.79-24.82 2.93 2.93zm26.72-26.69l-2.93-2.93 7.93-7.93 2.93 2.93zM57.24 3.97V1.21h-2.76v2.76h-2.76v2.75h2.76v2.93h2.76V6.72H60V3.97h-2.76zm-5.52 22.24a4.48 4.48 0 0 0 0 9 4.56 4.56 0 0 0 4.48-4.48 4.45 4.45 0 0 0-4.48-4.52zm0 6.21a1.72 1.72 0 0 1 0-3.45 1.85 1.85 0 0 1 1.72 1.72 1.73 1.73 0 0 1-1.72 1.72z"/></svg>