<svg xmlns="http://www.w3.org/2000/svg" viewBox="0 0 18 18"><defs><style>.a{fill:#333740;}</style></defs><title>MOS icons NEW</title><path class="a" d="M15.3,2.85a2.55,2.55,0,0,1,1.81.77,3.15,3.15,0,0,1,.71,1.78A24.55,24.55,0,0,1,18,8.32V9.68a24.55,24.55,0,0,1-.18,2.92,3.19,3.19,0,0,1-.71,1.78,2.57,2.57,0,0,1-1.81.76s-2.51.19-6.3.19c-4.68,0-6.12-.18-6.12-.18a3,3,0,0,1-2-.77A3.19,3.19,0,0,1,.18,12.6,24.55,24.55,0,0,1,0,9.68V8.32A24.55,24.55,0,0,1,.18,5.4,3.15,3.15,0,0,1,.89,3.62,2.55,2.55,0,0,1,2.7,2.85S5.21,2.67,9,2.67,15.3,2.85,15.3,2.85Zm-3.3,6L7.14,6.28v5.05Z"/></svg>