<svg xmlns="http://www.w3.org/2000/svg" viewBox="0 0 19.31 19.31"><path d="M15 7.5a7.26 7.26 0 0 1-1.69 4.73l6 6-1.12 1.13-6-6A7.26 7.26 0 0 1 7.5 15a7.22 7.22 0 0 1-5.3-2.2A7.22 7.22 0 0 1 0 7.5a7.22 7.22 0 0 1 2.2-5.3A7.22 7.22 0 0 1 7.5 0a7.22 7.22 0 0 1 5.3 2.2A7.22 7.22 0 0 1 15 7.5zm-13.5 0a5.78 5.78 0 0 0 1.76 4.24A5.78 5.78 0 0 0 7.5 13.5a5.78 5.78 0 0 0 4.24-1.76A5.78 5.78 0 0 0 13.5 7.5a5.78 5.78 0 0 0-1.76-4.24A5.78 5.78 0 0 0 7.5 1.5a5.78 5.78 0 0 0-4.24 1.76A5.78 5.78 0 0 0 1.5 7.5zm6.75-.75h2.25v1.5H8.25v2.25h-1.5V8.25H4.5v-1.5h2.25V4.5h1.5z"/></svg>