<svg xmlns="http://www.w3.org/2000/svg" viewBox="0 0 18 18"><defs><style>.a{fill:#333740;}</style></defs><title>MOS icons NEW</title><path class="a" d="M2.64,2.64A8.67,8.67,0,0,1,9,0a8.67,8.67,0,0,1,6.36,2.64A8.67,8.67,0,0,1,18,9a8.67,8.67,0,0,1-2.64,6.36A8.67,8.67,0,0,1,9,18a8.67,8.67,0,0,1-6.36-2.64A8.67,8.67,0,0,1,0,9,8.67,8.67,0,0,1,2.64,2.64ZM3.2,4.07A7.34,7.34,0,0,0,1.38,9a7.37,7.37,0,0,0,2.23,5.39A7.37,7.37,0,0,0,9,16.62a7.44,7.44,0,0,0,4.85-1.74ZM9,1.38A7.44,7.44,0,0,0,4.15,3.12L14.8,13.93A7.34,7.34,0,0,0,16.62,9a7.37,7.37,0,0,0-2.23-5.39A7.37,7.37,0,0,0,9,1.38Z"/></svg>