<svg xmlns="http://www.w3.org/2000/svg" viewBox="0 0 18 18"><defs><style>.a{fill:#333740;}</style></defs><title>MOS icons NEW</title><path class="a" d="M8,.41,8.44,0H9a1.34,1.34,0,0,1,1,.41,1.32,1.32,0,0,1,.41,1v.18a5.32,5.32,0,0,1,3,2A5.7,5.7,0,0,1,14.54,7.1v6.05a.61.61,0,0,0,.69.7h.69v1.38H11a2.1,2.1,0,0,1,.13.69A2.08,2.08,0,0,1,9,18a2.08,2.08,0,0,1-2.08-2.08,2.1,2.1,0,0,1,.13-.69h-5V13.85h.69a.61.61,0,0,0,.69-.7V6.92A5.29,5.29,0,0,1,4.65,3.53a5.52,5.52,0,0,1,3-2V1.38A1.32,1.32,0,0,1,8,.41ZM8.7,2.77A4.09,4.09,0,0,0,6,4.09a4,4,0,0,0-1.1,2.83v6.23a2.11,2.11,0,0,1-.13.7h8.56a2.11,2.11,0,0,1-.13-.7V7.1a4.33,4.33,0,0,0-1.16-3A3.89,3.89,0,0,0,9.13,2.77H8.7Zm1,13.15A.61.61,0,0,0,9,15.23a.61.61,0,0,0-.69.69.62.62,0,0,0,.69.7A.62.62,0,0,0,9.69,15.92Z"/></svg>