<svg xmlns="http://www.w3.org/2000/svg" viewBox="0 0 18 18"><defs><style>.a{fill:#333740;}</style></defs><title>MOS icons NEW</title><path class="a" d="M1,0,4.83,3.89a7.56,7.56,0,0,1,.53-.62A4.88,4.88,0,0,1,7.69,2V1.8A1.26,1.26,0,0,1,8.08.88a1.28,1.28,0,0,1,1.84,0,1.26,1.26,0,0,1,.39.92V2a5.41,5.41,0,0,1,2.8,2A5.23,5.23,0,0,1,14.24,7.2v5.73a.66.66,0,0,0,.18.47.64.64,0,0,0,.47.18h.66v1L18,17l-1,1L0,1ZM3.76,6.55,5.07,7.81v5.12a1.87,1.87,0,0,1-.12.65h5.89l1.31,1.31H10.84a1.95,1.95,0,0,1-.45,2.05,2,2,0,0,1-2.78,0,1.95,1.95,0,0,1-.45-2.05H2.45V13.58h.66a.64.64,0,0,0,.47-.18.66.66,0,0,0,.18-.47V6.55Zm5-3.44a3.64,3.64,0,0,0-2.45,1.1,4.31,4.31,0,0,0-.49.62L12.93,12V7.2A4,4,0,0,0,11.8,4.36,3.67,3.67,0,0,0,9.12,3.11Zm.94,12.44A.58.58,0,0,0,9,14.89a.58.58,0,0,0-.65.66A.57.57,0,0,0,9,16.2.57.57,0,0,0,9.65,15.55Z"/></svg>