<svg xmlns="http://www.w3.org/2000/svg" viewBox="0 0 18 18"><defs><style>.a{fill:#333740;}</style></defs><title>MOS icons NEW</title><path class="a" d="M4.85,1A11.15,11.15,0,0,1,9,1.86a10.81,10.81,0,0,1,6.25-.61A9.31,9.31,0,0,1,17,1.73l.61.22.43.21V16.27H10.21a1.41,1.41,0,0,1-2.42,0H0V2.16L.43,2A11.29,11.29,0,0,1,4.85,1Zm0,1.38a9.83,9.83,0,0,0-3.47.7V14.28a11.14,11.14,0,0,1,3.47-.61,11.08,11.08,0,0,1,3.46.61V3.12A10.31,10.31,0,0,0,4.85,2.42Zm8.3,0a10.31,10.31,0,0,0-3.46.7V14.28a11.08,11.08,0,0,1,3.46-.61,11.14,11.14,0,0,1,3.47.61V3.12A9.83,9.83,0,0,0,13.15,2.42Z"/></svg>