<svg xmlns="http://www.w3.org/2000/svg" viewBox="0 0 60 60"><defs><style>.a{fill:#333740;}</style></defs><title>MOS icons NEW</title><path class="a" d="M12,42H27V31.33h3V21H21v1.5a1.5,1.5,0,0,1-3,0V21H9V31.33h3Zm0-18h3.25a4.5,4.5,0,0,0,8.49,0H27v4.33H24V39H15V28.33H12Z"/><path class="a" d="M54.5,0H5.5A5.51,5.51,0,0,0,0,5.5v49A5.51,5.51,0,0,0,5.5,60h49A5.51,5.51,0,0,0,60,54.5V5.5A5.51,5.51,0,0,0,54.5,0ZM57,54.5A2.5,2.5,0,0,1,54.5,57H5.5A2.5,2.5,0,0,1,3,54.5V15H57ZM57,12H3V5.5A2.5,2.5,0,0,1,5.5,3h49A2.5,2.5,0,0,1,57,5.5Z"/><rect class="a" x="36.02" y="21" width="14.98" height="3"/><rect class="a" x="36.02" y="30" width="14.98" height="3"/><rect class="a" x="36.02" y="39" width="14.98" height="3"/><rect class="a" x="9.02" y="48" width="41.98" height="3"/><rect class="a" x="6" y="6" width="3" height="3"/><rect class="a" x="12" y="6" width="3" height="3"/><rect class="a" x="51" y="6" width="3" height="3"/></svg>