<svg xmlns="http://www.w3.org/2000/svg" viewBox="0 0 18 18"><defs><style>.a{fill:#333740;}</style></defs><title>MOS icons NEW</title><path class="a" d="M15.38,2.62A8.74,8.74,0,0,0,9,0,8.72,8.72,0,0,0,2.62,2.62,8.7,8.7,0,0,0,0,9a8.7,8.7,0,0,0,2.62,6.38A8.72,8.72,0,0,0,9,18a8.74,8.74,0,0,0,6.38-2.62A8.74,8.74,0,0,0,18,9,8.74,8.74,0,0,0,15.38,2.62ZM3.7,3.7A7.23,7.23,0,0,1,9,1.5a7.23,7.23,0,0,1,5.3,2.2A7.23,7.23,0,0,1,16.5,9a7.23,7.23,0,0,1-2.2,5.3A7.23,7.23,0,0,1,9,16.5a7.23,7.23,0,0,1-5.3-2.2A7.23,7.23,0,0,1,1.5,9,7.23,7.23,0,0,1,3.7,3.7Zm9.54,1.06A5.78,5.78,0,0,0,9,3,5.78,5.78,0,0,0,4.76,4.76,5.78,5.78,0,0,0,3,9a5.78,5.78,0,0,0,1.76,4.24A5.78,5.78,0,0,0,9,15a5.78,5.78,0,0,0,4.24-1.76A5.78,5.78,0,0,0,15,9,5.78,5.78,0,0,0,13.24,4.76Zm-7.43,1A4.37,4.37,0,0,1,9,4.5,4.47,4.47,0,0,1,13.5,9,4.47,4.47,0,0,1,9,13.5,4.47,4.47,0,0,1,4.5,9,4.37,4.37,0,0,1,5.81,5.81Zm5.32,1.06A2.9,2.9,0,0,0,9,6,3,3,0,0,0,6,9a3,3,0,0,0,3,3,3,3,0,0,0,3-3A2.9,2.9,0,0,0,11.13,6.87ZM8,8a1.45,1.45,0,0,1,2.1,0,1.45,1.45,0,0,1,0,2.1,1.45,1.45,0,0,1-2.1,0A1.45,1.45,0,0,1,8,8Z"/></svg>