<svg xmlns="http://www.w3.org/2000/svg" viewBox="0 0 60 60"><defs><style>.a{fill:#333740;}</style></defs><title>MOS icons NEW</title><path class="a" d="M49.71,27.69A23.52,23.52,0,1,1,26.28,6.49a23.93,23.93,0,0,1,4.61.45,23.66,23.66,0,0,1,6.52,2.34L40,7.56A26.31,26.31,0,1,0,52.28,26Z"/><path class="a" d="M35.8,31.91a9.71,9.71,0,0,1-9.49,7.8,9.42,9.42,0,0,1-1.9-.19,9.69,9.69,0,0,1,1.88-19.19,9.42,9.42,0,0,1,1.9.19,9.62,9.62,0,0,1,5.3,3l-6,4a3,3,0,0,0-.68-.24,3.29,3.29,0,0,0-.54-.05,2.77,2.77,0,0,0-.54,5.48,2.57,2.57,0,0,0,.55.06A2.77,2.77,0,0,0,29,30.56a2.9,2.9,0,0,0,0-.72l6-4a9.61,9.61,0,0,1,.77,6.06m15.58-17,3.68,2.53L48.34,22l-3.69-2.53Zm-9.19-2.18,6.72-4.5.93,4.38-6.73,4.49ZM28.73,17.8a12.45,12.45,0,0,0-4.86,24.43,11.89,11.89,0,0,0,2.44.25,12.44,12.44,0,0,0,11-18.18l2.34-1.56,2.48-1.66,6.15,4.22L60,17.49l-7.38-5.06L50.77,3.68,39.09,11.49l1.54,7.29-2.48,1.66L35.82,22a12.45,12.45,0,0,0-7.09-4.2"/></svg>