<svg xmlns="http://www.w3.org/2000/svg" viewBox="0 0 18 18"><defs><style>.a{fill:#333740;}</style></defs><title>MOS icons NEW</title><path class="a" d="M3.52,0H5.09V.78h7.82V0h1.57V.78h3.13V18H.39V.78H3.52ZM2,2.35V3.91H16V2.35H14.48v.78H12.91V2.35H5.09v.78H3.52V2.35ZM2,5.48v11H16V5.48Zm1.56,4.69H5.09v1.57H3.52Zm0,3.13H5.09v1.57H3.52ZM6.65,7H8.22V8.61H6.65Zm0,3.13H8.22v1.57H6.65Zm0,3.13H8.22v1.57H6.65ZM9.78,7h1.57V8.61H9.78Zm0,3.13h1.57v1.57H9.78Zm0,3.13h1.57v1.57H9.78ZM12.91,7h1.57V8.61H12.91Zm0,3.13h1.57v1.57H12.91Z"/></svg>