<svg xmlns="http://www.w3.org/2000/svg" viewBox="0 0 18 18"><defs><style>.a{fill:#333740;}</style></defs><title>MOS icons NEW</title><path class="a" d="M5.88,2.08h6.24l.21.26.82,1.12H18V15.92H0V3.46H1.38V2.77H4.15v.69h.7l.82-1.12Zm.7,1.38L5.75,4.59l-.21.26H1.38V7.62h4A3.9,3.9,0,0,1,9,5.54a3.9,3.9,0,0,1,3.59,2.08h4V4.85H12.46l-.21-.26-.83-1.13ZM1.38,9v5.54H16.62V9H13.07a3.75,3.75,0,0,1,.08.69,4,4,0,0,1-1.21,2.94A4,4,0,0,1,9,13.85a4,4,0,0,1-2.94-1.22A4,4,0,0,1,4.85,9.69,3.75,3.75,0,0,1,4.93,9ZM11,7.72a2.68,2.68,0,0,0-2-.8A2.73,2.73,0,0,0,6.23,9.69,2.73,2.73,0,0,0,9,12.46a2.73,2.73,0,0,0,2.77-2.77A2.7,2.7,0,0,0,11,7.72Zm2.88-2.18h1.38V6.92H13.85Z"/></svg>