<svg xmlns="http://www.w3.org/2000/svg" viewBox="0 0 18 18"><defs><style>.a{fill:#333740;}</style></defs><title>MOS icons NEW</title><path class="a" d="M.76,1.42h1.7a1.47,1.47,0,0,1,.93.31,1.29,1.29,0,0,1,.49.83l2,8h8.72L16,5.21H5.68L5.31,3.69H18l-2,7.2a1.26,1.26,0,0,1-.5.83,1.44,1.44,0,0,1-.92.31H5.87A1.46,1.46,0,0,1,5,11.72a1.3,1.3,0,0,1-.5-.83l-2-8H.76a.74.74,0,0,1-.55-.22A.73.73,0,0,1,0,2.18a.77.77,0,0,1,.21-.55A.77.77,0,0,1,.76,1.42ZM5.21,12.69A2.2,2.2,0,0,1,6.82,12a2.2,2.2,0,0,1,1.61.66,2.31,2.31,0,0,1,0,3.23,2.2,2.2,0,0,1-1.61.66,2.25,2.25,0,0,1-2.27-2.27A2.22,2.22,0,0,1,5.21,12.69Zm2.37,1.62a.67.67,0,0,0-.76-.76.67.67,0,0,0-.76.76.67.67,0,0,0,.76.75A.67.67,0,0,0,7.58,14.31ZM12,12.69a2.29,2.29,0,0,1,3.22,0,2.28,2.28,0,0,1,0,3.23,2.27,2.27,0,0,1-3.88-1.61A2.22,2.22,0,0,1,12,12.69Zm2.37,1.62a.67.67,0,0,0-.76-.76.67.67,0,0,0-.76.76.67.67,0,0,0,.76.75A.67.67,0,0,0,14.4,14.31Z"/></svg>