<svg xmlns="http://www.w3.org/2000/svg" viewBox="0 0 60 60"><defs><style>.a{fill:#333740;}</style></defs><title>MOS icons NEW</title><path class="a" d="M11.19,7l-.4-2.35,0-.17C10.28,2.75,9,.58,5.29.2H0V4H5c1.52.18,1.85.75,2,1.39l6.17,35.92c.26,1.76,1.31,4,4.85,4.44l35.46,0V42H18.43c-1.2-.19-1.35-.57-1.44-1.22l-1-5.88,34.9-2.59H51a6.1,6.1,0,0,0,5.44-4.56L60,7.05ZM52.66,26.86a2.35,2.35,0,0,1-2.12,1.58L15.32,31.05,11.85,10.87l43.58,0Z"/><path class="a" d="M20.69,47.52a6.15,6.15,0,1,0,6.15,6.14A6.16,6.16,0,0,0,20.69,47.52Zm0,8.45A2.31,2.31,0,1,1,23,53.66,2.3,2.3,0,0,1,20.69,56Z"/><path class="a" d="M46.25,47.52a6.15,6.15,0,1,0,6.14,6.14A6.16,6.16,0,0,0,46.25,47.52Zm0,8.45a2.31,2.31,0,1,1,2.3-2.31A2.31,2.31,0,0,1,46.25,56Z"/></svg>