<svg xmlns="http://www.w3.org/2000/svg" viewBox="0 0 18 18"><defs><style>.a{fill:#333740;}</style></defs><title>MOS icons NEW</title><path class="a" d="M.73,1.73H2.36A1.46,1.46,0,0,1,3.25,2a1.24,1.24,0,0,1,.48.8l1.91,7.63h9.09l1.72-6.54H18l-1.91,6.91a1.21,1.21,0,0,1-.48.79,1.38,1.38,0,0,1-.88.3H5.64a1.41,1.41,0,0,1-.89-.3,1.21,1.21,0,0,1-.48-.79L2.36,3.18H.73A.76.76,0,0,1,.2,3,.74.74,0,0,1,0,2.45a.73.73,0,0,1,.2-.52A.76.76,0,0,1,.73,1.73Zm5,10.82a2.08,2.08,0,0,1,1.54-.64,2.17,2.17,0,0,1,2.18,2.18,2.15,2.15,0,0,1-2.18,2.18,2.17,2.17,0,0,1-2.18-2.18A2.06,2.06,0,0,1,5.73,12.55ZM8,14.09a.65.65,0,0,0-.73-.73.64.64,0,0,0-.72.73.64.64,0,0,0,.72.73A.64.64,0,0,0,8,14.09ZM9.45,1.73h1.46V3.91h2.18V5.36H10.91V7.55H9.45V5.36H7.27V3.91H9.45Zm2.82,10.82a2.1,2.1,0,0,1,1.55-.64A2.19,2.19,0,0,1,16,14.09a2.17,2.17,0,0,1-2.18,2.18,2.15,2.15,0,0,1-2.18-2.18A2.09,2.09,0,0,1,12.27,12.55Zm2.28,1.54a.65.65,0,0,0-.73-.73.65.65,0,0,0-.73.73.64.64,0,0,0,.73.73A.65.65,0,0,0,14.55,14.09Z"/></svg>