<svg xmlns="http://www.w3.org/2000/svg" viewBox="0 0 18 18"><defs><style>.a{fill:#333740;}</style></defs><title>MOS icons NEW</title><path class="a" d="M8.35,0H9a1.93,1.93,0,0,1,1.21.43l1.17.78,1.3.17h0A2,2,0,0,1,13.87,2a2,2,0,0,1,.58,1.15V3.2l.26,1.3.78,1.12a2.07,2.07,0,0,1,0,2.51h0L14.71,9.3l-.17,1.3,2.16,3.29L17.39,15H14.11l-.78,1.82L12.81,18l-.69-1.08L9.91,13.63a2.22,2.22,0,0,1-1.82,0L5.88,16.92,5.19,18l-.52-1.21L3.89,15H.61l.69-1.08,2.25-3.42L3.29,9.3,2.51,8.13a2.07,2.07,0,0,1,0-2.51h0l.78-1L3.46,3.2A2.5,2.5,0,0,1,4.11,2a2.59,2.59,0,0,1,1.17-.65l1.34-.17L7.79.43ZM4.24,11.94,3.16,13.59H4.85L5,14l.43,1.08,1.47-2.21-.26-.26-1.34-.17h0A1.79,1.79,0,0,1,4.24,11.94Zm5-10.56H9a.57.57,0,0,0-.43.18l-1.21.86-.18.09L7,2.55l-1.47.22a.85.85,0,0,0-.69.69L4.63,4.93l0,.18-.09.17L3.63,6.4a.75.75,0,0,0,0,1L4.5,8.57l.09.17,0,.17.3,1.56v0a.43.43,0,0,0,.09.26.54.54,0,0,0,.43.31h0L7,11.29l.17.05.18.08,1.12.87a.74.74,0,0,0,.95,0l1.21-.87.18-.08.17-.05,1.56-.3h0a.48.48,0,0,0,.39-.17v-.05l.09,0a.52.52,0,0,0,.08-.26v0l.22-1.52,0-.17.09-.17.87-1.21a.75.75,0,0,0,0-1L13.5,5.19l-.09-.13,0-.13-.3-1.55v0a.54.54,0,0,0-.52-.56H12.5L11,2.55l-.17,0-.18-.09L9.43,1.56Zm4.5,10.56a2.12,2.12,0,0,1-.95.44h-.09l-1.34.25-.3.22,1.47,2.25L13,14l.17-.43h1.69Z"/></svg>