<svg xmlns="http://www.w3.org/2000/svg" viewBox="0 0 18 18"><defs><style>.a{fill:#333740;}</style></defs><title>MOS icons NEW</title><path class="a" d="M16.77,2.58l-8.2,8.21L5.51,7.73,4.42,8.83,8.57,13l9.29-9.3Zm-.63,4.2h0l.08-.08Z"/><path class="a" d="M18,9V9a9.07,9.07,0,1,1-2.66-6.35l-1.1,1.09a7.41,7.41,0,0,0-10.52,0,7.48,7.48,0,0,0,0,10.56A7.4,7.4,0,0,0,9,16.46a7.55,7.55,0,0,0,5.29-2.18,7.46,7.46,0,0,0,2.2-5.23V9s0-.38,0-.84a5.18,5.18,0,0,0-.23-1.27l0-.1.08-.08,1-1a2.22,2.22,0,0,1,.5,1,7.82,7.82,0,0,1,.18,1C18,8.29,18,8.78,18,9Z"/></svg>