<svg xmlns="http://www.w3.org/2000/svg" viewBox="0 0 18 18"><defs><style>.a{fill:#333740;}</style></defs><title>MOS icons NEW</title><path class="a" d="M2.65,2.65A8.63,8.63,0,0,1,9,0a8.63,8.63,0,0,1,6.35,2.65A8.63,8.63,0,0,1,18,9a8.63,8.63,0,0,1-2.65,6.35A8.63,8.63,0,0,1,9,18a8.63,8.63,0,0,1-6.35-2.65A8.63,8.63,0,0,1,0,9,8.63,8.63,0,0,1,2.65,2.65ZM14.3,3.7A7.23,7.23,0,0,0,9,1.5,7.23,7.23,0,0,0,3.7,3.7,7.23,7.23,0,0,0,1.5,9a7.23,7.23,0,0,0,2.2,5.3A7.23,7.23,0,0,0,9,16.5a7.23,7.23,0,0,0,5.3-2.2A7.23,7.23,0,0,0,16.5,9,7.23,7.23,0,0,0,14.3,3.7ZM8.25,3h1.5V8.25H13.5v1.5H8.25V3Z"/></svg>