<svg xmlns="http://www.w3.org/2000/svg" viewBox="0 0 60 60"><defs><style>.a{fill:#333740;}</style></defs><title>MOS icons NEW</title><path class="a" d="M26.08,23.2c0-.08,0-.16,0-.23v-5L17.18,3.12,8,17.93V50.8H8v4.83a4.27,4.27,0,0,0,4.25,4.27h9.61a4.27,4.27,0,0,0,4.25-4.27V50.8h0V23.2Zm-7.76-.05a2.77,2.77,0,0,1,2.59-2.87,2.74,2.74,0,0,1,2.57,2.79V45.6H18.33V23.2A.43.43,0,0,0,18.32,23.15ZM17.14,8.09,18.88,11H15.33Zm-3.42,5.5h6.72l2.82,4.7a4.87,4.87,0,0,0-2.35-.61A5,5,0,0,0,17,19.56a5,5,0,0,0-3.88-1.88,4.87,4.87,0,0,0-2.35.61ZM10.56,23.2h0a2.77,2.77,0,0,1,2.58-2.92,2.76,2.76,0,0,1,2.59,2.87.43.43,0,0,0,0,.05h0V45.6H10.56ZM23.49,55.63a1.66,1.66,0,0,1-1.66,1.67H12.22a1.66,1.66,0,0,1-1.66-1.67V53.4H23.49Zm0-4.83H10.56V48.2H23.48v2.6Z"/><path class="a" d="M33.73,0V60H52V0ZM49.25,57.2H36.51V50.8h5.08V48.2H36.51V43.05h5.08v-2.6H36.51V35.2H40.3V32.6H36.51V27.45h5.08v-2.6H36.51V19.6h5.08V17H36.51V11.86h5.08V9.26H36.51V2.8H49.25Z"/></svg>