<svg xmlns="http://www.w3.org/2000/svg" viewBox="0 0 60 60"><defs><style>.a{fill:#333740;}</style></defs><title>MOS icons NEW</title><polygon class="a" points="30.3 16.99 30.3 46.45 31.72 47.88 33.15 46.45 33.15 16.99 31.72 15.57 30.3 16.99"/><path class="a" d="M41.82,25.67l-6.06,6,6.06,6.06,6.06-6.06Zm-2,6,2-2,2,2-2,2Z"/><path class="a" d="M15.57,31.72l6.05,6.06,6.06-6.06-6.06-6Zm6.05,2-2-2,2-2,2,2Z"/><path class="a" d="M28.28,0H0V28.28L31.72,60,60,31.72ZM2.86,27.09V2.86H27.09L56,31.72,31.72,56Z"/><path class="a" d="M11.39,7.18a4.21,4.21,0,1,0,4.21,4.21A4.22,4.22,0,0,0,11.39,7.18Zm0,5.57a1.36,1.36,0,1,1,1.36-1.36A1.36,1.36,0,0,1,11.39,12.75Z"/></svg>