<svg xmlns="http://www.w3.org/2000/svg" viewBox="0 0 18 18"><defs><style>.a{fill:#333740;}</style></defs><title>MOS icons NEW</title><polygon class="a" points="18 0 18 6.75 16.5 6.75 16.5 2.56 12.35 6.71 11.29 5.65 15.44 1.5 11.25 1.5 11.25 0 18 0"/><polygon class="a" points="6.76 16.5 6.76 18 0 18 0 11.25 1.5 11.25 1.5 15.45 5.66 11.29 6.72 12.35 2.57 16.5 6.76 16.5"/><polygon class="a" points="6.76 1.5 2.56 1.5 6.71 5.65 5.65 6.71 1.51 2.57 1.51 6.75 0.01 6.75 0.01 0 6.76 0 6.76 1.5"/><polygon class="a" points="18 11.25 18 18 11.25 18 11.25 16.5 15.44 16.5 11.29 12.35 12.35 11.29 16.5 15.44 16.5 11.25 18 11.25"/></svg>