<svg xmlns="http://www.w3.org/2000/svg" viewBox="0 0 18 18"><defs><style>.a{fill:#333740;}</style></defs><title>MOS icons NEW</title><path class="a" d="M3.5,6,5,7.5a4.22,4.22,0,0,0-.1.91,3.92,3.92,0,0,0,1,2.73,4,4,0,0,0,2.61,1.34l0,0H9.4l.07,0,.47-.08,1,1a6.14,6.14,0,0,1-1.39.26h0l-.51,0-.51,0h0a8.62,8.62,0,0,1-2.39-.55,13.72,13.72,0,0,1-2.16-1,16,16,0,0,1-1.78-1.21c-.58-.45-1-.77-1.2-1L.36,9.44,0,9l.37-.41A13.06,13.06,0,0,1,3.5,6ZM1.82,1l3.95,4A9.58,9.58,0,0,1,9,4.32a8.92,8.92,0,0,1,2.78.44,10.74,10.74,0,0,1,2.34,1A15.39,15.39,0,0,1,15.94,7a12.68,12.68,0,0,1,1.19,1c.21.21.37.4.5.54L18,9l-.36.4a17.64,17.64,0,0,1-4.32,3L17,16.17l-.88.88-4-4-1.07-1.09-1.82-1.8-2-2L5.48,6.29,4.6,5.41.94,1.83ZM3.87,7.17A13.18,13.18,0,0,0,1.6,9a17.48,17.48,0,0,0,2.82,2,5.15,5.15,0,0,1-.7-2.6A5.59,5.59,0,0,1,3.87,7.17ZM9,5.49a8,8,0,0,0-2.3.36L7.9,7.06a1.74,1.74,0,0,1,2.85,1.35,1.79,1.79,0,0,1-.4,1.1L12,11.2a4.05,4.05,0,0,0,1.1-2.79,4,4,0,0,0-.62-2.12A8.39,8.39,0,0,0,9,5.49ZM9,7.83a.53.53,0,0,0-.25.07l.76.77a.59.59,0,0,0,.08-.26A.57.57,0,0,0,9.41,8,.57.57,0,0,0,9,7.83Zm5.12-.66a5.59,5.59,0,0,1,.15,1.24,5.14,5.14,0,0,1-.69,2.6,17.26,17.26,0,0,0,2.78-2A11.83,11.83,0,0,0,14.11,7.17Z"/></svg>