<svg xmlns="http://www.w3.org/2000/svg" viewBox="0 0 18 18"><defs><style>.a{fill:#333740;}</style></defs><title>MOS icons NEW</title><path class="a" d="M15.06,0a2.82,2.82,0,0,1,2.09.87A2.89,2.89,0,0,1,18,3,2.81,2.81,0,0,1,17.15,5L15.18,7l.69.69-.94,1-.68-.69L7.76,14.42a9.19,9.19,0,0,1-1.7,1.36,3.78,3.78,0,0,1-1.2.43,1.87,1.87,0,0,0-.68.21,5.75,5.75,0,0,0-1.36,1.15L2.3,18l-.51-.43L.43,16.21,0,15.7l.43-.52a7.13,7.13,0,0,0,1.19-1.36,2.56,2.56,0,0,0,.26-.77,3.14,3.14,0,0,1,.34-1.11,7.57,7.57,0,0,1,1.36-1.7l6.49-6.49-.69-.68,1-.94.69.69L13,.85A2.83,2.83,0,0,1,15.06,0Zm-4,4.69L4.56,11.18a9,9,0,0,0-1.15,1.4,4.34,4.34,0,0,0-.21.73,4.08,4.08,0,0,1-.38,1.15,8.72,8.72,0,0,1-.94,1.15l.51.51a13.62,13.62,0,0,1,1.11-.94,5.28,5.28,0,0,1,1.15-.34,2.25,2.25,0,0,0,.72-.25,7.28,7.28,0,0,0,1.45-1.15L13.31,7Zm4-3.33a1.46,1.46,0,0,0-1.1.52L12,3.75,14.25,6l1.87-1.88A1.46,1.46,0,0,0,16.64,3a1.58,1.58,0,0,0-.47-1.13A1.55,1.55,0,0,0,15,1.36Z"/></svg>