<svg xmlns="http://www.w3.org/2000/svg" viewBox="0 0 18 18"><defs><style>.a{fill:#333740;}</style></defs><title>MOS icons NEW</title><path class="a" d="M2.08,0H15.92V18H2.08V0ZM3.46,1.38V16.62H14.54V1.38Zm6.92,4.85h2.77V7.62H11.77v3.11a1.67,1.67,0,0,1-.5,1.23,1.64,1.64,0,0,1-1.23.5,2.32,2.32,0,0,1-.61-.34,1.59,1.59,0,0,1-1.47,1,1.67,1.67,0,0,1-1.23-.49,1.71,1.71,0,0,1-.5-1.24V8.31H4.85V6.92H7.62v4.5a.33.33,0,0,0,.1.24.37.37,0,0,0,.24.11.38.38,0,0,0,.35-.35V8.31H9.69V9.69a4.28,4.28,0,0,0,.09.87A1.37,1.37,0,0,0,10,11l0,.05a.37.37,0,0,0,.24-.11.33.33,0,0,0,.1-.24V6.23Z"/></svg>