<svg xmlns="http://www.w3.org/2000/svg" viewBox="0 0 18 18"><defs><style>.a{fill:#333740;}</style></defs><title>MOS icons NEW</title><path class="a" d="M2.08,0h9.26l.26.17,4.15,4.16.17.26V18H2.08V0ZM3.46,1.38V16.62H14.54V5.54H10.38V1.38ZM7.62,8.74l.51.43,1.56,1.6.87-.9.52-.44.52.44,2.07,2.07-1,1-1.55-1.6-.87.91-.52.43-.52-.43-1.55-1.6L5.37,13l-1-1L7.1,9.17Zm4.15-6.36V4.15h1.77Zm.28,5.43a.65.65,0,0,1,.48-.19.7.7,0,0,1,.49.19.68.68,0,0,1,0,1,.7.7,0,0,1-.49.19.65.65,0,0,1-.48-.19.75.75,0,0,1,0-1Z"/></svg>