<svg xmlns="http://www.w3.org/2000/svg" viewBox="0 0 18 18"><defs><style>.a{fill:#333740;}</style></defs><title>MOS icons NEW</title><path class="a" d="M2.08,0H15.92V18H2.08V0ZM3.46,1.38V16.62H14.54V1.38ZM8.57,5.11h0a1.12,1.12,0,0,1,.65.21,1.73,1.73,0,0,1,.35.56,3.71,3.71,0,0,1,.13,1.3A2.73,2.73,0,0,1,9.58,8a4.1,4.1,0,0,0-.15.61c0,.08.07.22.13.41a2.61,2.61,0,0,0,.18.45,12.33,12.33,0,0,0,.9,1.21l.5,0a5.85,5.85,0,0,1,.59,0,1.87,1.87,0,0,1,1,.43.89.89,0,0,1,.26.61,1.14,1.14,0,0,1-.17.6v.05h0a1.1,1.1,0,0,1-1.08.64,2.13,2.13,0,0,1-1.13-.51,2,2,0,0,1-.24-.33.79.79,0,0,0-.24-.28H9.69a1.46,1.46,0,0,0-.56.09,2.47,2.47,0,0,0-.54.17l-.46.17a4.75,4.75,0,0,1-.25.61l-.39.78a1.9,1.9,0,0,1-1,.78.91.91,0,0,1-.65,0,1.35,1.35,0,0,1-.52-.44,1,1,0,0,1-.08-1.21,2,2,0,0,1,.9-.86,2.85,2.85,0,0,1,.7-.31,3.83,3.83,0,0,1,.6-.17,4.59,4.59,0,0,1,.24-.5A3.57,3.57,0,0,0,8,10.21a4,4,0,0,0,.24-.86c.07-.38.11-.6.11-.65A14.61,14.61,0,0,1,7.7,7a2.52,2.52,0,0,1,0-1.21A1.23,1.23,0,0,1,8,5.28.74.74,0,0,1,8.57,5.11ZM6.66,12.72a1.64,1.64,0,0,0-.52.48.15.15,0,0,0,0,.13h.05v0a2,2,0,0,0,.47-.43.78.78,0,0,1,.09-.22ZM9,10.21a.66.66,0,0,1,0,.17.31.31,0,0,1-.06.18.25.25,0,0,1-.07.17.28.28,0,0,0-.06.13l0,0h0a.6.6,0,0,1,.26-.05h.26a2.57,2.57,0,0,0-.17-.26A3.72,3.72,0,0,1,9,10.21ZM11.6,11.6a.65.65,0,0,0-.18,0c.18.14.29.22.35.22s.11,0,.17-.13v-.05A1.71,1.71,0,0,0,11.6,11.6Z"/></svg>