<svg xmlns="http://www.w3.org/2000/svg" viewBox="0 0 18 18"><defs><style>.a{fill:#333740;}</style></defs><title>MOS icons NEW</title><path class="a" d="M7.05,0H11l.13.56.39,2a6.79,6.79,0,0,1,1.77,1.08l2-.69.57-.18.26.48,1.38,2.42.26.48-.39.39L15.79,7.92A7.33,7.33,0,0,1,15.92,9a7.33,7.33,0,0,1-.13,1.08l1.56,1.34.39.39-.26.48L16.1,14.71l-.26.48L15.27,15l-2-.69a6.79,6.79,0,0,1-1.77,1.08l-.39,2L11,18H7.05l-.13-.56-.39-2a6.79,6.79,0,0,1-1.77-1.08l-2,.69-.57.18-.26-.48L.52,12.29l-.26-.48.39-.39,1.56-1.34A7.33,7.33,0,0,1,2.08,9a7.33,7.33,0,0,1,.13-1.08L.65,6.58.26,6.19l.26-.48L1.9,3.29l.26-.48L2.73,3l2,.69A6.79,6.79,0,0,1,6.53,2.6l.39-2ZM8.18,1.38,7.83,3.2l-.08.39-.39.13A5.87,5.87,0,0,0,5.28,4.93l-.35.26-.34-.08L2.81,4.5,2,5.88,3.38,7.1l.34.26-.13.43A5.16,5.16,0,0,0,3.46,9a5.16,5.16,0,0,0,.13,1.21l.13.43-.34.26L2,12.12l.82,1.38,1.78-.61.34-.08.35.26a5.72,5.72,0,0,0,2.08,1.21l.39.13.08.39.35,1.82H9.82l.35-1.82.08-.39.39-.13a5.72,5.72,0,0,0,2.08-1.21l.35-.26.34.08,1.78.61L16,12.12,14.62,10.9l-.3-.26.09-.43A5.16,5.16,0,0,0,14.54,9a5.16,5.16,0,0,0-.13-1.21l-.13-.43.34-.26L16,5.88,15.19,4.5l-1.78.61-.34.08-.35-.26a5.87,5.87,0,0,0-2.08-1.21l-.39-.13-.08-.39L9.82,1.38ZM6.56,6.56A3.31,3.31,0,0,1,9,5.54a3.31,3.31,0,0,1,2.44,1,3.31,3.31,0,0,1,1,2.44,3.31,3.31,0,0,1-1,2.44,3.31,3.31,0,0,1-2.44,1,3.31,3.31,0,0,1-2.44-1A3.31,3.31,0,0,1,5.54,9,3.31,3.31,0,0,1,6.56,6.56Zm3.91,1a2.08,2.08,0,0,0-2.94,0,2.08,2.08,0,0,0,0,2.94,2.08,2.08,0,0,0,2.94,0,2.08,2.08,0,0,0,0-2.94Z"/></svg>