<svg xmlns="http://www.w3.org/2000/svg" viewBox="0 0 60 60"><defs><style>.a{fill:#333740;}</style></defs><title>MOS icons NEW</title><path class="a" d="M18.46,17.77H5.32V4.62H18.46ZM7.91,15.17h8V7.22h-8Z"/><path class="a" d="M18.46,36.11H5.32v-13H18.46ZM7.91,33.68h8v-8h-8Z"/><path class="a" d="M18.46,54.62H5.32V41.47H18.46ZM7.91,52h8v-8h-8Z"/><path class="a" d="M36.81,17.77h-13V4.62h13Zm-10.55-2.6h8V7.22H26.26Z"/><path class="a" d="M36.81,36.11h-13v-13h13ZM26.26,33.68h8v-8H26.26Z"/><path class="a" d="M36.81,54.62h-13V41.47h13ZM26.26,52h8v-8H26.26Z"/><path class="a" d="M55.32,17.77H42.17V4.62H55.32Zm-10.56-2.6h8V7.22h-8Z"/><path class="a" d="M55.32,36.11H42.17v-13H55.32ZM44.76,33.68h8v-8h-8Z"/><path class="a" d="M55.32,54.62H42.17V41.47H55.32ZM44.76,52h8v-8h-8Z"/></svg>