<svg xmlns="http://www.w3.org/2000/svg" viewBox="0 0 60 60"><defs><style>.a{fill:#333740;}</style></defs><title>MOS icons NEW</title><path class="a" d="M53.23,29l-1.95-2h0L35.67,11.3l-8.79,8.83A7,7,0,0,1,18.2,21L30.78,8.37a15.13,15.13,0,0,1,21.47,0c6.21,6.25,6.62,14.91,1,20.59m0,7.85a2.81,2.81,0,0,1-3.9,0l-3.91-3.92L37.67,25.1l-2,2L47.38,38.78a2.77,2.77,0,0,1-3.91,3.92l-3.9-3.92-7.86-7.91-1.95,2L41.52,44.66a2.79,2.79,0,0,1,0,3.93A2.75,2.75,0,0,1,38.2,49a5.46,5.46,0,0,0-5.46-5c-.13,0-.25,0-.37,0s0-.25,0-.38a5.53,5.53,0,0,0-5.52-5.55c-.12,0-.24,0-.37,0s0-.25,0-.38a5.43,5.43,0,0,0-5.9-5.46c0-.14.05-.28.05-.42A5.55,5.55,0,0,0,19.08,28a5.65,5.65,0,0,0-7.81,0L8.35,30.93,7.19,29.77a15.36,15.36,0,0,1,0-21.59,15.13,15.13,0,0,1,20.63-.76L14.2,21.11l1,1a9.63,9.63,0,0,0,13.66,0l6.83-6.87,14.93,15,2.63,2.65a2.78,2.78,0,0,1,0,3.92M34.69,51.53l-3.9,3.93a2.84,2.84,0,0,1-3.91,0,2.81,2.81,0,0,1,0-3.93l3.91-3.92a2.73,2.73,0,0,1,3.9,0,2.78,2.78,0,0,1,0,3.92M21,49.57a2.76,2.76,0,0,1-.81-2,2.8,2.8,0,0,1,.81-2l3.9-3.92a2.77,2.77,0,0,1,3.91,3.92h0l-3.91,3.93a2.81,2.81,0,0,1-3.9,0m-5.85-5.89a2.78,2.78,0,0,1,0-3.92l3.9-3.93a2.75,2.75,0,0,1,3.9,0,2.78,2.78,0,0,1,0,3.92h0l-3.9,3.92a2.81,2.81,0,0,1-3.9,0M9.32,37.79a2.78,2.78,0,0,1,0-3.92L13.22,30a2.77,2.77,0,0,1,3.91,3.92l-3.91,3.92a2.81,2.81,0,0,1-3.9,0M54.2,6.4a17.88,17.88,0,0,0-24.38-.9,17.88,17.88,0,0,0-24.58.72,18.14,18.14,0,0,0,0,25.51L6.53,33a5.51,5.51,0,0,0,.84,6.73,5.45,5.45,0,0,0,3.9,1.62c.13,0,.25,0,.38,0a5.48,5.48,0,0,0,5.48,5.92c.12,0,.24,0,.37,0s0,.25,0,.38a5.54,5.54,0,0,0,1.62,3.92A5.46,5.46,0,0,0,23,53.16c.13,0,.25,0,.37,0s0,.25,0,.37a5.53,5.53,0,0,0,5.52,5.56,5.46,5.46,0,0,0,3.9-1.63l3.9-3.93a5.44,5.44,0,0,0,1.12-1.64,5.56,5.56,0,0,0,1.81.32,5.53,5.53,0,0,0,5.52-5.54c0-.13,0-.25,0-.38s.25,0,.37,0a5.47,5.47,0,0,0,3.91-1.63,5.53,5.53,0,0,0,1.61-3.92c0-.13,0-.25,0-.38s.24,0,.37,0a5.48,5.48,0,0,0,3.9-1.62,5.56,5.56,0,0,0,0-7.85C62,24.1,61.54,13.79,54.2,6.4"/></svg>