<svg xmlns="http://www.w3.org/2000/svg" viewBox="0 0 18 18"><defs><style>.a{fill:#333740;}</style></defs><title>MOS icons NEW</title><path class="a" d="M5.65.56A1.86,1.86,0,0,1,7,0,1.91,1.91,0,0,1,8.94,1.93V4.62a1.81,1.81,0,0,1,.64-.12A2,2,0,0,1,10.87,5a1.91,1.91,0,0,1,1.28-.48,1.88,1.88,0,0,1,1.21.42A1.7,1.7,0,0,1,14,6a2.32,2.32,0,0,1,.81-.16,1.86,1.86,0,0,1,1.34.56,1.81,1.81,0,0,1,.58,1.36v5a5.06,5.06,0,0,1-1.54,3.71A5.13,5.13,0,0,1,11.43,18H10.35a5.27,5.27,0,0,1-3.22-1.08l0,0-5.3-5.23a1.91,1.91,0,0,1-.52-1.36A1.85,1.85,0,0,1,3.15,8.4a1.94,1.94,0,0,1,1.37.52l.16.16.4.44V1.93A1.86,1.86,0,0,1,5.65.56Zm1.82.91a.64.64,0,0,0-1.1.46V12.62L5.24,11.49,3.6,9.84a.56.56,0,0,0-.89,0,.56.56,0,0,0,0,.89L7.9,15.87a4,4,0,0,0,2.45.84h1.08a3.9,3.9,0,0,0,2.85-1.14,3.8,3.8,0,0,0,1.17-2.83v-5a.61.61,0,0,0-.2-.46.69.69,0,0,0-.46-.18.61.61,0,0,0-.45.18.63.63,0,0,0-.18.46V9H12.8V6.43A.62.62,0,0,0,12.62,6a.64.64,0,0,0-.47-.18.63.63,0,0,0-.46.18.62.62,0,0,0-.18.46V9H10.23V6.43A.59.59,0,0,0,10,6a.62.62,0,0,0-.46-.18A.63.63,0,0,0,9.12,6a.62.62,0,0,0-.18.46V9H7.65V1.93A.62.62,0,0,0,7.47,1.47Z"/></svg>