<svg xmlns="http://www.w3.org/2000/svg" viewBox="0 0 60 60"><defs><style>.a{fill:#333740;}</style></defs><title>MOS icons NEW</title><path class="a" d="M52.51,32.68V42.81A2.21,2.21,0,0,1,50.3,45h-.88a2.21,2.21,0,0,1-2.21-2.2V31.33a2.21,2.21,0,0,1,2.21-2.2h.88a2.21,2.21,0,0,1,2.21,2.2v1.35ZM31,57.35A1.35,1.35,0,1,1,32.37,56,1.34,1.34,0,0,1,31,57.35M43.43,9.85a20.12,20.12,0,0,0-26.64-.2L15.62,7.86a22.45,22.45,0,0,1,29.32.48ZM9.7,29.13h.88a2.21,2.21,0,0,1,2.21,2.2V42.81A2.21,2.21,0,0,1,10.58,45H9.7a2.21,2.21,0,0,1-2.21-2.2V31.33a2.21,2.21,0,0,1,2.21-2.2M30,0A25.18,25.18,0,0,0,4.85,25.15V42.81A4.85,4.85,0,0,0,9.7,47.66h.88a4.86,4.86,0,0,0,4.86-4.85V31.33a4.86,4.86,0,0,0-4.86-4.85H9.7A4.87,4.87,0,0,0,7.49,27V25.15A22.43,22.43,0,0,1,13.66,9.7l2.68,4.1,1.15-1.17a17.49,17.49,0,0,1,25,0l.93,1,3.37-3.37a22.41,22.41,0,0,1,5.7,14.94V27a4.87,4.87,0,0,0-2.21-.53h-.88a4.86,4.86,0,0,0-4.86,4.85V42.81a4.86,4.86,0,0,0,4.86,4.85h.88a4.75,4.75,0,0,0,2.19-.53A7.51,7.51,0,0,1,45,54.3H34.62A4,4,0,1,0,34.89,57H45A10.16,10.16,0,0,0,55.15,46.8V25.15A25.18,25.18,0,0,0,30,0"/></svg>