<svg xmlns="http://www.w3.org/2000/svg" viewBox="0 0 18 18"><defs><style>.a{fill:#333740;}</style></defs><title>MOS icons NEW</title><path class="a" d="M4.82,1.25A5.74,5.74,0,0,1,9,3.13a5.72,5.72,0,0,1,4.18-1.88,4.59,4.59,0,0,1,3.41,1.42A4.66,4.66,0,0,1,18,6.07a3.62,3.62,0,0,1-.4,1.62,4.66,4.66,0,0,1-.81,1.23l-.4.36-6.91,7L9,16.75l-.48-.48-6.91-7A5.83,5.83,0,0,1,.8,8.36,4.23,4.23,0,0,1,0,6.07a4.66,4.66,0,0,1,1.41-3.4A4.59,4.59,0,0,1,4.82,1.25Zm0,1.28A3.4,3.4,0,0,0,2.33,3.58a3.36,3.36,0,0,0-1,2.49,3,3,0,0,0,.56,1.56l.64.77L9,14.91,15.51,8.4a3.77,3.77,0,0,0,1.2-2.33,3.36,3.36,0,0,0-1-2.49,3.4,3.4,0,0,0-2.49-1.05A4.09,4.09,0,0,0,11.41,3,6.38,6.38,0,0,0,10,3.94l-.48.44L9,4.94l-.48-.56L8,3.88a7.81,7.81,0,0,0-1.33-.83A4.06,4.06,0,0,0,4.82,2.53Z"/></svg>