<svg xmlns="http://www.w3.org/2000/svg" viewBox="0 0 60 60"><defs><style>.a{fill:#333740;}</style></defs><title>MOS icons NEW</title><path class="a" d="M30,52.07l-.67-.5c-.67-.5-16.76-10.39-16.76-19.95V29.78A10.8,10.8,0,0,1,23.3,19.05,10.51,10.51,0,0,1,30,21.4a10.51,10.51,0,0,1,6.7-2.35A10.8,10.8,0,0,1,47.43,29.78v1.84c0,9.56-16.09,19.45-16.76,20ZM23.3,21.9a8.05,8.05,0,0,0-8,8.05v1.67C15.25,38,25.31,45.7,30,48.72c4.69-3,14.75-10.9,14.75-17.1V29.78a8,8,0,0,0-8-8A8,8,0,0,0,31,24.08l-1,1.18-1-1A8,8,0,0,0,23.3,21.9Z"/><rect class="a" y="30.79" width="6.87" height="2.68"/><rect class="a" x="53.13" y="30.79" width="6.87" height="2.68"/><rect class="a" x="28.66" y="6.32" width="2.68" height="6.87"/><rect class="a" x="9.98" y="9.33" width="2.68" height="6.87" transform="translate(-5.71 11.75) rotate(-45.01)"/><rect class="a" x="47.54" y="46.86" width="2.68" height="6.87" transform="translate(-21.25 49.3) rotate(-45.01)"/><rect class="a" x="7.77" y="48.97" width="6.87" height="2.68" transform="translate(-32.28 22.64) rotate(-44.98)"/><rect class="a" x="45.31" y="11.41" width="6.87" height="2.68" transform="translate(5.25 38.19) rotate(-44.98)"/></svg>