<svg xmlns="http://www.w3.org/2000/svg" viewBox="0 0 18 18"><defs><style>.a{fill:#333740;}</style></defs><title>MOS icons NEW</title><path class="a" d="M1.2,3.6H16.8a1.14,1.14,0,0,1,.84.36A1.14,1.14,0,0,1,18,4.8v8.4a1.23,1.23,0,0,1-1.2,1.2H1.2A1.14,1.14,0,0,1,.36,14,1.14,1.14,0,0,1,0,13.2V4.8A1.14,1.14,0,0,1,.36,4,1.14,1.14,0,0,1,1.2,3.6Zm0,1.2v8.4H16.8V4.8ZM2.4,6H3.6V7.2H2.4Zm0,2.4H4.8V9.6H2.4Zm0,2.4H4.8V12H2.4ZM4.8,6H6V7.2H4.8ZM6,8.4H7.2V9.6H6Zm0,2.4h6V12H6ZM7.2,6H8.4V7.2H7.2ZM8.4,8.4H9.6V9.6H8.4ZM9.6,6h1.2V7.2H9.6Zm1.2,2.4H12V9.6H10.8ZM12,6h1.2V7.2H12Zm1.2,2.4h2.4V9.6H13.2Zm0,2.4h2.4V12H13.2ZM14.4,6h1.2V7.2H14.4Z"/></svg>