<svg xmlns="http://www.w3.org/2000/svg" viewBox="0 0 18 18"><defs><style>.a{fill:#333740;}</style></defs><title>MOS icons NEW</title><path class="a" d="M1.93,2.57H16.07v8.72l1.45,1.49A1.53,1.53,0,0,1,18,13.9,1.47,1.47,0,0,1,17.54,15a1.49,1.49,0,0,1-1.07.46H1.53A1.49,1.49,0,0,1,.46,15,1.47,1.47,0,0,1,0,13.9a1.53,1.53,0,0,1,.48-1.12l1.45-1.49V2.57Zm.92,9.64L1.37,13.66a.29.29,0,0,0-.08.24.21.21,0,0,0,.24.24H16.47a.21.21,0,0,0,.24-.24.29.29,0,0,0-.08-.24l-1.48-1.45Zm.36-8.35v7.07H14.79V3.86Z"/></svg>