<svg xmlns="http://www.w3.org/2000/svg" viewBox="0 0 60 60"><defs><style>.a{fill:#333740;}</style></defs><title>MOS icons NEW</title><path class="a" d="M56,56.11a3.94,3.94,0,0,1-2.82,1.15A3.86,3.86,0,0,1,50.37,56L35.52,39.87l4.29-4.32,16,14.94A3.88,3.88,0,0,1,56,56.11M34.79,30.87l3,2.82-4.14,4.17-2.81-3ZM10.6,28,28,10.5,39.74,22.32,22.36,39.8Zm8.72,18.44L3.92,30.93,6.86,28l15.4,15.49ZM30.93,3.77l15.4,15.49-2.94,3L28,6.72Zm5.78,25.16,4.81-4.83L43.39,26l6.69-6.72L30.93,0,24.24,6.72l2,2L8.83,26.19l-2-2L.17,30.93,19.32,50.19,26,43.47l-1.88-1.89,4.81-4.83L48.37,57.86A6.59,6.59,0,0,0,53.09,60h.13A6.64,6.64,0,0,0,57.7,48.48Z"/></svg>