<svg xmlns="http://www.w3.org/2000/svg" viewBox="0 0 18 18"><defs><style>.a{fill:#333740;}</style></defs><title>MOS icons NEW</title><path class="a" d="M2.65,2.65A8.63,8.63,0,0,1,9,0a8.63,8.63,0,0,1,6.35,2.65A8.63,8.63,0,0,1,18,9a8.63,8.63,0,0,1-2.65,6.35A8.63,8.63,0,0,1,9,18a8.63,8.63,0,0,1-6.35-2.65A8.63,8.63,0,0,1,0,9,8.63,8.63,0,0,1,2.65,2.65Zm-1.1,5.6c0,.31-.05.56-.05.75s0,.44.05.75H3.84A4.14,4.14,0,0,1,3.75,9a5.54,5.54,0,0,1,0-.75Zm.28,3a7.67,7.67,0,0,0,4.92,4.92V13.73a5,5,0,0,1-2.48-2.48ZM6.75,1.83a7.62,7.62,0,0,0-3,1.85A6.92,6.92,0,0,0,1.88,6.75H4.27A5,5,0,0,1,6.75,4.27Zm4.9,4.52a3.74,3.74,0,0,0-5.3,0,3.74,3.74,0,0,0,0,5.3,3.74,3.74,0,0,0,5.3,0,3.74,3.74,0,0,0,0-5.3ZM9,1.5c-.19,0-.44,0-.75.05V3.84A4.14,4.14,0,0,1,9,3.75a4.14,4.14,0,0,1,.75.09V1.55C9.44,1.52,9.19,1.5,9,1.5ZM8.25,14.16v2.29c.31,0,.56.05.75.05s.44,0,.75-.05V14.16a4.14,4.14,0,0,1-.75.09A4.14,4.14,0,0,1,8.25,14.16Zm3-12.33V4.27a5,5,0,0,1,2.48,2.48h2.44a7.67,7.67,0,0,0-4.92-4.92Zm2.48,9.42a5,5,0,0,1-2.48,2.48v2.44a7.67,7.67,0,0,0,4.92-4.92Zm.43-3a4.14,4.14,0,0,1,.09.75,4.14,4.14,0,0,1-.09.75h2.29c0-.31.05-.56.05-.75s0-.44-.05-.75Z"/></svg>