<svg xmlns="http://www.w3.org/2000/svg" viewBox="0 0 18 18"><defs><style>.a{fill:#333740;}</style></defs><title>MOS icons NEW</title><path class="a" d="M0,6.63H1.93V7.92H0ZM3.09.44,4.42,1.81l-.88.88L2.17,1.37Zm.45,11.41.88.89L3.09,14.1l-.92-.92ZM9,.84a5.57,5.57,0,0,1,4.08,1.71,5.57,5.57,0,0,1,1.71,4.08A6,6,0,0,1,12.94,11a3.47,3.47,0,0,0-1.29,2.61v.76h-.08v2.58H10.13A1.29,1.29,0,0,1,9,17.56a1.26,1.26,0,0,1-1.12-.64H6.43V13.06A3.13,3.13,0,0,0,5.3,11.13,5.84,5.84,0,0,1,3.64,8.8a5.65,5.65,0,0,1-.35-2.89A5.82,5.82,0,0,1,5,2.53,5.44,5.44,0,0,1,8.36.92ZM9,2.13l-.48.08A4.26,4.26,0,0,0,5.89,3.46,4.31,4.31,0,0,0,4.58,6.07a4.21,4.21,0,0,0,1.57,4,4.32,4.32,0,0,1,1.48,2.94h2.82A4.91,4.91,0,0,1,12,10h0A4.55,4.55,0,0,0,13.5,6.63a4.3,4.3,0,0,0-1.33-3.17A4.3,4.3,0,0,0,9,2.13ZM7.71,14.34v1.29h2.58V14.34ZM14.91.44l.92.93L14.46,2.69l-.88-.88Zm-.45,11.41,1.37,1.33-.92.92-1.33-1.36Zm1.61-5.22H18V7.92H16.07Z"/></svg>