<svg xmlns="http://www.w3.org/2000/svg" viewBox="0 0 60 60"><defs><style>.a{fill:#333740;}</style></defs><title>MOS icons NEW</title><path class="a" d="M57.27,48.82c0,.88-1,1.63-2.27,1.63H5c-1.23,0-2.27-.75-2.27-1.64V45H23.14v2.73H36.86V45H57.27ZM5,38.18h50.1L57,42.27H3Zm.5-26.36A2.28,2.28,0,0,1,7.73,9.54H52.28a2.28,2.28,0,0,1,2.27,2.28V35.45H5.45Zm51.83,0a5,5,0,0,0-5-5H7.73a5,5,0,0,0-5,5V36.51L0,42.27v6.55c0,2.41,2.25,4.36,5,4.36H55c2.76,0,5-2,5-4.36V42.27l-2.72-5.76Z"/><path class="a" d="M46.19,12.61a4.05,4.05,0,0,0-4,4.05,4,4,0,0,0,.41,1.76l-5.38,5.46a3.9,3.9,0,0,0-1.71-.39,4,4,0,0,0-2.26.69l-4.76-3.54a4.23,4.23,0,0,0,.2-1.18,4.05,4.05,0,1,0-8,.85L16.33,23a4,4,0,1,0,1.52,3.14,4,4,0,0,0-.09-.85l4.31-2.66a4,4,0,0,0,2.53.91,4.1,4.1,0,0,0,2.26-.69l4.76,3.53a4.23,4.23,0,0,0-.2,1.18,4.05,4.05,0,0,0,8.1,0,4,4,0,0,0-.42-1.75l5.38-5.46a4.12,4.12,0,0,0,1.71.39,4.05,4.05,0,1,0,0-8.1ZM13.8,27.46a1.35,1.35,0,1,1,1.35-1.35A1.36,1.36,0,0,1,13.8,27.46Zm10.8-6.65A1.35,1.35,0,1,1,26,19.46,1.35,1.35,0,0,1,24.6,20.81Zm10.87,8.07a1.35,1.35,0,1,1,1.35-1.35A1.35,1.35,0,0,1,35.47,28.88ZM46.19,18a1.35,1.35,0,1,1,1.35-1.35A1.35,1.35,0,0,1,46.19,18Z"/></svg>