<svg xmlns="http://www.w3.org/2000/svg" viewBox="0 0 18 18"><defs><style>.a{fill:#333740;}</style></defs><title>MOS icons NEW</title><path class="a" d="M5.81,7.5a4.35,4.35,0,0,1,1.69.33L6.28,9.05A2.5,2.5,0,0,0,5.81,9a3.07,3.07,0,0,0-2.25.94L2.44,11.06a3,3,0,0,0-.94,2.23,3.06,3.06,0,0,0,.94,2.27,3,3,0,0,0,2.25.94,3,3,0,0,0,2.25-.94l1.12-1.12A3,3,0,0,0,9,11.72l1.22-1.22a4.35,4.35,0,0,1,.33,1.69,4.46,4.46,0,0,1-1.41,3.33L8,16.59A4.46,4.46,0,0,1,4.69,18a4.53,4.53,0,0,1-3.31-1.38A4.53,4.53,0,0,1,0,13.31,4.46,4.46,0,0,1,1.41,10L2.48,8.91A4.46,4.46,0,0,1,5.81,7.5Zm5.63-2.06,1.12,1.12-6,6L5.44,11.44ZM13.31,0a4.53,4.53,0,0,1,3.31,1.38A4.53,4.53,0,0,1,18,4.69,4.46,4.46,0,0,1,16.59,8L15.52,9.09a4.46,4.46,0,0,1-3.33,1.41,4.35,4.35,0,0,1-1.69-.33L11.72,9a2.5,2.5,0,0,0,.47.05,3.07,3.07,0,0,0,2.25-.94l1.12-1.12a3,3,0,0,0,.94-2.23,3.06,3.06,0,0,0-.94-2.27,3,3,0,0,0-2.25-.94,3,3,0,0,0-2.25.94L9.94,3.56a3,3,0,0,0-.89,2.72L7.83,7.5A4.35,4.35,0,0,1,7.5,5.81,4.46,4.46,0,0,1,8.91,2.48L10,1.41A4.46,4.46,0,0,1,13.31,0Z"/></svg>