<svg xmlns="http://www.w3.org/2000/svg" viewBox="0 0 18 18"><defs><style>.a{fill:#333740;}</style></defs><title>MOS icons NEW</title><path class="a" d="M.88,7a1.71,1.71,0,0,1,1.28-.52A1.71,1.71,0,0,1,3.44,7,1.71,1.71,0,0,1,4,8.28a1.36,1.36,0,0,1-.54,1.08l-.09.09-.63.63H4v1.44H.36V10.35l.22-.18,1.85-1.8.09-.09a.38.38,0,0,0-.36-.36.38.38,0,0,0-.36.36v.36H.36V8.28A1.71,1.71,0,0,1,.88,7ZM.36,13H3.24V14l-.09.18-.27.45A1.67,1.67,0,0,1,4,16.2a1.71,1.71,0,0,1-.52,1.28A1.71,1.71,0,0,1,2.16,18H.36V16.56h1.8a.36.36,0,0,0,0-.72H1.08v-1l.09-.18.18-.27h-1ZM1.8,0H3.24V5H1.8V1.8a2.58,2.58,0,0,1-1.17.36V.72A1,1,0,0,0,1,.61,1.59,1.59,0,0,0,1.4.36L1.53.27ZM5.4,2.16H17.64V3.6H5.4Zm0,6.48H17.64v1.44H5.4Zm0,6.48H17.64v1.44H5.4Z"/></svg>