<svg xmlns="http://www.w3.org/2000/svg" viewBox="0 0 60 60"><defs><style>.a{fill:#333740;}</style></defs><title>MOS icons NEW</title><path class="a" d="M35.45,24.55H51.72l5.87-8.19L51.72,8.18H35.45V0H24.55V8.18H2.73V24.55H24.55V30H8.28L2.41,38.18l5.87,8.18H24.55v9.23l-2.73-5.46-3.57,7.14H16.36V60h3.57l1.89-3.77L23.7,60H43.64V57.27H35.45V46.36H57.27V30H35.45ZM27.27,2.73h5.46V8.18H27.27ZM5.45,21.82V10.91H50.32l3.91,5.45-3.91,5.46Zm27.28,2.73V30H27.27V24.55Zm0,32.72H27.27V46.36h5.46ZM54.55,32.73V43.64H9.68L5.77,38.18l3.91-5.45Z"/><rect class="a" x="10.91" y="15" width="35.45" height="2.73"/><rect class="a" x="12.27" y="36.82" width="9.55" height="2.73"/><rect class="a" x="25.91" y="36.82" width="15" height="2.73"/></svg>