<svg xmlns="http://www.w3.org/2000/svg" viewBox="0 0 18 18"><defs><style>.a{fill:#333740;}</style></defs><title>MOS icons NEW</title><path class="a" d="M4.71,1.77A5.84,5.84,0,0,1,9,0a5.84,5.84,0,0,1,4.29,1.77,5.81,5.81,0,0,1,1.77,4.29,8.26,8.26,0,0,1-.93,3.19,28.36,28.36,0,0,1-1.85,3.62c-.39.7-.82,1.42-1.28,2.14s-.82,1.28-1.07,1.64l-.38.55L9,18l-.55-.8q-1.38-2-2.73-4.33A27.11,27.11,0,0,1,3.87,9.25a8.26,8.26,0,0,1-.93-3.19A5.81,5.81,0,0,1,4.71,1.77Zm7.63.94A4.53,4.53,0,0,0,9,1.35,4.53,4.53,0,0,0,5.66,2.71,4.56,4.56,0,0,0,4.29,6.06a7.89,7.89,0,0,0,.76,2.69A37.34,37.34,0,0,0,6.9,12.2Q8,14,9,15.56,10,14,11.1,12.2A37.34,37.34,0,0,0,13,8.75a7.89,7.89,0,0,0,.76-2.69A4.56,4.56,0,0,0,12.34,2.71ZM8.05,5.11a1.33,1.33,0,0,1,1.9,0,1.32,1.32,0,0,1,.4.95A1.34,1.34,0,0,1,8.05,7a1.3,1.3,0,0,1-.4-.94A1.32,1.32,0,0,1,8.05,5.11Z"/></svg>