<svg xmlns="http://www.w3.org/2000/svg" viewBox="0 0 18 18"><defs><style>.a{fill:#333740;}</style></defs><title>MOS icons NEW</title><path class="a" d="M5.25,0h7.5a2.14,2.14,0,0,1,1.59.66A2.14,2.14,0,0,1,15,2.25v13.5A2.25,2.25,0,0,1,12.75,18H5.25a2.14,2.14,0,0,1-1.59-.66A2.14,2.14,0,0,1,3,15.75V2.25A2.14,2.14,0,0,1,3.66.66,2.14,2.14,0,0,1,5.25,0Zm0,1.5a.72.72,0,0,0-.75.75v13.5a.72.72,0,0,0,.75.75h7.5a.72.72,0,0,0,.75-.75V2.25a.72.72,0,0,0-.75-.75Zm3.21,13a.8.8,0,1,1-.21.54A.73.73,0,0,1,8.46,14.46Z"/></svg>