<svg xmlns="http://www.w3.org/2000/svg" viewBox="0 0 60 60"><defs><style>.a{fill:#333740;}</style></defs><title>MOS icons NEW</title><path class="a" d="M55.38,1.11,0,53.5l2.56,2.64L57.94,3.74ZM35,30.49l-8.41,8a9.58,9.58,0,0,0,4.24,1,9.4,9.4,0,0,0,9.41-8.33v0a.58.58,0,0,0-.59-.58ZM49.55,20a.59.59,0,0,0,.59-.59v0a19.8,19.8,0,0,0-.38-2.81L46.13,20ZM12.16,20h7.92a.59.59,0,0,0,.57-.53,10.06,10.06,0,0,1,3.27-6.53,10.33,10.33,0,0,1,13.74-.11L44.22,6.6A19.38,19.38,0,0,0,11.57,19.37v0A.58.58,0,0,0,12.16,20Zm47.26,10.5H51.51a.6.6,0,0,0-.58.55A20,20,0,0,1,30.85,49.94a20.17,20.17,0,0,1-12.13-4l-6.59,6.23a29.39,29.39,0,0,0,39-1.37A28.49,28.49,0,0,0,60,31.07.6.6,0,0,0,59.42,30.48ZM12,37.06a19.4,19.4,0,0,1-1.26-6,.6.6,0,0,0-.58-.56H2.29a.6.6,0,0,0-.58.59A28.3,28.3,0,0,0,5.12,43.6Z"/></svg>