<svg xmlns="http://www.w3.org/2000/svg" viewBox="0 0 60 60"><defs><style>.a{fill:#333740;}</style></defs><title>MOS icons NEW</title><path class="a" d="M53.69,60H6.31V0H53.69ZM9.42,56.7h41V3.11h-41Z"/><rect class="a" x="15.83" y="34.76" width="28.35" height="3.11"/><rect class="a" x="15.83" y="44.08" width="28.35" height="3.11"/><path class="a" d="M30,28.35a9.53,9.53,0,0,1-9.51-9.52h3.1a6.22,6.22,0,1,0,12.43,0h3.11A9,9,0,0,1,30,28.35Z"/><path class="a" d="M36.41,15.73H33.3a3.3,3.3,0,1,0-6.6,0H23.59a6.41,6.41,0,1,1,12.82,0Z"/><path class="a" d="M30,22.14A3.07,3.07,0,0,1,26.89,19h6.22A3.2,3.2,0,0,1,30,22.14Z"/></svg>