<svg xmlns="http://www.w3.org/2000/svg" viewBox="0 0 60 60"><defs><style>.a{fill:#333740;}</style></defs><title>MOS icons NEW</title><path class="a" d="M38.83,30.37h-18a.48.48,0,0,0-.55.55h0a9.59,9.59,0,0,0,9.57,8.65,9.46,9.46,0,0,0,9.57-8.65h0A.6.6,0,0,0,38.83,30.37Z"/><path class="a" d="M10.67,19.51h8.1a.49.49,0,0,0,.56-.55,10.86,10.86,0,0,1,3.31-6.81,10.32,10.32,0,0,1,7.18-2.76A10.63,10.63,0,0,1,37,12.15,10,10,0,0,1,40.31,19a.58.58,0,0,0,.55.55H49a.48.48,0,0,0,.55-.55h0A19.69,19.69,0,0,0,29.82,0,20,20,0,0,0,9.94,18.77h0A.79.79,0,0,0,10.67,19.51Z"/><path class="a" d="M59.82,31.1a.49.49,0,0,0-.56-.55H51.17a.49.49,0,0,0-.56.55,20.63,20.63,0,0,1-41.22,0,.59.59,0,0,0-.56-.55H.74a.49.49,0,0,0-.56.55A29.88,29.88,0,0,0,30,60a29,29,0,0,0,20.8-8.47A30.72,30.72,0,0,0,59.82,31.1Z"/></svg>