<svg xmlns="http://www.w3.org/2000/svg" viewBox="0 0 18 18"><defs><style>.a{fill:#333740;}</style></defs><title>MOS icons NEW</title><path class="a" d="M0,1.38H13.85V6.23H18v7.62a2.75,2.75,0,0,1-2.77,2.77H2.77a2.66,2.66,0,0,1-2-.81,2.68,2.68,0,0,1-.8-2V1.38ZM1.38,2.77V13.85a1.33,1.33,0,0,0,1.39,1.38H12.85a2.78,2.78,0,0,1-.39-1.38V2.77ZM2.77,4.15h8.31V7.62H2.77V4.15Zm0,4.16H6.23V9.69H2.77Zm0,2.07H6.23v1.39H2.77Zm0,2.08H6.23v1.39H2.77ZM4.15,5.54v.69H9.69V5.54ZM7.62,8.31h3.46V9.69H7.62Zm0,2.07h3.46v1.39H7.62Zm0,2.08h3.46v1.39H7.62Zm6.23-4.84v6.23a1.33,1.33,0,0,0,1.38,1.38,1.36,1.36,0,0,0,1-.39,1.34,1.34,0,0,0,.39-1V7.62Z"/></svg>