<svg xmlns="http://www.w3.org/2000/svg" viewBox="0 0 18 18"><defs><style>.a{fill:#333740;}</style></defs><title>MOS icons NEW</title><path class="a" d="M13.48,0h-9A3.24,3.24,0,0,0,1.27,3.25V18H16.73V3.25A3.24,3.24,0,0,0,13.48,0Zm1.75,16.5H2.77V5.31H15.23Zm0-12.69H2.77V3.25A1.75,1.75,0,0,1,4.52,1.5h9a1.75,1.75,0,0,1,1.75,1.75Z"/><rect class="a" x="7.73" y="7.62" width="5.08" height="1.5"/><rect class="a" x="7.73" y="10.15" width="5.08" height="1.5"/><rect class="a" x="7.73" y="12.69" width="5.08" height="1.5"/><rect class="a" x="5.19" y="7.62" width="1.27" height="1.5"/><rect class="a" x="5.19" y="10.15" width="1.27" height="1.5"/><rect class="a" x="5.19" y="12.69" width="1.27" height="1.5"/></svg>