<svg xmlns="http://www.w3.org/2000/svg" viewBox="0 0 60 60"><defs><style>.a{fill:#333740;}</style></defs><title>MOS icons NEW</title><path class="a" d="M54.42,2.14A7.28,7.28,0,0,0,49.24,0H10.75A7.32,7.32,0,0,0,5.58,12.49a7.36,7.36,0,0,0,3.75,2V60H49.24V53h7.32V7.31A7.27,7.27,0,0,0,54.42,2.14ZM7.78,10.29a4.21,4.21,0,0,1,0-5.95,4.15,4.15,0,0,1,3-1.24H43.27a7.28,7.28,0,0,0,0,8.43H10.75A4.14,4.14,0,0,1,7.78,10.29ZM46.39,57.15H12.18V14.38H46.39Zm7.06-7.26H49.24V11.53h0A4.2,4.2,0,0,1,45,7.31a4.21,4.21,0,0,1,8.41,0Z"/><polygon class="a" points="26.02 21.09 24 19.08 19.31 23.77 17.46 21.93 15.45 23.94 19.31 27.8 26.02 21.09"/><rect class="a" x="29.29" y="21.51" width="11.4" height="2.85"/><polygon class="a" points="26.02 32.5 24 30.48 19.31 35.17 17.46 33.33 15.45 35.35 19.31 39.21 26.02 32.5"/><rect class="a" x="29.29" y="32.91" width="11.4" height="2.85"/><polygon class="a" points="26.02 43.9 24 41.89 19.31 46.58 17.46 44.74 15.45 46.75 19.31 50.61 26.02 43.9"/><rect class="a" x="29.29" y="44.32" width="11.4" height="2.85"/></svg>