<svg xmlns="http://www.w3.org/2000/svg" viewBox="0 0 18 18"><defs><style>.a{fill:#333740;}</style></defs><title>MOS icons NEW</title><path class="a" d="M16.93,1.94a2.72,2.72,0,0,0-.31-.67,2.07,2.07,0,0,0-.38-.46h0a2.69,2.69,0,0,0-.5-.39,2.87,2.87,0,0,0-.39-.2A2.71,2.71,0,0,0,14.29,0H3.71a2.78,2.78,0,0,0-2,.81A2.75,2.75,0,0,0,1,2.76a2.73,2.73,0,0,0,.8,2h0a2.51,2.51,0,0,0,.81.56V18H15V16.08h2V2.73A2.61,2.61,0,0,0,16.93,1.94ZM2.82,3.65a1.2,1.2,0,0,1-.37-.89,1.2,1.2,0,0,1,.37-.89,1.22,1.22,0,0,1,.89-.37h8.12a2.76,2.76,0,0,0-.3,1.23A2.69,2.69,0,0,0,11.84,4H3.39A1.19,1.19,0,0,1,2.82,3.65ZM13.54,16.5H4.07v-11h9.47Zm2-2.18H15V4h-.75a1.24,1.24,0,0,1-.89-.37,1.21,1.21,0,0,1,0-1.74,1.27,1.27,0,0,1,.89-.36l.25,0a1.49,1.49,0,0,1,.45.19h0l.18.16a1.25,1.25,0,0,1,.28.41,1.13,1.13,0,0,1,.09.45Z"/><rect class="a" x="6" y="7.8" width="5.2" height="1.5"/><rect class="a" x="6" y="10.4" width="5.2" height="1.5"/><rect class="a" x="6" y="13" width="5.2" height="1.5"/></svg>