<svg xmlns="http://www.w3.org/2000/svg" viewBox="0 0 18 18"><defs><style>.a{fill:#333740;}</style></defs><title>MOS icons NEW</title><path class="a" d="M4,0A1.72,1.72,0,0,1,5,.34l0,0,0,0L7.82,3.27l0,0,0,0a1.22,1.22,0,0,1,.48,1,1.47,1.47,0,0,1-.43,1.06L6.48,6.81A8.8,8.8,0,0,0,8.43,9.66a9.93,9.93,0,0,0,2.8,1.89l1.34-1.33,0-.05a1.72,1.72,0,0,1,2.16,0l0,.09L17.57,13a1.57,1.57,0,0,1,0,2.16l-2.11,2.16h-.05a2.36,2.36,0,0,1-2.41.52,23.3,23.3,0,0,1-7.85-5A21.22,21.22,0,0,1,.15,5a2,2,0,0,1,.6-2.33v0L2.91.42v0l0,0A1.67,1.67,0,0,1,4,0ZM4,1.37a.25.25,0,0,0-.15.09L1.7,3.57v0a.78.78,0,0,0-.26.91,19.36,19.36,0,0,0,4.7,7.34,21.25,21.25,0,0,0,7.29,4.66,1,1,0,0,0,1.08-.22l2.11-2.07c.06-.09.06-.16,0-.22l-2.85-2.8c0-.09-.11-.09-.17,0l-1.72,1.73-.35.3L11.1,13a11.54,11.54,0,0,1-3.49-2.24l-.13-.13A7.77,7.77,0,0,1,6.1,9,11.15,11.15,0,0,1,5.23,7.5L5,6.94l-.13-.43.3-.31L6.87,4.48C7,4.42,7,4.36,7,4.31h0l0,0L4.11,1.46C4.05,1.4,4,1.37,4,1.37Z"/></svg>