<svg xmlns="http://www.w3.org/2000/svg" viewBox="0 0 18 18"><defs><style>.a{fill:#333740;}</style></defs><title>MOS icons NEW</title><path class="a" d="M2.64,2.64A8.67,8.67,0,0,1,9,0a8.67,8.67,0,0,1,6.36,2.64A8.67,8.67,0,0,1,18,9a8.67,8.67,0,0,1-2.64,6.36A8.67,8.67,0,0,1,9,18a8.67,8.67,0,0,1-6.36-2.64A8.67,8.67,0,0,1,0,9,8.67,8.67,0,0,1,2.64,2.64ZM8.22,1.43A7.44,7.44,0,0,0,3.35,3.89,7.38,7.38,0,0,0,1.38,9a7.37,7.37,0,0,0,2.23,5.39A7.37,7.37,0,0,0,9,16.62a7.38,7.38,0,0,0,4.89-1.74L8.48,9.52l-.17-.26V1.43H8.22Zm1.47,0V8.31h6.88a7.45,7.45,0,0,0-2.2-4.68A7.45,7.45,0,0,0,9.69,1.43Zm1,8.26,4.19,4.2a7.42,7.42,0,0,0,1.69-4.2Z"/></svg>