<svg xmlns="http://www.w3.org/2000/svg" viewBox="0 0 60 60"><defs><style>.a{fill:#333740;}</style></defs><title>MOS icons NEW</title><path class="a" d="M56.08,41.85V18.15a2.75,2.75,0,0,0-2.78-2.78H45.45V12.75h5.23V2.13H37.44V12.75h5.23v2.62H26.32a14.07,14.07,0,0,0-12.1-6.71A14.24,14.24,0,0,0,0,22.89c0,4.41,4.25,12.59,8,19V42H4.25V57.87H60v-16Zm-16-37.11h8V10h-8ZM53.13,18a.17.17,0,0,1,.17.17v23.7H20.6a123.68,123.68,0,0,0,6.21-12.26v1.64h2.62V28.61H27.14A23.9,23.9,0,0,0,28,26h1.3V23.38h-.81v-.49A17.18,17.18,0,0,0,27.63,18ZM26,22.89c0,4.9-7.52,17.82-11.44,24-4.09-6.21-11.44-19-11.44-24a11.44,11.44,0,1,1,22.88,0ZM57.38,55.26H6.87V44.63H9.81A60.07,60.07,0,0,0,13.24,50l1.15,1.63L15.53,50c.16-.33,1.64-2.46,3.43-5.4H57.38Z"/><rect class="a" x="29.43" y="47.25" width="5.23" height="2.62"/><path class="a" d="M48.07,23.38H34.82V36.62H48.07ZM45.45,34h-8V26h8Z"/><rect class="a" x="26.81" y="34.01" width="2.62" height="2.62"/><path class="a" d="M14.22,29.1A6.21,6.21,0,1,0,8,22.89,6.21,6.21,0,0,0,14.22,29.1Zm0-9.64a3.45,3.45,0,0,1,3.44,3.43,3.57,3.57,0,0,1-3.44,3.43,3.57,3.57,0,0,1-3.43-3.43A3.45,3.45,0,0,1,14.22,19.46Z"/></svg>