<svg xmlns="http://www.w3.org/2000/svg" viewBox="0 0 60 60"><defs><style>.a{fill:#333740;}</style></defs><title>MOS icons NEW</title><path class="a" d="M47.52,12.29a25,25,0,0,0-39.82,29L5.06,55,18.7,52.33A25.67,25.67,0,0,0,30.14,55,24.79,24.79,0,0,0,55,30.11,24.42,24.42,0,0,0,47.52,12.29ZM45.1,45.07a21.67,21.67,0,0,1-15.18,6.38,21.9,21.9,0,0,1-10.34-2.64l-.66-.22-9.68,2,2-9.68L11,40.23a21.33,21.33,0,0,1,3.74-25.3A21.67,21.67,0,0,1,29.92,8.55,20.78,20.78,0,0,1,45.1,14.93a21.67,21.67,0,0,1,6.38,15.18A21.56,21.56,0,0,1,45.1,45.07Z"/><path class="a" d="M29.92,17.35h0a7,7,0,0,0-5.06,2l1.32,1.32-1.32-1.32a13.36,13.36,0,0,0-1.54,2.2h0c-.22.44-.22.88-.44,1.32l3.52.66c0-.22.22-.44.22-.66h0a2.2,2.2,0,0,1,.88-1.1,3.53,3.53,0,0,1,2.42-1.1,3.47,3.47,0,0,1,3.52,3.52,3.53,3.53,0,0,1-1.1,2.42l-2.2,2.2a7,7,0,0,0-2,5.06v.88h3.52v-.44a3.53,3.53,0,0,1,1.1-2.42l2.2-2.2a7,7,0,0,0,2-5.06A7,7,0,0,0,29.92,17.35Z"/><rect class="a" x="28.16" y="36.93" width="3.52" height="3.52"/></svg>