<svg xmlns="http://www.w3.org/2000/svg" viewBox="0 0 18 18"><defs><style>.a{fill:#333740;}</style></defs><title>MOS icons NEW</title><rect class="a" x="8.25" y="12.23" width="1.5" height="1.5"/><path class="a" d="M9,0a9,9,0,1,0,9,9A9,9,0,0,0,9,0Zm5.3,14.3A7.48,7.48,0,1,1,16.5,9,7.47,7.47,0,0,1,14.3,14.3Z"/><path class="a" d="M12,7a2.8,2.8,0,0,1-.28,1.25,2.77,2.77,0,0,1-.72.89,4,4,0,0,1-1.25.68v1.67H8.25V9.25a.75.75,0,0,1,.58-.73,3.49,3.49,0,0,0,1-.36,1.53,1.53,0,0,0,.58-.58A1.32,1.32,0,0,0,10.5,7a1.5,1.5,0,0,0-3,0H6a3,3,0,0,1,6,0Z"/></svg>