<svg xmlns="http://www.w3.org/2000/svg" viewBox="0 0 18 18"><defs><style>.a{fill:#333740;}</style></defs><title>MOS icons NEW</title><path class="a" d="M4.79,6.48V10.4L3.67,9.75l-2,3.17A.94.94,0,0,0,1.61,14a1.1,1.1,0,0,0,1,.56H6.75v1.5H2.64A2.44,2.44,0,0,1,.35,14.74a2.34,2.34,0,0,1,.09-2.61v-.05h0L2.36,9l-.93-.56ZM9,.41a2.26,2.26,0,0,1,2,1.12l2.34,3.73,1.07-.6v4L11,6.67,12.12,6,9.78,2.28A.87.87,0,0,0,9,1.86a.89.89,0,0,0-.77.42L6.09,5.73,4.83,5l2.1-3.45A2.28,2.28,0,0,1,9,.41Zm6.77,8.68,1.87,3v.05a2.55,2.55,0,0,1,0,2.64,2.4,2.4,0,0,1-2.2,1.33h-4.2v1.49L7.59,15.35l3.64-2.24V14.6h4.2a1,1,0,0,0,1-.53,1.15,1.15,0,0,0,0-1.15l-1.87-3Z"/></svg>