<svg xmlns="http://www.w3.org/2000/svg" viewBox="0 0 18 18"><defs><style>.a{fill:#333740;}</style></defs><title>MOS icons NEW</title><path class="a" d="M16.51,0h.78L18,0,18,.7a19.63,19.63,0,0,1-.09,2.61c-.2,2-.67,3.42-1.39,4.14s-2.33,2-5.23,4.23a10.82,10.82,0,0,1-.87.65l.09,1.18a2.54,2.54,0,0,1-1.05,2.31L7.71,17.26,6.79,18l-.21-1.13L6.1,14.56,3.44,11.9l-2.31-.48L0,11.24l.74-1L2.18,8.54a2.56,2.56,0,0,1,2.31-1l1.22.08c.08-.11.17-.24.26-.39a1.89,1.89,0,0,1,.35-.43,60.49,60.49,0,0,1,4.26-5.28c.73-.75,2.1-1.22,4.1-1.39Q15.6,0,16.51,0ZM2.83,12.51l1,1A4.73,4.73,0,0,0,3,15a4.25,4.25,0,0,0,1.48-.78l1,1a5.11,5.11,0,0,1-2.09,1.22l-1.26.35-1,.17.17-1.05c.09-.37.21-.78.35-1.22A5.91,5.91,0,0,1,2.83,12.51ZM4.4,8.89a1.26,1.26,0,0,0-1.13.52l-.74.88.91.17a3.2,3.2,0,0,0,.5-.61l.72-1Zm11.5-7.5a9.13,9.13,0,0,0-1.13.09,5.78,5.78,0,0,0-3.23,1q-.91,1-4.18,5.14-.69,1-2.7,3.62l2.18,2.14q.48-.39,3.57-2.75,4.18-3.23,5.14-4.14a5.57,5.57,0,0,0,1-3.22c.06-.61.09-1.23.09-1.84h-.7Zm-6.8,12-.95.72a3.2,3.2,0,0,0-.61.5l.17.91.87-.74A1.25,1.25,0,0,0,9.1,13.6Zm2.64-9.07a1.29,1.29,0,0,1,1-.43,1.36,1.36,0,0,1,1,.43,1.37,1.37,0,0,1,0,2,1.36,1.36,0,0,1-1,.43,1.29,1.29,0,0,1-1-.43,1.41,1.41,0,0,1,0-2Z"/></svg>