<svg xmlns="http://www.w3.org/2000/svg" viewBox="0 0 60 60"><defs><style>.a{fill:#333740;}</style></defs><title>MOS icons NEW</title><path class="a" d="M16.36,5.45v19.1H0v30H43.64V35.45H60v-30ZM39,27.27,21.82,44.44,4.66,27.27ZM2.73,29.2,13.07,39.55,2.73,49.89ZM4.66,51.82,15,41.47l6.82,6.82,6.82-6.82L39,51.82Zm36.25-1.93L30.56,39.55,40.91,29.2ZM57.27,32.73H43.64V24.55H19.09V8.18H57.27Z"/><path class="a" d="M54.55,10.91H45v9.55h9.55Zm-2.73,6.82H47.73V13.64h4.09Z"/><rect class="a" y="8.18" width="10.91" height="2.73"/><rect class="a" x="5.45" y="16.36" width="5.45" height="2.73"/><rect class="a" x="49.09" y="40.91" width="10.91" height="2.73"/><rect class="a" x="49.09" y="49.09" width="5.45" height="2.73"/></svg>