<svg xmlns="http://www.w3.org/2000/svg" viewBox="0 0 18 18"><defs><style>.a{fill:#333740;}</style></defs><title>MOS icons NEW</title><path class="a" d="M9,0a8.4,8.4,0,0,1,3.83,1.22,7.81,7.81,0,0,0,3.65,1h.75V3q0,7.35-3.93,11.83a12.27,12.27,0,0,1-1.89,1.8,9.53,9.53,0,0,1-1.57,1.05l-.56.24L9,18l-.28-.09a10.9,10.9,0,0,1-4-3.14Q.77,10.29.77,3V2.24h.75a7.63,7.63,0,0,0,3.65-1A8.4,8.4,0,0,1,9,0ZM9,1.5a4.65,4.65,0,0,0-1.22.16,4.71,4.71,0,0,0-.86.3l-1,.56a10.23,10.23,0,0,1-3.6,1.13Q2.51,10,5.82,13.84A9.69,9.69,0,0,0,9,16.36a9.69,9.69,0,0,0,3.18-2.52Q15.5,10,15.69,3.65a10.23,10.23,0,0,1-3.6-1.13.67.67,0,0,0-.19-.09A6.24,6.24,0,0,0,9,1.5Z"/></svg>