<svg xmlns="http://www.w3.org/2000/svg" viewBox="0 0 60 60"><defs><style>.a{fill:#333740;}</style></defs><title>MOS icons NEW</title><path class="a" d="M23.16,29.38l6.47,15.7L57,33.7,49.4,15.38,45.5,17l-7-17L31.34,3h0L22.23,6.77h0l-7.16,3Zm23.42-9.75,1.3-.55,5.39,13.09L31.15,41.38,25.76,28.3l6.51-2.71,3.23,7.85,9.11-3.8-3.24-7.85ZM34.87,24.5l3.9-1.62,2.16,5.23L37,29.74ZM29.81,6.68l1.92,4.65L27.83,13,25.91,8.31Zm-6.5,2.71,3,7.27,9.11-3.79-3-7.27L37,3.7,42.9,18.09,29.34,23.74l-4.66,1.94L18.76,11.29Z"/><path class="a" d="M54.66,39.25,29.23,49.84a5.62,5.62,0,0,0-2.68-1.12L9.2,6.58H3.05V9.41H7.31L23.66,49.1a5.63,5.63,0,0,0-3.05,3.07,5.7,5.7,0,0,0,0,4.33A5.62,5.62,0,0,0,25.82,60,5.62,5.62,0,0,0,31,56.5a5.61,5.61,0,0,0,0-4.33l24.72-10.3ZM28.42,55.42a2.81,2.81,0,0,1-5.21,0,2.91,2.91,0,0,1,0-2.17,2.8,2.8,0,0,1,1.53-1.53,2.66,2.66,0,0,1,1.07-.22,2.84,2.84,0,0,1,2.61,3.92Z"/></svg>