<svg xmlns="http://www.w3.org/2000/svg" viewBox="0 0 60 60"><defs><style>.a{fill:#333740;}</style></defs><title>MOS icons NEW</title><path class="a" d="M13.5,16.44a7.53,7.53,0,0,0,7.36-6H60V7.35H20.86a7.51,7.51,0,0,0-14.72,0H0v3.06H6.14A7.53,7.53,0,0,0,13.5,16.44Zm0-12.06A4.51,4.51,0,1,1,9,8.88,4.5,4.5,0,0,1,13.5,4.38Z"/><path class="a" d="M46.36,28.47a7.51,7.51,0,0,0-14.72,0H0v3.06H31.64a7.51,7.51,0,0,0,14.72,0H60V28.47Zm-7.36,6A4.51,4.51,0,1,1,43.48,30,4.5,4.5,0,0,1,39,34.51Z"/><path class="a" d="M21,43.56a7.53,7.53,0,0,0-7.36,6H0v3.06H13.64a7.51,7.51,0,0,0,14.72,0H60V49.59H28.36A7.53,7.53,0,0,0,21,43.56Zm0,12.06a4.51,4.51,0,1,1,4.48-4.5A4.5,4.5,0,0,1,21,55.62Z"/></svg>