<svg xmlns="http://www.w3.org/2000/svg" viewBox="0 0 18 18"><defs><style>.a{fill:#333740;}</style></defs><title>MOS icons NEW</title><path class="a" d="M2.74.2h.78A2.6,2.6,0,0,1,5.45,1a2.63,2.63,0,0,1,.81,1.93,2.76,2.76,0,0,1-1.47,2.4c-.29.2-1,.57-2.1,1.13H6.26V8H0V7.24A1.56,1.56,0,0,1,.49,6.07a3.05,3.05,0,0,1,1-.69l1-.56Q3.38,4.35,4,4A1.35,1.35,0,0,0,4.7,2.93a1.16,1.16,0,0,0-.32-.85,1.17,1.17,0,0,0-.86-.32H2.74a1.19,1.19,0,0,0-.86.32,1.16,1.16,0,0,0-.31.85v.4H0v-.4A2.63,2.63,0,0,1,.81,1,2.62,2.62,0,0,1,2.74.2Zm.1,9.39H4.7v7.82H3.13v-5A3.16,3.16,0,0,1,.78,13.5V11.93a1.73,1.73,0,0,0,1.47-.83l.44-.93ZM13.3.2h1.57V14.82l2.05-2L18,13.89l-3.33,3.38-.58.53-.59-.53-3.33-3.38,1.08-1.07,2.05,2Z"/></svg>