<svg xmlns="http://www.w3.org/2000/svg" viewBox="0 0 18 18"><defs><style>.a{fill:#333740;}</style></defs><title>MOS icons NEW</title><path class="a" d="M2.74,9.59h.78a2.64,2.64,0,0,1,1.93.8,2.65,2.65,0,0,1,.81,1.94,2.76,2.76,0,0,1-1.47,2.39c-.29.2-1,.57-2.1,1.13H6.26v1.56H0v-.78a1.56,1.56,0,0,1,.49-1.17,3.05,3.05,0,0,1,1-.69l1-.56q.88-.46,1.47-.81a1.34,1.34,0,0,0,.74-1.07,1.17,1.17,0,0,0-.32-.86,1.17,1.17,0,0,0-.86-.32H2.74a1.19,1.19,0,0,0-.86.32,1.16,1.16,0,0,0-.31.86v.39H0v-.39a2.65,2.65,0,0,1,.81-1.94A2.66,2.66,0,0,1,2.74,9.59ZM2.84.2H4.7V8H3.13V3A3.16,3.16,0,0,1,.78,4.11V2.54a1.73,1.73,0,0,0,1.47-.83L2.69.78ZM13.3.2h1.57V14.82l2.05-2L18,13.89l-3.33,3.38-.58.53-.59-.53-3.33-3.38,1.08-1.07,2.05,2Z"/></svg>