<svg xmlns="http://www.w3.org/2000/svg" viewBox="0 0 60 60"><defs><style>.a{fill:#333740;}</style></defs><title>MOS icons NEW</title><path class="a" d="M22.38,17.48l-6.8-2.82v-5H23.7V4.22H25V1.4H3.48V4.22H4.81v5.3h8.12v4L8.29,11.68,0,31.57l14.09,5.8L34.31,54,38,45.16a9.5,9.5,0,0,0,8.78-6,9.69,9.69,0,0,0-2-10.44L48.4,20ZM7.46,6.87V4.22H20.89V6.87Zm8.12,18.9a1.42,1.42,0,0,1-1.32,1.32,1.33,1.33,0,1,1,0-2.65A1.31,1.31,0,0,1,15.58,25.77Zm.17,9.45L3.65,30.08,9.78,15.16l3,1.16v5.47a4.58,4.58,0,0,0-2.65,4,4,4,0,0,0,8,0A4.17,4.17,0,0,0,15.42,22V17.64l6,2.49,17.08,1.66L28.51,45.66ZM33.32,49.64l-2.65-2.16L41.11,22.12l3.31.33ZM44.42,38.2a6.9,6.9,0,0,1-5.13,4.14l4.47-10.77A7.78,7.78,0,0,1,44.42,38.2Z"/><rect class="a" x="53.17" y="38.99" width="2.65" height="7.13" transform="translate(-5.67 76.62) rotate(-67.5)"/><rect class="a" x="52.64" y="25.27" width="7.13" height="2.65" transform="translate(-5.9 23.51) rotate(-22.48)"/><rect class="a" x="42.89" y="51.24" width="2.65" height="7.13" transform="translate(-17.61 21.09) rotate(-22.5)"/></svg>