<svg xmlns="http://www.w3.org/2000/svg" viewBox="0 0 18 18"><defs><style>.a{fill:#353942;}</style></defs><title>MOS icons NEW</title><path class="a" d="M3,15.46V8.52H15v6.94H8.57v1.25H4.29V15.46H3M1.71,8.12v8.59H16.29V8.12a1.42,1.42,0,0,1-.29,0H2a1.42,1.42,0,0,1-.29,0"/><path class="a" d="M10.68,12.89V11.11h2.64v1.78H10.68m3.89-3H9.43v4.28h5.14V9.86"/><path class="a" d="M2.16,4.32,4,2.54h10.1l1.79,1.78H2.16m12.41-3H3.43L0,4.71H18L14.57,1.29"/><path class="a" d="M2,6.89a.75.75,0,0,1-.75-.75V6h15.5v.19a.74.74,0,0,1-.75.74H2M18,4.71H0V6.14a2,2,0,0,0,1.71,2,1.42,1.42,0,0,0,.29,0H16a1.42,1.42,0,0,0,.29,0,2,2,0,0,0,1.71-2V4.71"/><path class="a" d="M5.54,15.46V11.11H7.32v4.35H5.54m3-5.6H4.29v6.85H8.57V9.86"/></svg>