<svg xmlns="http://www.w3.org/2000/svg" viewBox="0 0 60 60"><defs><style>.a{fill:#333740;}</style></defs><title>MOS icons NEW</title><path class="a" d="M54.5,4.6H5.5A5.51,5.51,0,0,0,0,10.1V38.16a5.5,5.5,0,0,0,5.5,5.5h14V55.4L37.94,43.66H54.5a5.5,5.5,0,0,0,5.5-5.5V10.1A5.51,5.51,0,0,0,54.5,4.6ZM57,38.16a2.5,2.5,0,0,1-2.5,2.5H37.06L22.5,49.93V40.66H5.5A2.5,2.5,0,0,1,3,38.16V10.1A2.5,2.5,0,0,1,5.5,7.6h49A2.5,2.5,0,0,1,57,10.1Z"/><rect class="a" x="28.5" y="13.6" width="22.5" height="3"/><rect class="a" x="28.5" y="22.6" width="22.5" height="3"/><rect class="a" x="9" y="31.6" width="42" height="3"/><path class="a" d="M12.07,28.13l5.34-2.8,5.33,2.8-1-5.94L26,18l-6-.86-2.67-5.41-2.67,5.41-6,.86,4.31,4.21Zm4.66-8.27.68-1.37.67,1.37,1.51.22L18.5,21.14l.26,1.51-1.35-.71-1.35.71.26-1.51-1.1-1.06Z"/></svg>