<svg xmlns="http://www.w3.org/2000/svg" viewBox="0 0 18 18"><defs><style>.a{fill:#333740;}</style></defs><title>MOS icons NEW</title><path class="a" d="M0,1.8H10.8V4.2H14l.23.15L17.85,8l.15.22V14.4H16.12a2.38,2.38,0,0,1-.86,1.29,2.34,2.34,0,0,1-2.92,0,2.38,2.38,0,0,1-.86-1.29h-5a2.38,2.38,0,0,1-.86,1.29,2.26,2.26,0,0,1-1.46.51,2.26,2.26,0,0,1-1.46-.51,2.38,2.38,0,0,1-.86-1.29H0V1.8ZM1.2,3V13.2h.68a2.34,2.34,0,0,1,.86-1.29A2.26,2.26,0,0,1,4.2,11.4a2.26,2.26,0,0,1,1.46.51,2.34,2.34,0,0,1,.86,1.29H9.6V3ZM5,13a1.16,1.16,0,0,0-1.68,0,1.16,1.16,0,0,0,0,1.68,1.16,1.16,0,0,0,1.68,0A1.16,1.16,0,0,0,5,13ZM10.8,5.4v7.8h.68a2.34,2.34,0,0,1,.86-1.29,2.34,2.34,0,0,1,2.92,0,2.34,2.34,0,0,1,.86,1.29h.68V8.66L13.54,5.4ZM14.64,13a1.16,1.16,0,1,0,.36.84A1.14,1.14,0,0,0,14.64,13Z"/></svg>