<svg xmlns="http://www.w3.org/2000/svg" viewBox="0 0 18 18"><defs><style>.a{fill:#333740;}</style></defs><title>MOS icons NEW</title><path class="a" d="M18,3.42a7.6,7.6,0,0,1-1.83,1.92v.47a10.25,10.25,0,0,1-.7,3.71,12,12,0,0,1-2,3.37,9.41,9.41,0,0,1-3.33,2.49,10.66,10.66,0,0,1-4.48.93A10.3,10.3,0,0,1,0,14.67a8.37,8.37,0,0,0,.89.05,7.15,7.15,0,0,0,4.59-1.6,3.42,3.42,0,0,1-2.15-.72A3.81,3.81,0,0,1,2,10.55a2.58,2.58,0,0,0,.7.09,3.52,3.52,0,0,0,1-.14A3.78,3.78,0,0,1,1.55,9.21,3.46,3.46,0,0,1,.7,6.89v0a4,4,0,0,0,1.69.47A3.56,3.56,0,0,1,.75,4.22a3.66,3.66,0,0,1,.52-1.88A10,10,0,0,0,8.86,6.23a4,4,0,0,1-.09-.84A3.54,3.54,0,0,1,9.84,2.77a3.58,3.58,0,0,1,2.63-1.08,3.49,3.49,0,0,1,2.67,1.17A6.84,6.84,0,0,0,17.48,2a3.51,3.51,0,0,1-1.59,2A8.34,8.34,0,0,0,18,3.42Z"/></svg>