<svg xmlns="http://www.w3.org/2000/svg" viewBox="0 0 18 18"><defs><style>.a{fill:#333740;}</style></defs><title>MOS icons NEW</title><path class="a" d="M11,15h1.59v3H11Zm4-4V12.6h3V11ZM13.37,14.5l2.13,2.12,1.12-1.12-2.13-2.12ZM8.23,10.55l.31-1.77a3.12,3.12,0,0,1-.86-2.85L8,4.3A3.11,3.11,0,0,1,9.33,2.15a3.23,3.23,0,0,1,2.49-.54A3.26,3.26,0,0,1,14,3a3.11,3.11,0,0,1,.53,2.46l-.29,1.63a3.22,3.22,0,0,1-1.36,2.15,3.62,3.62,0,0,1-.43.24l-.31,1.77a4.6,4.6,0,0,0,1.63-.73,4.7,4.7,0,0,0,2-3.19L16,5.75a4.61,4.61,0,0,0-.79-3.68,4.72,4.72,0,0,0-3.16-2A4.78,4.78,0,0,0,8.43.87a4.64,4.64,0,0,0-2,3.19L6.15,5.63a4.65,4.65,0,0,0,.79,3.68A4.6,4.6,0,0,0,8.23,10.55Zm2.42-.31L9.37,11.5a3.17,3.17,0,0,1-1,2.82L7.22,15.48a3.11,3.11,0,0,1-2.35,1,3.25,3.25,0,0,1-2.35-1,3.24,3.24,0,0,1-.95-2.38,3.06,3.06,0,0,1,1-2.3L3.76,9.6a3.25,3.25,0,0,1,1.75-.92A3.05,3.05,0,0,1,5.08,7.2,3.89,3.89,0,0,0,2.63,8.51L1.5,9.63A4.62,4.62,0,0,0,0,13.07a4.69,4.69,0,0,0,1.42,3.46A4.7,4.7,0,0,0,4.86,18a4.67,4.67,0,0,0,3.48-1.44l1.14-1.11A4.66,4.66,0,0,0,11,12,4.78,4.78,0,0,0,10.65,10.24Z"/></svg>