<svg xmlns="http://www.w3.org/2000/svg" viewBox="0 0 18 18"><defs><style>.a{fill:#333740;}</style></defs><title>MOS icons NEW</title><path class="a" d="M9,0a4.47,4.47,0,0,1,3.29,1.38,4.47,4.47,0,0,1,1.38,3.29V6.58a6.42,6.42,0,0,1,2,4.75,6.43,6.43,0,0,1-2,4.71A6.42,6.42,0,0,1,9,18a6.42,6.42,0,0,1-4.71-2,6.43,6.43,0,0,1-2-4.71,6.46,6.46,0,0,1,2-4.71A6.45,6.45,0,0,1,9,4.67a6.52,6.52,0,0,1,3.33.91V4.67a3.2,3.2,0,0,0-1-2.36A3.2,3.2,0,0,0,9,1.33,3.24,3.24,0,0,0,7.08,2,3.5,3.5,0,0,0,5.83,3.58l-1.25-.5A5,5,0,0,1,6.31.85,4.49,4.49,0,0,1,9,0Zm3.77,7.56A5.14,5.14,0,0,0,9,6,5.14,5.14,0,0,0,5.23,7.56a5.14,5.14,0,0,0-1.56,3.77A5.13,5.13,0,0,0,5.23,15.1,5.11,5.11,0,0,0,9,16.67a5.11,5.11,0,0,0,3.77-1.57,5.13,5.13,0,0,0,1.56-3.77A5.14,5.14,0,0,0,12.77,7.56ZM8.06,10.4a1.33,1.33,0,0,1,2.27.93,1.32,1.32,0,0,1-.66,1.17v2.17H8.33V12.5a1.32,1.32,0,0,1-.66-1.17A1.27,1.27,0,0,1,8.06,10.4Z"/></svg>