<svg xmlns="http://www.w3.org/2000/svg" viewBox="0 0 18 18"><defs><style>.a{fill:#333740;}</style></defs><title>MOS icons NEW</title><path class="a" d="M5,1.69A5.5,5.5,0,0,1,9,0a5.5,5.5,0,0,1,4,1.69,5.52,5.52,0,0,1,1.69,4A5.63,5.63,0,0,1,14,8.44a5.57,5.57,0,0,1-1.87,2,8.35,8.35,0,0,1,3.63,3A7.86,7.86,0,0,1,17.18,18H15.55a6.3,6.3,0,0,0-1.92-4.63A6.3,6.3,0,0,0,9,11.45a6.3,6.3,0,0,0-4.63,1.92A6.3,6.3,0,0,0,2.45,18H.82A7.86,7.86,0,0,1,2.2,13.47a8.35,8.35,0,0,1,3.63-3A5.49,5.49,0,0,1,4,8.44a5.63,5.63,0,0,1-.69-2.71A5.52,5.52,0,0,1,5,1.69Zm6.93,1.15A4,4,0,0,0,9,1.64a4,4,0,0,0-2.89,1.2,3.93,3.93,0,0,0-1.2,2.89,4,4,0,0,0,1.2,2.89A4,4,0,0,0,9,9.82a4,4,0,0,0,2.89-1.2,4,4,0,0,0,1.2-2.89A3.93,3.93,0,0,0,11.89,2.84Z"/></svg>