<svg xmlns="http://www.w3.org/2000/svg" viewBox="0 0 60 60"><defs><style>.a{fill:#333740;}</style></defs><title>MOS icons NEW</title><path class="a" d="M60,53.17V44.74A10.83,10.83,0,0,0,49.2,33.89H46.79V31.54a9.25,9.25,0,0,0,4.8-8.12V21.63A3.61,3.61,0,0,0,54,18.24a3.56,3.56,0,0,0-1.24-2.7v-.73A10.36,10.36,0,0,0,42.43,4.43h-.91A10.36,10.36,0,0,0,31.2,14.81v.76a3.59,3.59,0,0,0,1.21,6.06v1.79a9.25,9.25,0,0,0,4.8,8.12v2.35H34.8a10.78,10.78,0,0,0-7.25,2.87v-11A3.6,3.6,0,0,0,28.79,23a3.56,3.56,0,0,0-1.24-2.7v-.72A10.36,10.36,0,0,0,17.23,9.24h-.91A10.36,10.36,0,0,0,6,19.62v.76a3.58,3.58,0,0,0,0,5.33V39.84a10.87,10.87,0,0,0-6,9.7v3.63H0v2.4H60v-2.4ZM48.33,36.28,45.5,39.44,43.88,38,46,36.28Zm0-26.71a8,8,0,0,1,2,5.06H49.5a2.66,2.66,0,0,1-2.62-2.32A11.79,11.79,0,0,0,48.35,9.57ZM41.52,6.85h.91a7.73,7.73,0,0,1,3.93,1.09,9.08,9.08,0,0,1-1.64,3.27,8.93,8.93,0,0,1-7,3.41H33.62A7.94,7.94,0,0,1,41.52,6.85ZM34.79,23.42v-4H33.6a1.22,1.22,0,0,1,0-2.44h4.08a11.28,11.28,0,0,0,7.37-2.73A5,5,0,0,0,49.2,17v0h1.2a1.22,1.22,0,0,1,0,2.44H49.2v4a6.83,6.83,0,0,1-6.81,6.85h-.8A6.83,6.83,0,0,1,34.79,23.42ZM38,36.28,40.12,38l-1.81,1.47-2.72-3.18ZM16.32,11.65h.91a8,8,0,0,1,7.91,7.78H24.3a9,9,0,0,1-8.89-7.68C15.72,11.71,16,11.65,16.32,11.65Zm-3.24.71A11.5,11.5,0,0,0,14,15.17,4.38,4.38,0,0,1,9.6,19.42H8.42A8,8,0,0,1,13.08,12.36ZM8.4,21.83H9.6a6.76,6.76,0,0,0,6.12-3.94A11.37,11.37,0,0,0,24,21.82h1.2a1.22,1.22,0,0,1,0,2.43H24v4a6.83,6.83,0,0,1-6.81,6.85h-.8a6.83,6.83,0,0,1-6.81-6.85v-4H8.4a1.22,1.22,0,0,1,0-2.43Zm6,15.62v-.21a9.52,9.52,0,0,0,2,.23h.8a9.52,9.52,0,0,0,2-.23V41.1H22.8v.77c0,2.23-3.45,5.3-6,7a26.89,26.89,0,0,1-3-2.4A7,7,0,0,0,14.36,44c0-.14,0-.27,0-.41V37.45Zm7.2,1.24V36.34a9.24,9.24,0,0,0,3.56-3.51V39a10.64,10.64,0,0,0-2.35-.27ZM12,36.34v1.11h0v6.11a4.82,4.82,0,0,1-3.6,4.67V32.76A9.34,9.34,0,0,0,12,36.34Zm19.2,16.83H2.39V49.54A8.45,8.45,0,0,1,6,42.61V50.8H7.2a7.14,7.14,0,0,0,5.22-2.29,29.94,29.94,0,0,0,3.75,2.83l.63.39.63-.39c.79-.49,7.77-4.93,7.77-9.48v-.42a8.46,8.46,0,0,1,6,8.1Zm9.6,0H33.59V49.54A10.86,10.86,0,0,0,27.87,40a8.58,8.58,0,0,1,4.83-3.4L38,42.78l2.8-2.27ZM39.59,34.51V32.43a8.91,8.91,0,0,0,2,.23h.8a8.91,8.91,0,0,0,2-.23v2.08L42,36.45Zm18,18.66H43.19V40.59L45.7,42.8l5.59-6.24a8.44,8.44,0,0,1,6.32,8.18Z"/><path class="a" d="M44.4,25.43H39.6a2.4,2.4,0,1,0,4.8,0Z"/><polygon class="a" points="48 47.14 52.8 47.14 52.8 45.95 52.8 44.75 48 44.75 48 47.14"/><path class="a" d="M16.8,32.65a2.41,2.41,0,0,0,2.4-2.41H14.4A2.41,2.41,0,0,0,16.8,32.65Z"/></svg>